<?xml version="1.0" encoding="UTF-8" standalone="no"?>
<!-- Created with Inkscape (http://www.inkscape.org/) -->

<svg
   xmlns:dc="http://purl.org/dc/elements/1.1/"
   xmlns:cc="http://creativecommons.org/ns#"
   xmlns:rdf="http://www.w3.org/1999/02/22-rdf-syntax-ns#"
   xmlns:svg="http://www.w3.org/2000/svg"
   xmlns="http://www.w3.org/2000/svg"
   xmlns:sodipodi="http://sodipodi.sourceforge.net/DTD/sodipodi-0.dtd"
   xmlns:inkscape="http://www.inkscape.org/namespaces/inkscape"
   width="210mm"
   height="297mm"
   id="svg2"
   version="1.1"
   inkscape:version="0.48.5 r10040"
   sodipodi:docname="Documento nuevo 1">
  <defs
     id="defs4" />
  <sodipodi:namedview
     id="base"
     pagecolor="#ffffff"
     bordercolor="#666666"
     borderopacity="1.0"
     inkscape:pageopacity="0.0"
     inkscape:pageshadow="2"
     inkscape:zoom="0.49718825"
     inkscape:cx="2859.2789"
     inkscape:cy="402.33968"
     inkscape:document-units="px"
     inkscape:current-layer="layer1"
     showgrid="false"
     inkscape:window-width="1366"
     inkscape:window-height="691"
     inkscape:window-x="-2"
     inkscape:window-y="-3"
     inkscape:window-maximized="1">
    <inkscape:grid
       type="axonomgrid"
       id="grid2991"
       units="mm"
       empspacing="5"
       visible="true"
       enabled="true"
       snapvisiblegridlinesonly="true" />
  </sodipodi:namedview>
  <metadata
     id="metadata7">
    <rdf:RDF>
      <cc:Work
         rdf:about="">
        <dc:format>image/svg+xml</dc:format>
        <dc:type
           rdf:resource="http://purl.org/dc/dcmitype/StillImage" />
        <dc:title></dc:title>
      </cc:Work>
    </rdf:RDF>
  </metadata>
  <g
     inkscape:label="Capa 1"
     inkscape:groupmode="layer"
     id="layer1">
    <path
       sodipodi:type="arc"
       style="fill:#000000;fill-opacity:1;fill-rule:nonzero;stroke:#008080;stroke-width:8.03800011;stroke-miterlimit:4;stroke-opacity:1;stroke-dasharray:none;stroke-dashoffset:0"
       id="path3901"
       sodipodi:cx="228.57143"
       sodipodi:cy="396.64789"
       sodipodi:rx="77.14286"
       sodipodi:ry="77.14286"
       d="m 305.71429,396.64789 a 77.14286,77.14286 0 1 1 -154.28572,0 77.14286,77.14286 0 1 1 154.28572,0 z"
       transform="matrix(1.1927546,0,0,1.1927546,1383.6004,-818.40294)" />
    <rect
       style="fill:#000000;fill-opacity:1;fill-rule:nonzero;stroke:#008080;stroke-width:8.03800011;stroke-miterlimit:4;stroke-opacity:1;stroke-dasharray:none;stroke-dashoffset:0"
       id="rect3903"
       width="119.8343"
       height="193.89597"
       x="1596.3129"
       y="-234.98506"
       rx="29.227875"
       ry="29.227875" />
    <rect
       style="fill:#000000;fill-opacity:1;fill-rule:nonzero;stroke:#008080;stroke-width:8.03800011;stroke-miterlimit:4;stroke-opacity:1;stroke-dasharray:none;stroke-dashoffset:0"
       id="rect3905"
       width="40.991016"
       height="154.10391"
       x="1675.1561"
       y="-33.051102"
       rx="20.495508"
       ry="20.495508" />
    <rect
       ry="20.495508"
       rx="20.495508"
       y="-33.051102"
       x="1596.3129"
       height="154.10391"
       width="40.991016"
       id="rect3907"
       style="fill:#000000;fill-opacity:1;fill-rule:nonzero;stroke:#008080;stroke-width:8.03800011;stroke-miterlimit:4;stroke-opacity:1;stroke-dasharray:none;stroke-dashoffset:0" />
    <path
       style="fill:#000000;fill-opacity:1;fill-rule:nonzero;stroke:#008080;stroke-width:8.03800011;stroke-miterlimit:4;stroke-opacity:1;stroke-dasharray:none;stroke-dashoffset:0"
       d="m 1743.4979,-225.22621 c -8.4621,-0.005 -15.2453,6.78792 -15.25,15.25 l -0.031,25.21875 -0.031,36.15625 0,25.21875 c 0,0.0738 -0,0.14523 0,0.21875 l 0,14.5625 0,25.218747 c 0,8.46207 6.819,15.30763 15.2812,15.3125 8.4622,0.005 15.2452,-6.81918 15.25,-15.28125 l 0,-25.218747 0,-14.78125 0.031,-21.375 0.031,-25.21875 c 0,-0.24304 -0.02,-0.47853 -0.031,-0.71875 l 0,-14.0625 0.031,-25.21875 c 0,-8.46208 -6.8192,-15.27637 -15.2813,-15.28125 z"
       id="path3909"
       inkscape:connector-curvature="0" />
    <path
       style="fill:#000000;fill-opacity:1;fill-rule:nonzero;stroke:#008080;stroke-width:8.03800011;stroke-miterlimit:4;stroke-opacity:1;stroke-dasharray:none;stroke-dashoffset:0"
       d="m 1569.0025,-225.23969 c -8.4622,-0.005 -15.2541,6.81035 -15.2588,15.27243 l -0.015,25.21875 -0.021,36.15624 -0.015,25.21876 c 0,8.46207 6.8102,15.28517 15.2724,15.29004 8.4622,0.005 15.254,-6.81035 15.2588,-15.27242 l 0.015,-25.21876 0.021,-36.15624 0.015,-25.21875 c 0,-8.46208 -6.8103,-15.28517 -15.2724,-15.29005 z"
       id="path3911"
       inkscape:connector-curvature="0" />
    <path
       style="fill:#ffffff;fill-opacity:1;stroke:#1a1a1a"
       d="m 1502,-485.11862 c -8.981,-0.42302 -18.4297,-5.7976 -23.6116,-13.43084 -1.8798,-2.76908 -2.2775,-3.0819 -6.0286,-4.74105 l -4.016,-1.77635 -0.6752,-4.14735 -0.6753,-4.14734 3.6108,-3.60817 c 3.0555,-3.05328 3.7646,-4.06736 4.6112,-6.59414 1.4331,-4.27721 6.2938,-10.93048 10.0445,-13.74855 8.2974,-6.23434 19.9496,-8.16739 29.8045,-4.94454 4.747,1.55246 11.2887,6.19735 14.1481,10.04567 l 2.0832,2.80365 7.3565,-1.2193 7.3564,-1.2193 1.0281,-3.08843 c 1.2881,-3.8689 6.6065,-11.47896 9.7816,-13.99635 4.1519,-3.29184 7.245,-4.6602 13.4331,-5.94271 6.2494,-1.29519 9.7548,-1.30249 14.6969,-0.0306 6.193,1.59382 12.5268,5.79948 16.3414,10.85073 1.2339,1.63377 2.5559,2.57292 6.0854,4.32319 l 4.5091,2.23601 0.7038,4.23983 0.7038,4.23983 -3.1314,2.93137 c -3.0244,2.83119 -3.1759,3.08379 -4.433,7.39093 -2.4868,8.52038 -9.4723,16.10112 -17.879,19.40241 -2.3332,0.91623 -4.6835,1.44979 -8.2913,1.88222 -8.4727,1.01541 -14.4124,-0.52014 -21.6619,-5.60007 -5.9156,-4.14525 -10.1401,-10.20976 -11.0874,-15.91628 -0.2649,-1.59588 -0.6293,-2.2789 -1.5249,-2.85834 -2.8491,-1.84342 -5.7275,-1.68261 -8.6873,0.48535 l -1.8542,1.35818 0.144,4.09186 c 0.079,2.25052 -0.063,5.11013 -0.3154,6.35472 -1.9618,9.66354 -9.4138,18.44994 -18.7484,22.10549 -3.7537,1.47 -9.7778,2.4586 -13.8214,2.26817 z m 14.1341,-7.8233 c 8.1029,-4.35379 13.7918,-12.90984 14.1351,-21.25905 0.3479,-8.46056 -3.3778,-15.77457 -10.6803,-20.96661 -9.2001,-6.54128 -21.2067,-6.43669 -30.8688,0.26888 -3.504,2.43186 -8.1001,8.70166 -9.3154,12.70771 -3.1927,10.52463 0.2315,20.56575 9.2079,27.00132 6.5103,4.66752 11.7296,5.87891 19.711,4.57489 4.0072,-0.65471 5.5578,-1.1167 7.8105,-2.32714 z m 70.9053,-11.39548 c 10.6412,-4.81054 16.7089,-15.84136 14.8408,-26.97957 -1.8204,-10.85676 -10.0049,-18.55257 -21.782,-20.48312 -3.705,-0.6073 -12.1371,0.79238 -15.4471,2.56411 -8.8178,4.71992 -14.488,13.7705 -14.402,22.98814 0.069,7.43791 3.779,14.48742 9.9442,18.89725 4.5741,3.27176 8.254,4.74484 13.2229,5.29312 2.9818,0.32904 10.7148,-0.96512 13.6232,-2.27991 z"
       id="path3913"
       inkscape:connector-curvature="0" />
    <path
       transform="matrix(1.1927546,0,0,1.1927546,3010.6102,-27.653424)"
       d="m 305.71429,396.64789 a 77.14286,77.14286 0 1 1 -154.28572,0 77.14286,77.14286 0 1 1 154.28572,0 z"
       sodipodi:ry="77.14286"
       sodipodi:rx="77.14286"
       sodipodi:cy="396.64789"
       sodipodi:cx="228.57143"
       id="path3920"
       style="fill:#000000;fill-opacity:1;fill-rule:nonzero;stroke:#008080;stroke-width:8.03800011;stroke-miterlimit:4;stroke-opacity:1;stroke-dasharray:none;stroke-dashoffset:0"
       sodipodi:type="arc" />
    <rect
       ry="29.227875"
       rx="29.227875"
       y="555.76447"
       x="3223.3228"
       height="193.89597"
       width="119.8343"
       id="rect3922"
       style="fill:#000000;fill-opacity:1;fill-rule:nonzero;stroke:#008080;stroke-width:8.03800011;stroke-miterlimit:4;stroke-opacity:1;stroke-dasharray:none;stroke-dashoffset:0" />
    <rect
       ry="20.495508"
       rx="20.495508"
       y="757.69843"
       x="3302.166"
       height="154.10391"
       width="40.991016"
       id="rect3924"
       style="fill:#000000;fill-opacity:1;fill-rule:nonzero;stroke:#008080;stroke-width:8.03800011;stroke-miterlimit:4;stroke-opacity:1;stroke-dasharray:none;stroke-dashoffset:0" />
    <rect
       style="fill:#000000;fill-opacity:1;fill-rule:nonzero;stroke:#008080;stroke-width:8.03800011;stroke-miterlimit:4;stroke-opacity:1;stroke-dasharray:none;stroke-dashoffset:0"
       id="rect3926"
       width="40.991016"
       height="154.10391"
       x="3223.3228"
       y="757.69843"
       rx="20.495508"
       ry="20.495508" />
    <path
       inkscape:connector-curvature="0"
       id="path3928"
       d="m 3370.5077,565.52331 c -8.4621,-0.005 -15.2453,6.78792 -15.25,15.25 l -0.031,25.21875 -0.031,36.15625 0,25.21875 c 0,0.0738 0,0.14523 0,0.21875 l 0,14.5625 0,25.21874 c 0,8.46207 6.819,15.30763 15.2812,15.3125 8.4622,0.005 15.2452,-6.81918 15.25,-15.28125 l 0,-25.21874 0,-14.78125 0.031,-21.375 0.031,-25.21875 c 0,-0.24304 -0.02,-0.47853 -0.031,-0.71875 l 0,-14.0625 0.031,-25.21875 c 0,-8.46208 -6.8192,-15.27637 -15.2813,-15.28125 z"
       style="fill:#000000;fill-opacity:1;fill-rule:nonzero;stroke:#008080;stroke-width:8.03800011;stroke-miterlimit:4;stroke-opacity:1;stroke-dasharray:none;stroke-dashoffset:0" />
    <path
       inkscape:connector-curvature="0"
       id="path3930"
       d="m 3196.0123,565.50983 c -8.4622,-0.005 -15.2541,6.81035 -15.2588,15.27243 l -0.015,25.21875 -0.021,36.15624 -0.015,25.21876 c 0,8.46207 6.8102,15.28517 15.2724,15.29004 8.4622,0.005 15.254,-6.81035 15.2588,-15.27242 l 0.015,-25.21876 0.021,-36.15624 0.015,-25.21875 c 0,-8.46208 -6.8103,-15.28517 -15.2724,-15.29005 z"
       style="fill:#000000;fill-opacity:1;fill-rule:nonzero;stroke:#008080;stroke-width:8.03800011;stroke-miterlimit:4;stroke-opacity:1;stroke-dasharray:none;stroke-dashoffset:0" />
    <path
       inkscape:connector-curvature="0"
       id="path3932"
       d="m 3251.32,464.91857 c -8.981,-0.42302 -18.4297,-5.7976 -23.6116,-13.43084 -1.8798,-2.76908 -2.2775,-3.0819 -6.0286,-4.74105 l -4.016,-1.77635 -0.6752,-4.14735 -0.6753,-4.14734 3.6108,-3.60817 c 3.0555,-3.05328 3.7646,-4.06736 4.6112,-6.59414 1.4331,-4.27721 6.2938,-10.93048 10.0445,-13.74855 8.2974,-6.23434 19.9496,-8.16739 29.8045,-4.94454 4.747,1.55246 11.2887,6.19735 14.1481,10.04567 l 2.0832,2.80365 7.3565,-1.2193 7.3564,-1.2193 1.0281,-3.08843 c 1.2881,-3.8689 6.6065,-11.47896 9.7816,-13.99635 4.1519,-3.29184 7.245,-4.6602 13.4331,-5.94271 6.2494,-1.29519 9.7548,-1.30249 14.6969,-0.0306 6.193,1.59382 12.5268,5.79948 16.3414,10.85073 1.2339,1.63377 2.5559,2.57292 6.0854,4.32319 l 4.5091,2.23601 0.7038,4.23983 0.7038,4.23983 -3.1314,2.93137 c -3.0244,2.83119 -3.1759,3.08379 -4.433,7.39093 -2.4868,8.52038 -9.4723,16.10112 -17.879,19.40241 -2.3332,0.91623 -4.6835,1.44979 -8.2913,1.88222 -8.4727,1.01541 -14.4124,-0.52014 -21.6619,-5.60007 -5.9156,-4.14525 -10.1401,-10.20976 -11.0874,-15.91628 -0.2649,-1.59588 -0.6293,-2.2789 -1.5249,-2.85834 -2.8491,-1.84342 -5.7275,-1.68261 -8.6873,0.48535 l -1.8542,1.35818 0.144,4.09186 c 0.079,2.25052 -0.063,5.11013 -0.3154,6.35472 -1.9618,9.66354 -9.4138,18.44994 -18.7484,22.10549 -3.7537,1.47 -9.7778,2.4586 -13.8214,2.26817 z m 14.1341,-7.8233 c 8.1029,-4.35379 13.7918,-12.90984 14.1351,-21.25905 0.3479,-8.46056 -3.3778,-15.77457 -10.6803,-20.96661 -9.2001,-6.54128 -21.2067,-6.43669 -30.8688,0.26888 -3.504,2.43186 -8.1001,8.70166 -9.3154,12.70771 -3.1927,10.52463 0.2315,20.56575 9.2079,27.00132 6.5103,4.66752 11.7296,5.87891 19.711,4.57489 4.0072,-0.65471 5.5578,-1.1167 7.8105,-2.32714 z m 70.9053,-11.39548 c 10.6412,-4.81054 16.7089,-15.84136 14.8408,-26.97957 -1.8204,-10.85676 -10.0049,-18.55257 -21.782,-20.48312 -3.705,-0.6073 -12.1371,0.79238 -15.4471,2.56411 -8.8178,4.71992 -14.488,13.7705 -14.402,22.98814 0.069,7.43791 3.779,14.48742 9.9442,18.89725 4.5741,3.27176 8.254,4.74484 13.2229,5.29312 2.9818,0.32904 10.7148,-0.96512 13.6232,-2.27991 z"
       style="fill:#ffffff;fill-opacity:1;stroke:#1a1a1a" />
  </g>
</svg>
