<?xml version="1.0" encoding="UTF-8" standalone="no"?>
<!-- Created with Inkscape (http://www.inkscape.org/) -->

<svg
   xmlns:dc="http://purl.org/dc/elements/1.1/"
   xmlns:cc="http://creativecommons.org/ns#"
   xmlns:rdf="http://www.w3.org/1999/02/22-rdf-syntax-ns#"
   xmlns:svg="http://www.w3.org/2000/svg"
   xmlns="http://www.w3.org/2000/svg"
   xmlns:sodipodi="http://sodipodi.sourceforge.net/DTD/sodipodi-0.dtd"
   xmlns:inkscape="http://www.inkscape.org/namespaces/inkscape"
   width="210mm"
   height="297mm"
   id="svg3105"
   version="1.1"
   inkscape:version="0.48.5 r10040"
   sodipodi:docname="stickers.svg">
  <defs
     id="defs3">
    <clipPath
       clipPathUnits="userSpaceOnUse"
       id="clipPath3038">
      <rect
         transform="matrix(0.70710678,0.70710678,-0.70710678,0.70710678,0,0)"
         ry="0"
         rx="4873.6025"
         y="2847.3616"
         x="-4066.4878"
         height="3967.1924"
         width="3967.1924"
         id="rect3040"
         style="opacity:0.57999998;fill:#800080;fill-opacity:1;fill-rule:nonzero;stroke:none" />
    </clipPath>
    <clipPath
       id="clipPath3432"
       clipPathUnits="userSpaceOnUse">
      <rect
         y="4950.377"
         x="-800.50433"
         height="258.51062"
         width="543.48303"
         id="rect3434"
         style="fill:#ff00ff;fill-opacity:1;fill-rule:nonzero;stroke:none" />
    </clipPath>
    <clipPath
       id="clipPath3428"
       clipPathUnits="userSpaceOnUse">
      <rect
         style="fill:#ff00ff;fill-opacity:1;fill-rule:nonzero;stroke:none"
         id="rect3430"
         width="543.48297"
         height="258.51062"
         x="-1349.5476"
         y="4601.5244" />
    </clipPath>
  </defs>
  <sodipodi:namedview
     inkscape:document-units="mm"
     id="base"
     pagecolor="#ffffff"
     bordercolor="#666666"
     borderopacity="1.0"
     inkscape:pageopacity="0.0"
     inkscape:pageshadow="2"
     inkscape:zoom="0.35355339"
     inkscape:cx="907.79888"
     inkscape:cy="653.14403"
     inkscape:current-layer="g4321"
     showgrid="false"
     inkscape:window-width="1366"
     inkscape:window-height="691"
     inkscape:window-x="-2"
     inkscape:window-y="-3"
     inkscape:window-maximized="1"
     showguides="true"
     inkscape:guide-bbox="true" />
  <metadata
     id="metadata4">
    <rdf:RDF>
      <cc:Work
         rdf:about="">
        <dc:format>image/svg+xml</dc:format>
        <dc:type
           rdf:resource="http://purl.org/dc/dcmitype/StillImage" />
        <dc:title></dc:title>
      </cc:Work>
    </rdf:RDF>
  </metadata>
  <g
     inkscape:label="Layer 1"
     inkscape:groupmode="layer"
     id="layer1">
    <g
       id="g4321"
       style="fill:#000000">
      <g
         id="g6614"
         inkscape:export-filename="/home/hector/Escritorio/Django_Girls/Frascos/Pegatina.png"
         inkscape:export-xdpi="120"
         inkscape:export-ydpi="120">
        <path
           style="fill:#000000;stroke:none"
           d="m 988.8513,320.16332 c -3.42713,-0.10239 -6.59251,-0.89066 -9.41293,-2.34322 -2.14465,-1.10439 -4.10439,-2.56948 -5.94019,-4.44133 -1.47012,-1.49841 -2.75188,-3.20419 -3.69067,-4.91163 -1.07356,-1.95316 -1.80246,-3.96274 -2.22973,-6.14934 -0.16202,-0.82827 -0.25936,-1.53529 -0.35223,-2.55729 -0.0941,-1.0472 -0.10174,-2.66274 -0.0166,-3.83149 0.31036,-4.25241 1.70041,-8.02306 4.19235,-11.37101 1.38248,-1.85731 3.13605,-3.61368 4.97798,-4.98589 3.29201,-2.4525 7.03695,-3.85037 11.19853,-4.18048 0.75459,-0.0597 1.11908,-0.0734 2.00132,-0.0734 1.55107,0 2.83272,0.10764 4.1814,0.35157 1.60631,0.2904 2.97996,0.69038 4.45629,1.29781 2.32068,0.95485 4.58178,2.43168 6.58088,4.29901 2.7687,2.58567 4.7407,5.51033 5.9161,8.77356 0.7378,2.04832 1.1356,4.09022 1.2651,6.49875 0.029,0.53588 0.029,2.04672 0,2.50349 -0.1414,2.2608 -0.4693,4.0278 -1.0969,5.91316 -0.5674,1.70416 -1.2977,3.22097 -2.3024,4.78258 -1.4597,2.26747 -3.5638,4.50447 -5.7922,6.15826 -0.8835,0.65567 -1.492,1.05064 -2.441,1.58516 -2.5584,1.44094 -5.5264,2.33314 -8.65938,2.603 -0.69989,0.0602 -2.12526,0.0996 -2.83556,0.0786 z m 1.75006,-2.46609 c 3.10322,-0.14543 5.89655,-0.9154 8.46201,-2.33264 1.78773,-0.98812 3.46833,-2.29387 4.91793,-3.82259 0.5141,-0.5417 0.7101,-0.75999 1.0553,-1.1729 2.5006,-2.9919 3.9635,-6.40151 4.39,-10.23174 0.1007,-0.90584 0.1348,-1.66099 0.1204,-2.66496 -0.013,-0.96754 -0.058,-1.65249 -0.1651,-2.47657 -0.374,-2.90486 -1.3277,-5.5136 -2.9024,-7.93939 -1.1942,-1.83899 -2.7922,-3.58956 -4.6023,-5.04002 -2.57591,-2.06481 -5.43137,-3.37161 -8.59279,-3.93289 -1.32748,-0.23564 -2.51644,-0.32833 -3.98426,-0.31054 -0.99429,0.0119 -1.53006,0.0469 -2.40992,0.15708 -3.11843,0.39028 -5.97608,1.48288 -8.51091,3.25411 -2.20411,1.54022 -4.22842,3.61844 -5.67523,5.82602 -1.68549,2.57202 -2.68053,5.40388 -3.00116,8.54195 -0.1222,1.19537 -0.13564,2.69295 -0.0349,3.93916 0.2461,3.06476 1.11764,5.81659 2.65187,8.37176 1.21523,2.02347 2.97817,4.0191 4.95675,5.61076 2.59062,2.08415 5.54352,3.41724 8.77553,3.96151 0.86779,0.14612 1.54011,0.21439 2.63829,0.268 0.28694,0.0139 1.56967,0.01 1.91152,-0.005 z m -4.37895,-3.69899 c -0.0908,-0.0401 -0.14375,-0.0826 -0.14375,-0.11458 0,-0.0117 0.0394,-0.0815 0.0864,-0.15428 0.11814,-0.17964 0.37206,-0.62439 0.44489,-0.77861 0.11114,-0.23554 0.25064,-0.79009 0.30531,-1.21135 0.0285,-0.21973 0.0317,-0.51903 0.0372,-3.21926 l 0.0108,-2.977 -0.058,0.0116 c -0.0941,0.0185 -0.3007,0.12418 -0.42125,0.21542 -0.23694,0.17935 -0.36023,0.36067 -0.44063,0.64809 l -0.0394,0.14357 -0.0108,2.44961 c -0.0119,2.65613 -0.0108,2.52181 -0.10829,2.83494 -0.082,0.25374 -0.17021,0.38889 -0.40125,0.62133 -0.22707,0.22849 -0.36906,0.33274 -0.64378,0.47245 -0.38207,0.19456 -0.90487,0.30685 -1.42547,0.30624 -0.49916,-7.2e-4 -0.71269,-0.0894 -0.77557,-0.32152 -0.0405,-0.15457 0.0394,-0.25295 0.44762,-0.53895 0.50922,-0.3574 0.67099,-0.52879 0.86091,-0.91152 0.12426,-0.24972 0.15204,-0.34071 0.18246,-0.6008 0.0231,-0.20243 0.013,-0.97146 -0.0177,-1.26996 -0.0602,-0.6 -0.0941,-1.3975 -0.0722,-1.72185 0.0108,-0.12283 0.013,-0.22543 0.0108,-0.2279 -0.0108,-0.002 -0.081,0.0191 -0.17449,0.0487 -0.40334,0.12656 -0.8817,0.19637 -1.34191,0.19589 -0.96952,-0.002 -1.92924,-0.3024 -2.90216,-0.91108 -0.22141,-0.13857 -0.31198,-0.22276 -0.56183,-0.52277 -0.26441,-0.31674 -0.57455,-0.77948 -0.85665,-1.27819 -0.41231,-0.72818 -0.56349,-0.93952 -1.05411,-1.47188 -0.22066,-0.23938 -0.68882,-0.68116 -1.04459,-0.98535 -0.23965,-0.20494 -0.28167,-0.25714 -0.28167,-0.34925 0,-0.11753 0.17633,-0.28541 0.40027,-0.38086 0.10721,-0.0457 0.13114,-0.0489 0.37497,-0.0487 0.22614,1.7e-4 0.28694,0.007 0.46637,0.0515 0.24008,0.0596 0.51217,0.19635 0.76836,0.38592 0.23245,0.17152 0.66836,0.62027 1.07389,1.10527 0.66915,0.7995 1.07148,1.17393 1.62152,1.50878 0.87536,0.53305 1.76002,0.65625 2.63743,0.36736 0.33133,-0.10895 0.65394,-0.26487 0.95753,-0.46243 0.10173,-0.0667 0.10501,-0.0708 0.16296,-0.23826 0.13381,-0.38605 0.33486,-0.70067 0.64771,-1.01476 0.11838,-0.11922 0.27241,-0.25892 0.3412,-0.31044 0.16048,-0.11964 0.51426,-0.29219 1.05825,-0.51619 l 0.43047,-0.17703 -0.28682,-0.0312 c -1.27574,-0.1383 -2.17427,-0.29554 -3.06639,-0.53671 -1.6613,-0.44911 -3.03189,-1.18516 -3.98697,-2.14137 -0.30181,-0.30207 -0.48453,-0.52299 -0.701,-0.84676 -0.85334,-1.27819 -1.28263,-2.93464 -1.28273,-4.951 0,-0.28624 0.0108,-0.63751 0.0187,-0.78064 0.0711,-0.95985 0.28617,-1.96344 0.55628,-2.59319 0.29161,-0.67909 0.74616,-1.3964 1.25415,-1.9782 0.15042,-0.172 0.14563,-0.13424 0.058,-0.45345 -0.35782,-1.31836 -0.26484,-2.82918 0.27764,-4.50715 l 0.0623,-0.19867 0.1559,0.0119 c 1.25671,0.0967 2.4776,0.45489 3.60533,1.05752 0.34503,0.18425 0.87655,0.52387 1.17793,0.75267 l 0.14188,0.1071 0.298,-0.0735 c 0.76004,-0.18693 1.73998,-0.35402 2.48802,-0.42412 0.56204,-0.0526 0.74252,-0.064 1.29519,-0.082 1.52743,-0.049 3.26236,0.10851 4.74244,0.43177 0.13269,0.0291 0.25511,0.0525 0.27186,0.0525 0.0162,0 0.10502,-0.0514 0.19875,-0.11456 0.53866,-0.36744 1.72708,-1.01241 2.21802,-1.20349 0.50824,-0.19771 1.02809,-0.33056 1.619,-0.41343 0.33083,-0.0464 0.85972,-0.0987 0.99854,-0.0988 l 0.0733,0 0.0831,0.2647 c 0.24523,0.78119 0.39555,1.69723 0.43558,2.65152 0.0187,0.45356 -0.0317,1.0964 -0.12742,1.58683 l -0.0427,0.22291 0.0973,0.10917 c 0.65749,0.72752 1.14369,1.54529 1.48359,2.49586 0.3497,0.97678 0.5414,2.26689 0.5102,3.42766 -0.054,1.98058 -0.4874,3.58604 -1.2869,4.76467 -0.58349,0.86044 -1.40479,1.57901 -2.5651,2.24407 -0.74552,0.42732 -1.48754,0.70414 -2.47641,0.92365 -0.51044,0.11318 -1.42332,0.24129 -2.14364,0.30065 l -0.2678,0.0221 0.30387,0.1679 c 0.96802,0.53517 1.54595,1.05527 1.81844,1.63702 0.1573,0.335 0.27349,0.72871 0.35158,1.18911 l 0.0437,0.26601 0,1.26823 c 0,0.98739 0.0108,1.59614 0.0471,2.74877 l 0.047,1.48055 0.093,0.14359 c 0.1537,0.23368 0.3389,0.44464 0.55318,0.62947 0.19691,0.16942 0.44348,0.34719 0.56962,0.4107 0.16419,0.0826 0.23313,0.21015 0.19557,0.36037 -0.0285,0.11406 -0.11222,0.19062 -0.26275,0.24153 -0.0995,0.0339 -0.1724,0.0423 -0.41753,0.0494 -0.72155,0.021 -1.36893,-0.17227 -1.89314,-0.56545 -0.18073,-0.13553 -0.44107,-0.39172 -0.51426,-0.50621 -0.0667,-0.10348 -0.15215,-0.32631 -0.19976,-0.52005 -0.0361,-0.15115 -0.0372,-0.19433 -0.0481,-2.59437 -0.0119,-2.7337 -0.0108,-2.54013 -0.14473,-2.83817 -0.0755,-0.15903 -0.16332,-0.25784 -0.35663,-0.40441 -0.12861,-0.0972 -0.40614,-0.24166 -0.49915,-0.25924 l -0.0569,-0.011 0,2.83324 c 0,3.32877 0.0108,3.57411 0.13445,4.09512 0.0569,0.23904 0.13608,0.4044 0.28496,0.6032 0.13914,0.18606 0.28188,0.46051 0.33461,0.64435 0.0209,0.0709 0.0449,0.14374 0.0547,0.16226 0.022,0.0414 -0.0108,0.0697 -0.0897,0.0985 -0.13618,0.0453 -0.35518,0.0181 -0.71945,-0.0886 -0.10286,-0.0307 -0.24528,-0.0718 -0.31418,-0.0915 -0.49433,-0.14238 -0.95302,-0.47719 -1.21577,-0.88808 -0.16401,-0.2565 -0.36518,-0.77842 -0.453,-1.17674 -0.11092,-0.50231 -0.10501,-0.32597 -0.11204,-3.5269 l -0.0108,-2.92968 -0.56457,0 -0.56478,0 0,2.71432 c 0,2.70018 -0.0108,3.07636 -0.0613,3.45116 -0.0613,0.41456 -0.23497,0.98144 -0.40377,1.31799 -0.13838,0.27625 -0.36733,0.55204 -0.61884,0.74453 -0.33504,0.25692 -0.73084,0.41232 -1.25624,0.4933 -0.28769,0.0443 -0.38942,0.0439 -0.49325,-0.002 z"
           id="path3279"
           inkscape:connector-curvature="0" />
        <path
           style="fill:#000000"
           d="m 1635.3892,320.11137 c -1.8673,-0.17909 -4.4688,-0.8574 -5.7825,-1.50774 -1.2329,-0.61034 -2.4501,-1.68236 -2.8947,-2.54974 -0.5086,-0.99185 -0.5008,-0.87965 -0.5008,-7.25758 0,-6.54805 -0.011,-6.41505 0.6118,-7.58792 0.6487,-1.22199 1.8593,-2.23604 3.199,-2.67965 l 0.7175,-0.23753 6.5011,-0.0523 c 5.9557,-0.0479 6.5424,-0.0657 6.9943,-0.21324 2.3724,-0.77403 4.1611,-2.64039 4.7531,-4.95953 0.16,-0.62697 0.1788,-0.99648 0.1788,-3.52023 l 0,-2.81975 2.309,0.001 c 2.532,10e-4 3.1495,0.0776 3.9797,0.48918 1.6801,0.83302 2.6975,2.55283 3.4288,5.79701 0.4912,2.17848 0.5443,2.66133 0.5445,4.95933 0,2.51754 -0.091,3.09 -0.8519,5.34943 -1.1595,3.44302 -2.4017,4.81925 -4.6053,5.10214 -0.3493,0.0449 -4.3172,0.0827 -8.8176,0.0842 l -8.1824,0.003 0,0.66419 0,0.6642 5.4311,0 5.4312,0 -0.031,2.59036 c -0.029,2.45596 -0.042,2.61673 -0.2362,3.09831 -0.7779,1.92194 -2.6233,3.19104 -5.8425,4.018 -1.9921,0.51174 -4.5288,0.73777 -6.3352,0.56452 z m 8.5382,-3.66295 c 1.6055,-0.73836 1.6017,-2.96798 -0.011,-3.69652 -1.3154,-0.59591 -2.8285,0.4003 -2.8227,1.85846 0,0.63561 0.232,1.13843 0.6946,1.52203 0.6736,0.55847 1.3798,0.66304 2.1344,0.31603 z m -23.7039,-8.03817 c -2.1255,-0.30095 -3.7889,-1.90073 -4.6368,-4.45929 -0.3284,-0.9912 -0.8241,-3.50884 -0.9503,-4.82649 -0.2706,-2.82661 0.4324,-7.1444 1.4557,-8.93909 1.0709,-1.87832 2.7526,-3.02965 4.9182,-3.36708 0.3649,-0.0568 3.4747,-0.0911 8.3169,-0.0915 l 7.7341,-7.2e-4 0,-0.66418 0,-0.66419 -5.4252,0 -5.4249,0 0,-2.67894 c 0,-2.9091 0.07,-3.51909 0.4919,-4.37012 0.9507,-1.91917 3.9705,-2.88713 9.415,-3.01797 2.8954,-0.0696 5.6665,0.16308 7.1736,0.60225 1.7644,0.51413 3.1941,1.60342 3.9377,2.99993 0.5978,1.1226 0.5907,1.03498 0.5907,7.45976 0,5.48194 -0.011,5.83289 -0.1771,6.47986 -0.4565,1.76275 -1.7759,3.15307 -3.6339,3.82885 -0.415,0.15098 -0.935,0.16694 -6.9943,0.21472 -7.1154,0.0561 -6.8612,0.0382 -8.0789,0.57001 -2.1614,0.94404 -3.7764,3.07615 -4.0676,5.37004 -0.051,0.40477 -0.093,1.84287 -0.093,3.19579 l 0,2.45984 -1.9952,-0.0109 c -1.0973,-0.007 -2.2483,-0.0468 -2.5577,-0.0907 z m 11.3126,-25.8661 c 0.4853,-0.14233 1.1466,-0.79539 1.2908,-1.2747 0.2289,-0.76159 0.086,-1.45702 -0.412,-2.00242 -1.0511,-1.15124 -2.8625,-0.79734 -3.419,0.66793 -0.1463,0.38522 -0.1093,1.12802 0.076,1.52188 0.4417,0.94007 1.4498,1.38489 2.4645,1.08731 z"
           id="path3292"
           inkscape:connector-curvature="0" />
        <g
           transform="translate(-7.265126,0)"
           id="g5995">
          <g
             id="g3699"
             transform="translate(0,7.3000982)"
             style="fill:#000000">
            <path
               inkscape:connector-curvature="0"
               id="path3663"
               d="m 1181.1693,261.12291 c -9.4162,-0.64486 -18.1802,-3.52512 -23.2833,-7.65195 -6.9334,-5.60704 -10.8931,-13.95569 -12.0042,-25.30974 -0.6475,-6.61708 0.8081,-15.38868 3.5695,-21.51053 1.036,-2.29672 3.1024,-5.67731 4.4311,-7.24925 1.2633,-1.49454 4.908,-4.67835 6.8656,-5.99736 0.6931,-0.467 2.3933,-1.38515 3.7782,-2.04032 8.2255,-3.89131 18.1406,-5.3061 27.0181,-3.85521 1.2375,0.20225 2.5031,0.36816 2.8125,0.36868 l 0.5625,9.5e-4 0,-17.125 0,-17.125 11.25,0 11.25,0 0,52.375 0,52.375 -0.7106,0 c -0.3909,0 -2.8377,0.33377 -5.4375,0.74171 -11.7916,1.85023 -22.21,2.54349 -30.1019,2.00302 z m 9.875,-17.86983 c 1.375,-0.20468 2.8265,-0.44173 3.2257,-0.52678 l 0.7256,-0.15462 -0.1778,-17.78425 c -0.098,-9.78134 -0.2369,-18.0264 -0.3091,-18.32235 -0.1756,-0.71906 -1.4786,-1.0301 -5.7133,-1.36378 -7.1432,-0.56287 -11.29,0.82093 -15.2701,5.09573 -2.0251,2.17497 -3.5326,4.97864 -4.3991,8.18115 -0.4902,1.81192 -0.5752,2.73274 -0.577,6.25 0,3.9608 0.03,4.22452 0.8008,6.625 1.0482,3.26408 2.2966,5.32102 4.4294,7.29831 2.1649,2.007 4.035,3.11387 6.6643,3.94446 3.7541,1.18593 6.4342,1.37734 10.6006,0.75713 l 0,0 z"
               style="fill:#000000;fill-opacity:1;fill-rule:evenodd;stroke:none" />
            <path
               inkscape:connector-curvature="0"
               id="path3665"
               d="m 1231.1693,164.95318 0,-11.5 11,0 11,0 0,11.5 0,11.5 -11,0 -11,0 0,-11.5 z"
               style="fill:#000000;fill-opacity:1;fill-rule:evenodd;stroke:none" />
            <path
               inkscape:connector-curvature="0"
               id="path3667"
               d="m 1228.2943,291.34351 c -2.0163,-0.49188 -18.6488,-8.58057 -18.538,-9.01533 0.035,-0.1375 0.7891,-0.71608 1.6758,-1.28574 7.0398,-4.52275 7.355,-4.75922 10.6161,-7.96426 3.2591,-3.20307 3.3289,-3.29512 4.8337,-6.375 1.7585,-3.59915 2.5213,-6.29299 3.3059,-11.67455 0.6874,-4.71584 0.9355,-16.57592 0.9624,-46.01295 l 0.019,-20.8125 11.0317,0 11.0318,0 -0.1682,21.4375 c -0.2567,32.70501 -0.5849,42.96681 -1.6628,51.98687 -0.5928,4.96103 -1,6.94248 -2.1058,10.24702 -1.5509,4.63466 -2.8861,7.01777 -5.4497,9.72656 -2.6701,2.82135 -6.4385,5.97989 -9.427,7.90147 -3.1191,2.00549 -4.1636,2.31943 -6.125,1.84091 l 0,0 z"
               style="fill:#000000;fill-opacity:1;fill-rule:evenodd;stroke:none" />
            <path
               inkscape:connector-curvature="0"
               id="path3669"
               d="m 1284.1693,261.44215 c -2.903,-0.26136 -6.946,-0.96657 -7.9681,-1.38985 -0.4636,-0.19201 -1.0427,-0.34912 -1.2868,-0.34912 -0.244,0 -1.5641,-0.56491 -2.9336,-1.25535 -1.9687,-0.99259 -2.8276,-1.60744 -4.1035,-2.9375 -2.9209,-3.04481 -4.022,-5.21134 -4.9408,-9.72142 -1.3271,-6.51482 -0.1504,-12.71886 3.6243,-19.10842 0.1466,-0.24815 1.3434,-1.3412 2.6597,-2.429 5.5994,-4.62771 13.4439,-7.11059 27.0068,-8.54804 3.6782,-0.38981 4.8967,-0.60756 5.2674,-0.9412 0.4425,-0.39822 0.4732,-0.71281 0.3721,-3.80907 -0.1339,-4.10179 -0.6076,-5.52479 -1.9835,-5.95773 -1.7317,-0.5449 -5.8093,-0.86262 -9.1892,-0.716 -6.4236,0.27867 -11.8339,1.56951 -19.7164,4.70422 -1.6867,0.67073 -3.121,1.21951 -3.1875,1.21951 -0.066,0 -0.1209,-3.80033 -0.1209,-8.44519 l 0,-8.44519 0.8125,-0.31856 c 7.1222,-2.79248 13.8448,-4.61247 20.8664,-5.64912 6.3491,-0.93737 15.0646,-0.7047 19.2909,0.51499 8.2984,2.39486 12.6125,7.14013 13.5204,14.8716 0.1741,1.4825 0.3331,12.30243 0.4318,29.38609 l 0.1562,27.03962 -1.3516,0.13906 c -0.7434,0.0765 -2.1391,0.19856 -3.1016,0.27127 -0.9625,0.0727 -5.2375,0.4673 -9.5,0.87685 -11.4589,1.10101 -19.7468,1.43674 -24.625,0.99755 l 0,0 z m 16.4471,-15.82367 c 0.8646,-0.18399 1.689,-0.45145 1.8319,-0.59435 0.5575,-0.55748 0.7093,-2.44666 0.715,-8.9003 0.01,-6.2889 -0.021,-6.69568 -0.4343,-6.56461 -0.2422,0.0769 -2.513,0.36902 -5.0464,0.64926 -10.3036,1.13976 -13.1428,2.40344 -14.9117,6.63703 -0.506,1.21113 -0.5246,3.80042 -0.034,4.73814 0.4656,0.88971 1.7267,2.09648 2.9323,2.8059 0.8244,0.48511 3.9707,1.41518 5.625,1.66275 1.3584,0.20331 7.7189,-0.0927 9.3221,-0.43382 l 0,0 z"
               style="fill:#000000;fill-opacity:1;fill-rule:evenodd;stroke:none" />
            <path
               inkscape:connector-curvature="0"
               id="path3671"
               d="m 1334.2401,226.27465 0,-34.01237 1.125,-0.42027 c 2.5954,-0.96959 16.4519,-3.55712 23.097,-4.31308 5.1071,-0.581 16.3195,-0.33147 20.278,0.45128 10.1583,2.00871 15.7352,5.56629 18.9004,12.05682 2.8765,5.89874 3.1544,9.66028 2.7613,37.375 l -0.3244,22.875 -10.9889,0 -10.9889,0 0.3288,-18.125 c 0.396,-21.83215 -0.028,-30.3135 -1.6596,-33.21707 -1.8293,-3.25472 -3.422,-3.90793 -9.5287,-3.90793 -2.8875,0 -6.6563,0.31199 -8.375,0.69332 l -3.125,0.69332 0,26.93168 0,26.93168 -10.75,0 -10.75,0 0,-34.01238 z"
               style="fill:#000000;fill-opacity:1;fill-rule:evenodd;stroke:none" />
            <path
               inkscape:connector-curvature="0"
               id="path3673"
               d="m 1425.9901,297.55428 c -4.5158,-0.62882 -6.1219,-0.9952 -12.375,-2.82306 l -3.375,-0.98654 0,-9.97883 c 0,-5.48835 0.1214,-9.97882 0.2699,-9.97882 0.1485,0 1.1447,0.44627 2.2138,0.9917 3.4285,1.74908 10.5309,3.51171 16.592,4.11772 12.5903,1.25882 20.3954,-1.41467 23.9477,-8.20285 0.9889,-1.88969 2.7593,-11.29049 2.2266,-11.82318 -0.1629,-0.16296 -2.8293,0.22325 -5.9252,0.85823 -20.1814,4.13922 -35.9408,-4.4812 -40.5512,-22.18152 -1.1796,-4.52896 -1.0526,-15.50929 0.2378,-20.55512 3.98,-15.56263 14.4244,-24.3203 34.0512,-28.55213 6.55,-1.41226 26.5133,-1.26895 36.9063,0.26496 4.2454,0.62658 7.8765,1.23666 8.0692,1.35573 0.4903,0.30304 -1.177,4.55132 -4.2097,10.72646 l -2.5784,5.25 -2.625,-0.17097 -2.625,-0.17096 -0.01,4.42096 c 0,2.43153 0.2557,12.29597 0.5765,21.92097 1.0763,32.29827 -0.7964,43.31772 -9.0268,53.11739 -5.7235,6.81471 -14.1012,10.88588 -25.5429,12.41257 -6.251,0.83407 -10.1911,0.83099 -16.25,-0.0127 z m 25.3811,-54.95842 c 1.8596,-0.35992 3.5471,-0.82054 3.75,-1.0236 0.2029,-0.20306 0.3689,-8.44449 0.3689,-18.31428 l 0,-17.94509 -2.1319,-0.32074 c -6.6474,-1.00007 -13.1531,1.21235 -17.3758,5.90905 -4.234,4.70917 -5.9833,9.69461 -5.646,16.09014 0.4481,8.49615 4.8343,14.1243 12.1537,15.59494 3.9233,0.7883 4.8525,0.78931 8.8811,0.01 l 0,-2e-5 z"
               style="fill:#000000;fill-opacity:1;fill-rule:evenodd;stroke:none" />
            <path
               inkscape:connector-curvature="0"
               id="path3675"
               d="m 1519.4901,261.73602 c -6.3233,-0.39132 -8.073,-0.84699 -13.255,-3.4519 -7.0239,-3.53077 -13.4357,-10.73533 -16.2805,-18.29326 -2.2881,-6.07885 -2.8606,-9.82996 -2.5832,-16.92505 0.5981,-15.29537 6.9298,-26.41853 18.0889,-31.77767 14.6991,-7.05921 33.8325,-5.33187 44.3718,4.00582 4.7348,4.195 7.0828,7.78074 9.2384,14.10827 l 1.9196,5.6348 -0.024,8.5 c -0.022,7.95052 -0.1149,8.77474 -1.4333,12.75 -5.3175,16.03374 -15.8829,24.81517 -30.7929,25.59359 -2.0625,0.10768 -6.225,0.0426 -9.25,-0.1446 l 0,0 z m 8.4993,-17.50098 c 7.7441,-1.94999 12.5386,-14.67863 10.0149,-26.58821 -1.3178,-6.21918 -4.8897,-10.9901 -9.1934,-12.27952 -3.3198,-0.99464 -7.0797,-0.72717 -9.9609,0.70859 -5.7478,2.86424 -8.6099,9.08426 -8.6099,18.71113 0,5.62008 0.7007,8.97611 2.644,12.66249 3.1346,5.94648 8.6313,8.41568 15.1053,6.78552 l 0,0 z"
               style="fill:#000000;fill-opacity:1;fill-rule:evenodd;stroke:none" />
            <path
               inkscape:connector-curvature="0"
               id="path3677"
               d="m 1160.5288,422.53703 c -0.492,-2.6125 -1.0073,-4.75 -1.145,-4.75 -0.1377,0 -2.2589,0.36746 -4.7138,0.81659 -2.4549,0.44912 -4.5696,0.7104 -4.6994,0.58062 -0.1298,-0.12978 -0.6046,-2.1285 -1.0551,-4.44159 -0.4505,-2.31309 -0.9556,-4.3546 -1.1223,-4.53667 -0.1667,-0.18208 -2.3805,0.0637 -4.9195,0.54612 -5.2809,1.00347 -4.6665,1.46153 -5.6541,-4.21507 -0.335,-1.925 -0.7486,-3.74605 -0.9193,-4.04678 -0.2192,-0.38629 -1.631,-0.29067 -4.8102,0.32579 -2.475,0.4799 -4.6364,0.72595 -4.8032,0.54677 -0.1667,-0.17918 -0.6717,-2.21831 -1.1223,-4.53141 -0.4505,-2.31309 -0.934,-4.32051 -1.0744,-4.46094 -0.2217,-0.22164 -3.0741,0.20635 -8.1766,1.22685 l -1.4378,0.28758 -0.8641,-4.79893 c -0.5047,-2.80316 -1.1048,-4.79909 -1.4428,-4.79932 -0.3184,-2.1e-4 -2.4407,0.36919 -4.7163,0.82089 -2.2756,0.45171 -4.2517,0.70704 -4.3913,0.5674 -0.1396,-0.13964 -0.6268,-2.25279 -1.0825,-4.69589 -0.4558,-2.44311 -0.8768,-4.51409 -0.9356,-4.60219 -0.059,-0.0881 -2.0295,0.22165 -4.3793,0.68833 -2.3499,0.46668 -4.5912,0.72625 -4.9806,0.57681 -0.4469,-0.17147 -0.9357,-1.73512 -1.3252,-4.23902 -0.3394,-2.18203 -0.7636,-4.20217 -0.9426,-4.48921 -0.2207,-0.35395 -1.8274,-0.23926 -4.9927,0.35639 -3.3016,0.62128 -4.7211,0.71567 -4.8513,0.32258 -0.2716,-0.8204 -5.2314,-27.04028 -5.2314,-27.65591 0,-0.28916 2.0812,-0.92312 4.625,-1.40882 2.5437,-0.4857 4.6775,-0.92241 4.7417,-0.97047 0.064,-0.0481 -0.2938,-2.25604 -0.7956,-4.90664 l -0.9124,-4.81926 1.2956,-0.25342 c 0.7126,-0.13938 2.7582,-0.51731 4.5457,-0.83985 1.7875,-0.32254 3.3886,-0.72478 3.558,-0.89388 0.1693,-0.1691 -0.087,-2.33245 -0.5701,-4.80745 -0.483,-2.475 -0.7883,-4.59582 -0.6784,-4.71294 0.1098,-0.11711 8.6829,-1.85306 19.0513,-3.85766 13.3231,-2.57586 18.9534,-3.48002 19.1987,-3.08307 0.1909,0.30891 0.6376,2.35023 0.9926,4.53626 0.355,2.18604 0.9202,4.08004 1.256,4.20889 0.3358,0.12885 2.5668,-0.1323 4.9578,-0.58033 2.391,-0.44804 4.402,-0.74633 4.4688,-0.66288 0.067,0.0835 0.481,2.1476 0.9204,4.587 0.4393,2.4394 0.9136,4.55012 1.054,4.69049 0.2331,0.23308 9.1278,-1.28914 9.8531,-1.68623 0.1717,-0.094 -0.1125,-2.24129 -0.6315,-4.77173 -0.7021,-3.42317 -0.795,-4.69267 -0.3629,-4.95974 0.3195,-0.19741 2.3515,-0.63438 4.5156,-0.97105 2.1642,-0.33666 4.0677,-0.82698 4.23,-1.0896 0.1623,-0.26262 -0.096,-2.4925 -0.5747,-4.95529 -0.4783,-2.46279 -0.784,-4.54434 -0.6792,-4.62567 0.1048,-0.0813 8.178,-1.6662 17.9405,-3.52194 9.7625,-1.85573 18.341,-3.48959 19.0633,-3.63078 1.2982,-0.25377 1.3237,-0.20156 2.2167,4.53977 0.4968,2.63807 1.1434,4.79667 1.4367,4.79689 0.2933,2.1e-4 2.4109,-0.37232 4.7057,-0.82784 3.1588,-0.62702 4.2609,-0.68497 4.5368,-0.23853 0.2004,0.32433 0.6565,2.38799 1.0134,4.58591 0.357,2.19792 0.814,4.09821 1.0157,4.22287 0.2017,0.12466 2.3124,-0.14843 4.6904,-0.60687 2.7051,-0.52148 4.4863,-0.65615 4.7581,-0.35972 0.4847,0.52866 5.7478,27.70581 5.4275,28.02611 -0.1117,0.1117 -2.0956,0.57171 -4.4087,1.02225 -2.3131,0.45053 -4.3776,0.97002 -4.5878,1.15443 -0.2101,0.1844 -0.028,2.20392 0.4056,4.48783 0.4333,2.2839 0.6802,4.43277 0.5488,4.77526 -0.1319,0.34364 -2.0169,0.89929 -4.2063,1.23987 -2.182,0.33944 -4.2111,0.76783 -4.509,0.95198 -0.3801,0.23486 -0.2684,1.75007 0.3741,5.07544 0.5037,2.60734 0.8828,4.7563 0.8424,4.77548 -0.04,0.0192 -2.2376,0.43116 -4.8826,0.91555 l -4.8092,0.88069 0.6775,3.58445 c 0.3726,1.97145 0.8046,4.17454 0.9599,4.89577 0.2802,1.30063 0.2435,1.31833 -4.4933,2.17122 -5.4621,0.98348 -5.2083,0.56885 -3.9811,6.50272 0.437,2.11322 0.6983,3.93851 0.5806,4.05619 -0.1177,0.11768 -2.1065,0.58259 -4.4196,1.03312 -2.3131,0.45053 -4.3943,0.98674 -4.6249,1.19157 -0.2306,0.20484 -0.044,2.21325 0.4151,4.46315 0.4588,2.24989 0.7225,4.38204 0.5859,4.73811 -0.1434,0.37351 -1.9269,0.90849 -4.2158,1.26456 -2.182,0.33944 -4.231,0.78014 -4.5533,0.97934 -0.4425,0.2735 -0.3995,1.24865 0.1757,3.98312 1.2776,6.07362 1.4764,5.73757 -4.0043,6.76983 -3.9391,0.74192 -4.7257,1.03974 -4.5344,1.7167 0.1273,0.45047 0.4809,2.16905 0.7856,3.81905 0.3048,1.65 0.6563,3.48315 0.7811,4.07367 0.2092,0.98964 -0.1152,1.13647 -4.1447,1.87602 -2.4044,0.44129 -4.4991,0.80188 -4.6549,0.80132 -0.1558,-5e-4 -0.6859,-2.13851 -1.178,-4.75101 l 0,0 z"
               style="fill:#000000;fill-opacity:1;fill-rule:evenodd;stroke:none" />
            <path
               inkscape:connector-curvature="0"
               id="path3679"
               d="m 1262.9047,351.04558 -18.3089,-6.659 0,-2.26216 0,-2.26217 3.1875,-1.15376 c 1.7531,-0.63457 9.8813,-3.57471 18.0625,-6.53364 8.1813,-2.95894 15.0761,-5.45731 15.3219,-5.55194 0.4132,-0.15906 0.4415,0.0108 0.375,2.24954 l -0.072,2.4216 -9.625,3.44307 c -15.2655,5.46079 -20.2824,7.34355 -20.0715,7.53243 0.1081,0.0968 6.2715,2.34393 13.6965,4.99363 7.425,2.6497 14.0906,5.03514 14.8125,5.30098 l 1.3125,0.48335 0,2.35703 c 0,1.29637 -0.084,2.34422 -0.1875,2.32854 -0.1031,-0.0157 -8.4265,-3.02505 -18.4964,-6.6875 z"
               style="fill:#000000;fill-opacity:1;fill-rule:evenodd;stroke:none" />
            <path
               inkscape:connector-curvature="0"
               id="path3681"
               d="m 1298.7136,415.77626 c -4.6312,-1.00624 -8.0691,-3.22062 -9.7258,-6.26454 -0.539,-0.99037 -0.6603,-1.50717 -0.5999,-2.55591 0.057,-0.99529 0.1779,-1.33396 0.4964,-1.39448 0.6624,-0.12585 4.1322,1.35316 6.3562,2.70932 4.1459,2.52814 4.4549,2.61875 8.8481,2.59482 3.651,-0.0199 3.9999,-0.0651 6.0349,-0.78249 4.0962,-1.444 8.0052,-4.56654 10.0485,-8.02681 4.067,-6.88741 5.682,-14.64801 5.3158,-25.54459 -0.2297,-6.83559 -1.9103,-33.45077 -2.3048,-36.5 l -0.1455,-1.125 -0.7148,1.375 c -0.3932,0.75625 -1.0477,2.21875 -1.4545,3.25 -1.0183,2.58125 -4.1907,9.17827 -5.6505,11.75 -2.3347,4.11315 -5.877,8.43955 -8.6291,10.53909 -2.1464,1.6375 -4.8122,2.90386 -7.0909,3.36857 -3.214,0.65543 -4.7409,-0.14597 -5.8358,-3.06284 -2.1721,-5.78703 -2.694,-20.32803 -1.0712,-29.84482 1.2066,-7.07617 3.724,-14.16529 6.4621,-18.19723 2.8961,-4.26476 5.5384,-6.54222 9.6758,-8.33993 l 2.485,-1.07977 4.375,0.005 4.375,0.005 3.5441,1.20136 c 1.9493,0.66075 3.71,1.38813 3.9127,1.61639 1.0885,1.22576 1.3872,5.89085 0.8196,12.80123 -0.6983,8.50103 -0.5728,11.78476 1.1271,29.48879 1.5007,15.62942 1.6427,24.90725 0.4918,32.125 -1.1762,7.37625 -3.6692,14.55934 -6.5403,18.84451 -1.655,2.47021 -5.3598,6.27613 -7.6822,7.8918 -1.9145,1.33199 -4.0505,2.2141 -6.6729,2.75577 -2.2615,0.46713 -8.7682,0.71953 -10.2499,0.3976 l 0,0 z m 5.25,-54.39295 c 1.4061,-0.66322 4.0703,-3.39078 5.6157,-5.74928 1.9284,-2.94307 4.2871,-8.01825 5.8825,-12.65716 2.6781,-7.78718 4.9022,-17.25721 5.34,-22.73739 0.2144,-2.68277 0.1932,-2.71146 -2.4644,-3.33781 -4.646,-1.09498 -8.7194,0.13998 -12.3628,3.74815 -5.3937,5.3414 -8.5661,15.49715 -9.0549,28.98676 -0.1837,5.0691 0.1823,8.79427 1.0087,10.26758 0.8579,1.52932 2.0049,2.17214 3.6602,2.05125 0.7563,-0.0552 1.825,-0.31267 2.375,-0.5721 l 0,0 z"
               style="fill:#000000;fill-opacity:1;fill-rule:evenodd;stroke:none" />
            <path
               inkscape:connector-curvature="0"
               id="path3683"
               d="m 1338.8607,297.91518 c -1.0459,-0.37809 -2.6933,-1.96571 -3.121,-3.00758 -0.2811,-0.68499 -0.2502,-0.89608 0.2774,-1.89184 0.7881,-1.48734 1.4447,-2.16214 2.9465,-3.02845 1.6755,-0.96646 3.5169,-1.01417 4.3634,-0.11306 0.531,0.56517 0.5658,0.77355 0.4485,2.6875 -0.1471,2.40158 -0.6997,3.72025 -2.059,4.91375 -0.9588,0.84185 -1.5091,0.92657 -2.8558,0.43968 l 0,0 z"
               style="fill:#000000;fill-opacity:1;fill-rule:evenodd;stroke:none" />
            <path
               inkscape:connector-curvature="0"
               id="path3685"
               d="m 1341.9636,367.16723 c -0.6875,-0.32421 -1.5064,-0.86824 -1.8198,-1.20895 l -0.5698,-0.61947 -0.1587,-26.65795 -0.1586,-26.65794 0.9048,-0.85337 c 0.8495,-0.80115 2.7515,-1.65797 3.6805,-1.65797 0.3807,0 0.4279,1.53839 0.5803,18.9375 0.091,10.41563 0.166,23.52188 0.1661,29.125 l 2e-4,10.1875 -0.6875,-0.002 c -0.3781,-0.001 -1.25,-0.2677 -1.9375,-0.59191 l 0,6e-5 z"
               style="fill:#000000;fill-opacity:1;fill-rule:evenodd;stroke:none" />
            <path
               inkscape:connector-curvature="0"
               id="path3687"
               d="m 1355.4986,366.69908 c -0.6489,-7.23762 -1.2115,-14.41975 -1.6499,-21.0625 -1.1933,-18.08402 -1.5328,-21.91481 -2.1684,-24.46481 -1.7211,-6.90602 -2.0486,-10.75421 -1.0942,-12.8571 0.8674,-1.9111 2.5987,-2.21051 5.4146,-0.93641 1.0075,0.45587 1.3203,0.7372 1.4405,1.29533 0.2039,0.9472 1.2775,8.01784 1.9399,12.77549 0.2919,2.09688 0.607,3.8125 0.7002,3.8125 0.093,0 0.7678,-1.08312 1.4991,-2.40693 1.7354,-3.14168 3.6968,-5.70774 6.4231,-8.40319 2.694,-2.66347 4.5132,-4.04526 7.4601,-5.66629 4.4657,-2.45643 9.7272,-4.02359 13.5089,-4.02359 1.418,0 1.6161,0.0579 1.6161,0.47239 0,0.47354 -0.677,4.31742 -0.8867,5.03454 -0.068,0.23324 -0.8141,0.56286 -1.9159,0.84669 -2.1238,0.54711 -5.9035,2.03178 -6.4671,2.54025 -0.217,0.19587 -0.4756,0.35613 -0.5745,0.35613 -0.3468,0 -2.911,1.7502 -4.758,3.24769 -2.5334,2.05397 -5.031,4.81668 -7.0163,7.76101 -1.6942,2.5125 -4.3731,7.56074 -4.3785,8.25094 0,0.21155 -0.2235,0.81722 -0.4931,1.34592 -0.6357,1.24688 -1.88,6.21171 -2.5112,10.01944 -0.7656,4.61916 -0.7071,12.89212 0.1289,18.20825 0.3423,2.17703 0.6224,3.99643 0.6224,4.04311 0,0.19241 -5.8322,1.62364 -6.6162,1.62364 -0.034,0 -0.1344,-0.81562 -0.2238,-1.8125 z"
               style="fill:#000000;fill-opacity:1;fill-rule:evenodd;stroke:none" />
            <path
               inkscape:connector-curvature="0"
               id="path3689"
               d="m 1401.0587,366.40272 c -0.4928,-0.33487 -1.0236,-0.9255 -1.1795,-1.3125 -0.177,-0.43944 -0.6134,-8.91717 -1.1623,-22.57864 -0.4833,-12.03125 -0.989,-23.84375 -1.1238,-26.25 -0.4954,-8.84586 -1.7511,-38.22157 -1.7535,-41.02116 l -10e-4,-1.14615 2.3125,-0.40021 c 1.2719,-0.22012 2.5605,-0.47551 2.8637,-0.56754 0.443,-0.13449 0.5756,-0.0518 0.6758,0.42137 0.1781,0.84137 1.0929,22.92696 1.3965,33.71369 0.1412,5.01875 0.3152,9.74375 0.3867,10.5 0.072,0.75625 0.2954,8.4625 0.4976,17.125 0.2021,8.6625 0.4409,18.67743 0.5306,22.25539 0.1799,7.17518 0.094,7.82332 -1.2021,9.11985 -0.9072,0.90721 -1.096,0.91908 -2.2412,0.1409 l 0,0 z"
               style="fill:#000000;fill-opacity:1;fill-rule:evenodd;stroke:none" />
            <path
               inkscape:connector-curvature="0"
               id="path3691"
               d="m 1447.9636,366.84214 c -4.7917,-0.60389 -11.7658,-2.54621 -16.2403,-4.52302 -6.2759,-2.77262 -12.2266,-6.45331 -16.3558,-10.1165 -2.2199,-1.96935 -5.0234,-5.14725 -5.0266,-5.69791 -0.01,-1.16242 1.5832,-2.21417 3.4716,-2.29634 1.0675,-0.0464 1.3789,0.0544 2.1216,0.68689 9.2067,7.84116 13.7824,10.82905 20.6545,13.48704 4.5347,1.75391 6.5053,2.12189 13.0458,2.43599 5.5326,0.26571 5.9864,0.2547 6.9237,-0.16796 2.0303,-0.91554 2.6498,-2.25377 2.1643,-4.67528 -0.3787,-1.88911 -1.2698,-3.15831 -3.5056,-4.99333 -2.4326,-1.99662 -3.8412,-2.81603 -12.4445,-7.23943 -10.0629,-5.17383 -12.6937,-6.98562 -16.1416,-11.11632 -2.1406,-2.56454 -2.772,-3.68139 -3.3156,-5.86439 -0.4632,-1.86033 -0.4358,-7.55731 0.042,-8.80213 0.804,-2.09311 3.5667,-5.05003 5.9188,-6.33489 0.5155,-0.28161 1.2186,-0.6955 1.5623,-0.91974 0.3438,-0.22424 1.8397,-0.86197 3.3243,-1.41717 3.2454,-1.21367 5.4413,-1.49575 9.4876,-1.21874 3.9485,0.2703 9.0925,1.78298 12.5198,3.68164 l 2.409,1.33453 -0.5394,0.95975 c -0.7651,1.36138 -1.9277,2.71675 -2.3302,2.71675 -0.1884,0 -0.7146,-0.21708 -1.1693,-0.4824 -0.4547,-0.26533 -1.7268,-0.85267 -2.8268,-1.30521 l -2,-0.82279 -5.25,0.006 -5.25,0.006 -2.2115,0.79382 c -3.1721,1.1386 -5.4562,2.63094 -6.4244,4.19746 -0.9819,1.58889 -0.4133,6.82052 1.0306,9.48242 1.0095,1.86087 3.8452,4.67723 6.4201,6.37617 2.1968,1.44954 6.9861,3.82059 10.6852,5.28998 9.446,3.75223 14.6588,7.49462 16.9322,12.15609 l 1.0621,2.17776 0,3.125 c 0,2.73435 -0.069,3.28126 -0.5716,4.375 -1.1745,2.55558 -3.3502,4.12859 -6.3936,4.62258 -1.4301,0.23211 -10.1134,0.29327 -11.782,0.083 l 0,0 z"
               style="fill:#000000;fill-opacity:1;fill-rule:evenodd;stroke:none" />
            <path
               inkscape:connector-curvature="0"
               id="path3693"
               d="m 1478.731,366.31918 c 0,-0.0444 1.9112,-6.25065 4.2472,-13.79167 2.3359,-7.54101 5.7288,-18.52031 7.5396,-24.39844 l 3.2925,-10.6875 2.315,-0.0339 2.315,-0.0339 -1.4357,4.65893 c -6.6745,21.65947 -13.623,44.11159 -13.6627,44.14682 -0.093,0.0828 -4.6109,0.21966 -4.6109,0.13972 z"
               style="fill:#000000;fill-opacity:1;fill-rule:evenodd;stroke:none" />
            <path
               inkscape:connector-curvature="0"
               id="path3695"
               d="m 1505.231,356.91328 c 0,-0.54723 0.036,-1.67168 0.081,-2.49878 l 0.081,-1.50382 8.8879,-3.14619 c 16.2979,-5.76922 20.8879,-7.44312 20.8879,-7.61747 0,-0.1711 -4.8199,-1.93459 -21.375,-7.82066 l -8.5,-3.02212 -0.034,-2.00133 c -0.019,-1.10073 0.01,-2.19929 0.062,-2.44125 l 0.097,-0.43992 7.75,2.79172 c 4.2625,1.53545 12.5662,4.5397 18.4525,6.6761 l 10.7026,3.88438 0.078,0.64632 c 0.043,0.35547 0.077,1.40569 0.077,2.33381 l -7e-4,1.6875 -7.9044,2.86325 c -4.3476,1.57478 -12.6296,4.5751 -18.4046,6.66739 -5.775,2.09228 -10.5984,3.83382 -10.7187,3.87008 -0.1956,0.0589 -0.2188,-0.0396 -0.2188,-0.92901 z"
               style="fill:#000000;fill-opacity:1;fill-rule:evenodd;stroke:none" />
          </g>
          <path
             style="fill:#000000;fill-opacity:1;fill-rule:evenodd;stroke:none"
             d="m 1295.0058,589.97038 c -68.6356,-7.30344 -127.3268,-33.84421 -174.8637,-79.0752 -27.7744,-26.42713 -47.5074,-52.92164 -63.9695,-85.88826 -20.3226,-40.6978 -29.1141,-79.89375 -29.1141,-129.80247 0,-48.06096 9.1797,-86.04596 31.3775,-129.83902 15.5817,-30.74031 32.0307,-53.04018 57.2183,-77.57073 46.7801,-45.559746 106.1174,-74.080889 170.5987,-82.0002304 18.2437,-2.2406069 65.2539,-1.002958 82.3381,2.16773 30.9038,5.7354924 57.6779,14.8443144 84.8528,28.8677944 30.5589,15.769705 53.6146,33.149025 78.669,59.300273 39.0106,40.718513 63.4768,87.427973 75.7625,144.640973 3.4144,15.90079 3.7716,20.43588 3.8316,48.64818 0.065,30.65874 -1.2494,46.57963 -5.7464,69.59779 -2.2455,11.49367 -2.3958,11.75965 -14.3787,25.45585 -27.0156,30.87801 -61.7636,67.21564 -107.5258,112.44464 -36.1589,35.73769 -48.8791,47.49088 -50.7469,46.8892 -1.6197,-0.52176 -1.9042,-0.37449 -0.8124,0.42053 1.1536,0.83993 -4.2624,6.53422 -17.2769,18.16462 -20.6119,18.41995 -21.6888,18.98449 -47.3359,24.81457 -13.9634,3.17418 -54.5549,4.71352 -72.8782,2.76376 l 0,0 z m 72.4246,-13.22537 c 11.7695,-2.23258 31.209,-8.3807 32.9681,-10.42682 0.5329,-0.61992 2.4072,-5.2637 4.1651,-10.31951 12.0067,-34.5322 31.9678,-67.43181 60.0543,-98.98095 28.7257,-32.26709 74.9433,-63.38534 114.691,-77.22122 6.2226,-2.16603 11.7596,-4.59995 12.3045,-5.40872 0.5449,-0.80879 1.9596,-5.93862 3.1436,-11.39964 7.0223,-32.38742 9.3795,-90.74701 4.628,-114.58092 -5.7899,-29.04349 -12.0782,-48.03225 -24.3528,-73.53911 C 1551.4545,125.8732 1512.7161,83.369672 1465.4356,54.619453 1360.3843,-9.2599164 1221.127,3.9409769 1131.2492,86.298667 c -47.8686,43.863483 -76.1898,93.331973 -89.57,156.451703 -3.6697,17.31142 -3.8976,20.49022 -3.9028,54.44723 0,31.64749 0.3733,37.88036 3.0898,50.91168 5.9909,28.73984 12.3037,47.78837 23.6872,71.47502 41.2292,85.7891 120.9553,144.16517 216.3565,158.41793 17.0958,2.55408 70.5209,1.77776 86.5205,-1.25722 l 0,0 z"
             id="path3697"
             inkscape:connector-curvature="0" />
        </g>
        <g
           transform="matrix(0.97053378,-0.09771963,0.08850921,1.0836239,4.2966653,46.851915)"
           id="text5985"
           style="font-size:51.60122299px;font-style:normal;font-variant:normal;font-weight:200;font-stretch:normal;text-align:start;line-height:125%;letter-spacing:0px;word-spacing:0px;writing-mode:lr-tb;text-anchor:start;fill:#000000;fill-opacity:1;stroke:#000000;stroke-width:1.2900306;font-family:SkarpaLT;-inkscape-font-specification:SkarpaLT Ultra-Light">
          <path
             inkscape:connector-curvature="0"
             id="path6074"
             style="stroke-width:1.2900306"
             d="m 1118.9017,561.56753 c 0.055,0.0389 0.1,0.0915 0.1352,0.15776 l 0.082,0.0583 0.012,0.0703 0.082,0.0583 c -0.019,0.0274 -0.015,0.0508 0.012,0.0703 l 0.041,0.0292 c 0.016,0.0937 0.022,0.20108 0.019,0.32213 l -0.029,0.0411 c -0.031,0.10166 -0.062,0.20329 -0.093,0.30489 l -24.7047,34.80545 c -0.097,0.13696 -0.263,0.22533 -0.4972,0.26509 -0.1874,0.0318 -0.3495,-9.2e-4 -0.4865,-0.0981 -0.1644,-0.11668 -0.2625,-0.26869 -0.2942,-0.45604 -0.012,-0.21477 0.03,-0.39063 0.1273,-0.5276 l 23.9755,-33.77813 -12.5272,-0.98195 c -0.1211,-0.004 -0.2365,-0.0442 -0.346,-0.12199 -0.1644,-0.11664 -0.2762,-0.27837 -0.3354,-0.48521 -0.032,-0.18733 0.011,-0.36319 0.1273,-0.52759 0.1556,-0.21913 0.3681,-0.31545 0.6377,-0.28894 l 13.5175,1.06687 c 0.1599,-0.0512 0.3044,-0.0516 0.4335,-10e-4 l 0.082,0.0583 0.029,-0.0411" />
          <path
             inkscape:connector-curvature="0"
             id="path6076"
             style="stroke-width:1.2900306"
             d="m 1138.5554,574.03253 -0.026,0.0429 0.1287,0.0792 -0.026,0.0429 0.043,0.0264 c -0.018,0.0286 -0.012,0.0517 0.017,0.0693 l 0.043,0.0264 c 0.022,0.0925 0.021,0.1904 0,0.29381 0.011,0.0462 0.01,0.0837 -0.01,0.11225 l -15.9015,25.83423 3.4331,2.11316 c 0.1716,0.10565 0.2794,0.25092 0.3235,0.4358 0.044,0.18487 0.013,0.36314 -0.092,0.5348 -0.1057,0.17165 -0.251,0.27948 -0.4358,0.32348 -0.1849,0.044 -0.3632,0.0132 -0.5348,-0.0925 l -3.4331,-2.11315 -5.864,9.52691 c -0.088,0.14303 -0.2246,0.23655 -0.4094,0.28057 -0.2025,0.0726 -0.3896,0.0561 -0.5612,-0.0496 -0.1717,-0.10567 -0.2707,-0.26524 -0.2971,-0.47871 -0.044,-0.18489 -0.022,-0.34885 0.066,-0.49189 l 5.864,-9.52691 -17.7664,-10.93558 c -0.029,-0.0176 -0.049,-0.0495 -0.059,-0.0957 l -0.043,-0.0264 0.026,-0.0429 c -0.029,-0.0176 -0.034,-0.0407 -0.016,-0.0693 l -0.086,-0.0528 0.026,-0.0429 c -0.011,-0.0462 -0.022,-0.0924 -0.033,-0.13866 l 0.026,-0.0429 c 0.018,-0.0286 0.021,-0.066 0.01,-0.11224 l -0.043,-0.0264 0.2113,-0.34331 0.069,-0.0165 0.053,-0.0858 c 0.046,-0.011 0.092,-0.022 0.1387,-0.033 l 0.026,-0.0429 c 0.046,-0.011 0.084,-0.008 0.1122,0.01 l 0.069,-0.0165 c 0.018,-0.0286 0.041,-0.0341 0.069,-0.0165 l 33.8231,-14.86233 c 0.064,-0.0396 0.1419,-0.0704 0.2344,-0.0924 l 0.026,-0.0429 c 0.1562,-0.0616 0.3092,-0.0858 0.4589,-0.0726 l 0.3433,0.21131 m -33.3313,15.6976 16.3932,10.09032 14.5807,-23.68854 -30.9739,13.59822" />
          <path
             inkscape:connector-curvature="0"
             id="path6078"
             style="stroke-width:1.2900306"
             d="m 1158.0345,611.67548 c -1.2612,-0.63358 -2.6196,-0.90438 -4.0752,-0.8124 -1.4413,0.0616 -2.7993,0.49712 -4.0739,1.30646 -2.1213,1.2637 -3.516,3.11257 -4.184,5.54663 -0.6232,2.41806 -0.3558,4.68136 0.8025,6.7899 0.875,1.52867 2.0877,2.6968 3.6382,3.50438 1.5649,0.77721 3.2229,1.00388 4.974,0.68001 l 6.4846,-13.71189 c -0.859,-1.48393 -2.0477,-2.58496 -3.5662,-3.30309 m 12.7568,-14.48042 c 0.1822,0.0862 0.3053,0.21876 0.3694,0.39766 0.064,0.17895 0.046,0.37471 -0.055,0.58727 l -15.8776,33.57364 c -0.086,0.18221 -0.2188,0.30533 -0.3977,0.36937 -0.1933,0.0944 -0.381,0.0985 -0.5632,0.0123 -0.1823,-0.0862 -0.2982,-0.23392 -0.3479,-0.44321 -0.064,-0.17893 -0.053,-0.35951 0.033,-0.54172 l 0.4093,-0.86553 c -1.8312,0.10021 -3.5756,-0.29739 -5.2332,-1.19278 -1.6576,-0.89541 -2.9479,-2.17455 -3.871,-3.83741 -1.3613,-2.46476 -1.6594,-5.09556 -0.8941,-7.89242 0.1801,-0.6952 0.4066,-1.33132 0.6795,-1.90835 0.8904,-1.88291 2.2773,-3.40101 4.1605,-4.5543 2.4471,-1.4812 5.0156,-1.88308 7.7053,-1.20566 2.2662,0.55148 4.0814,1.78155 5.4457,3.69022 l 7.4756,-15.8074 c 0.1723,-0.36441 0.4319,-0.52037 0.7787,-0.46788 l 0.1822,0.0862" />
          <path
             inkscape:connector-curvature="0"
             id="path6080"
             style="stroke-width:1.2900306"
             d="m 1175.2052,618.57603 c -2.6435,-1.07982 -5.2306,-0.92091 -7.7611,0.47676 -1.6786,0.91106 -2.9421,2.22752 -3.7906,3.94939 l 16.8405,6.8792 c 0.8043,-2.502 0.5847,-4.89608 -0.6587,-7.18222 -1.0526,-1.95408 -2.596,-3.32846 -4.6301,-4.12313 m 0.5335,-1.3062 c 2.3947,0.97822 4.1799,2.56024 5.3555,4.74605 0.7327,1.31544 1.1497,2.73774 1.2509,4.26691 0.1138,1.49808 -0.09,2.97512 -0.6126,4.43112 -0.025,0.0622 -0.066,0.11805 -0.1228,0.16754 l -0.038,0.0933 c 0.018,0.0438 0.021,0.0813 0.01,0.11236 -0.076,0.1866 -0.202,0.31669 -0.3772,0.39027 -0.1752,0.0736 -0.3561,0.0723 -0.5427,-0.004 l -17.5403,-7.16504 c -0.817,2.53311 -0.6101,4.95829 0.6207,7.27552 1.225,2.24232 3.0328,3.72468 5.4231,4.44708 2.4341,0.704 4.7568,0.43709 6.968,-0.80071 0.1879,-0.10468 0.3907,-0.11256 0.6084,-0.0236 0.1866,0.0762 0.3167,0.20194 0.3903,0.37716 0.074,0.17521 0.072,0.35612 0,0.54272 -0.051,0.1244 -0.1483,0.22974 -0.2924,0.31603 -2.5744,1.41607 -5.2497,1.70223 -8.0259,0.8585 -0.3859,-0.12136 -0.7499,-0.2519 -1.092,-0.39164 -2.2392,-0.91469 -3.9622,-2.4713 -5.1689,-4.66982 -0.7696,-1.40304 -1.1986,-2.8847 -1.287,-4.44498 -0.045,-1.57866 0.2097,-3.08964 0.763,-4.53295 l 0.1334,-0.32655 c 0.9585,-2.25757 2.4932,-3.97132 4.6041,-5.14125 2.5306,-1.39766 5.2058,-1.68383 8.0259,-0.8585 0.2177,0.089 0.535,0.20044 0.952,0.33447" />
          <path
             inkscape:connector-curvature="0"
             id="path6082"
             style="stroke-width:1.2900306"
             d="m 1239.0105,615.46824 c 2.363,1.76795 4.2535,3.83329 5.6714,6.19603 1.4179,2.3628 2.351,5.00264 2.7994,7.91952 0.489,2.89248 0.3752,5.77276 -0.3415,8.64085 -0.7169,2.86811 -1.9755,5.4796 -3.776,7.83447 -1.7598,2.33042 -3.8211,4.20459 -6.1838,5.6225 -2.3628,1.41791 -5.0067,2.36733 -7.9317,2.84828 -2.8844,0.4565 -5.7606,0.32635 -8.6287,-0.39044 -2.8681,-0.7168 -5.4837,-1.95915 -7.8467,-3.72706 -2.3223,-1.79235 -4.1923,-3.86992 -5.6102,-6.23269 -1.418,-2.36277 -2.3715,-4.99039 -2.8605,-7.88286 -0.4484,-2.91689 -0.3142,-5.80939 0.4026,-8.67751 0.7168,-2.86808 1.9551,-5.46735 3.7149,-7.7978 1.8004,-2.35484 3.8821,-4.24123 6.2449,-5.65917 2.3627,-1.41788 4.9863,-2.35508 7.8706,-2.81162 2.925,-0.4809 5.8216,-0.36298 8.6897,0.35378 2.8681,0.71683 5.4633,1.9714 7.7856,3.76372 m -18.7728,-2.1985 c -3.471,1.00249 -6.4856,2.81154 -9.0438,5.42717 -2.5175,2.59125 -4.2242,5.67942 -5.1202,9.26453 -0.896,3.58514 -0.8469,7.12946 0.1475,10.63296 1.035,3.47907 2.844,6.49364 5.4271,9.04373 2.6238,2.52564 5.7283,4.23645 9.3134,5.13245 3.5851,0.89599 7.1132,0.84276 10.5841,-0.15968 3.5116,-1.02691 6.5262,-2.83596 9.0437,-5.42717 2.5582,-2.61566 4.2853,-5.71606 5.1814,-9.3012 0.8959,-3.58511 0.8264,-7.11721 -0.2086,-10.59629 -0.9943,-3.50349 -2.8034,-6.51806 -5.4272,-9.04373 -2.5831,-2.55006 -5.6672,-4.2731 -9.2523,-5.16912 -3.5851,-0.89596 -7.1335,-0.83051 -10.6451,0.19635" />
          <path
             inkscape:connector-curvature="0"
             id="path6084"
             style="stroke-width:1.2900306"
             d="m 1258.7814,640.31032 c 2.4215,0.38808 4.4527,1.51314 6.0936,3.37518 0.3449,0.39552 0.6148,0.72798 0.8098,0.99737 0.1061,0.18714 0.1459,0.36363 0.1193,0.52947 -0.037,0.23221 -0.1328,0.40402 -0.2867,0.51543 -0.154,0.11143 -0.3305,0.1512 -0.5295,0.11929 -0.2322,-0.0372 -0.404,-0.13278 -0.5154,-0.28674 -0.056,-0.077 -0.1254,-0.17318 -0.2089,-0.28866 -0.078,-0.14861 -0.1592,-0.28066 -0.2427,-0.39614 -0.051,-0.11013 -0.1201,-0.20635 -0.209,-0.28865 -1.6687,-1.90053 -3.7683,-2.91746 -6.2987,-3.0508 -2.4972,-0.12799 -4.6987,0.65897 -6.6046,2.3609 -1.8727,1.70727 -2.8949,3.84001 -3.0667,6.39823 -0.1333,2.53038 0.6344,4.74584 2.3032,6.64638 1.7019,1.90586 3.8015,2.92279 6.2987,3.0508 2.5303,0.13332 4.7484,-0.65099 6.6543,-2.35293 0.1646,-0.17776 0.363,-0.24804 0.5952,-0.21083 0.199,0.0319 0.3542,0.12482 0.4657,0.27877 0.1445,0.15927 0.2009,0.33841 0.169,0.53744 -0.032,0.19903 -0.1248,0.35425 -0.2788,0.46567 -2.1859,1.96327 -4.7291,2.8656 -7.6297,2.70697 -0.4034,-0.0306 -0.8041,-0.0778 -1.2021,-0.14162 -2.3552,-0.37743 -4.3698,-1.49983 -6.0439,-3.3672 -1.9633,-2.1859 -2.8603,-4.76231 -2.691,-7.72923 0.031,-0.40336 0.078,-0.80408 0.1416,-1.20214 0.3881,-2.42149 1.5158,-4.46929 3.3832,-6.14339 2.1474,-1.9354 4.7045,-2.81848 7.6715,-2.64924 0.2706,0.009 0.5884,0.0433 0.9533,0.10175 l 0.1493,0.0239" />
          <path
             inkscape:connector-curvature="0"
             id="path6086"
             style="stroke-width:1.2900306"
             d="m 1273.0266,632.29748 c 0.2002,0.0238 0.3591,0.11032 0.4767,0.25958 0.1509,0.15328 0.2145,0.32998 0.1908,0.53011 l -0.056,0.0441 -1.0874,9.15738 5.2042,0.61793 c 0.2002,0.0238 0.3591,0.11032 0.4767,0.25958 0.1175,0.14931 0.1664,0.30735 0.1467,0.47413 -0.024,0.20018 -0.1123,0.37574 -0.2656,0.52668 -0.1493,0.11761 -0.324,0.16453 -0.5241,0.14074 l -5.2042,-0.61794 -2.0143,16.96367 c 0.029,0.0373 0.042,0.0727 0.038,0.10602 0,0 -0.019,0.0147 -0.056,0.0441 0,0.3042 0.1662,0.59485 0.5054,0.87194 0.402,0.31838 0.9366,0.51718 1.6038,0.5964 0.6339,0.0753 1.2021,-0.01 1.7048,-0.25429 0.432,-0.21934 0.6639,-0.46246 0.6956,-0.72934 l 0.01,-0.05 c 0.04,-0.3336 0.2155,-0.53262 0.5276,-0.59705 0.071,-0.0254 0.1561,-0.0322 0.2562,-0.0203 0.2001,0.0238 0.359,0.11029 0.4766,0.25958 0.1176,0.14928 0.1645,0.32401 0.1407,0.52417 l -0.01,0.05 c -0.091,0.76728 -0.5687,1.37027 -1.4327,1.80897 -0.756,0.38386 -1.6011,0.52033 -2.5351,0.40942 -0.9341,-0.11091 -1.709,-0.42282 -2.3247,-0.93573 -0.5864,-0.47558 -0.9046,-1.07158 -0.9549,-1.78799 -0.022,-0.10404 -0.045,-0.1914 -0.07,-0.26208 l 2.038,-17.16382 -1.301,-0.15449 c -0.2002,-0.0237 -0.359,-0.11027 -0.4766,-0.25958 -0.1176,-0.14926 -0.1646,-0.32399 -0.1408,-0.52417 0.02,-0.16678 0.088,-0.31096 0.2036,-0.43253 0.1533,-0.15094 0.3133,-0.21652 0.4801,-0.19673 l 1.4011,0.16637 1.0933,-9.20742 c 0.04,-0.33357 0.2321,-0.53061 0.5776,-0.5911 0.037,-0.0294 0.073,-0.0421 0.1061,-0.0382 l 0.1,0.0119" />
          <path
             inkscape:connector-curvature="0"
             id="path6088"
             style="stroke-width:1.2900306"
             d="m 1281.406,643.25294 c 0.2009,0.0164 0.3628,0.0971 0.4858,0.24192 0.123,0.14489 0.1763,0.31778 0.1599,0.51865 l -0.9598,11.75256 c -0.01,2.15659 0.6329,4.0122 1.9216,5.56682 1.2914,1.52114 2.8928,2.34291 4.8041,2.4653 1.847,0.0834 3.4976,-0.52329 4.9518,-1.8202 1.4542,-1.2969 2.347,-2.943 2.6785,-4.93832 l 0.07,-0.85382 c -0.031,-0.0362 -0.045,-0.0711 -0.042,-0.10455 0,-0.0335 0.022,-0.0656 0.058,-0.0964 l 0.8779,-10.74806 c 0.03,-0.36829 0.2166,-0.589 0.5596,-0.66212 l 0.2009,0.0164 c 0.1674,0.0137 0.3126,0.093 0.4356,0.23782 0.1565,0.14762 0.2265,0.32188 0.2101,0.52275 l -1.6202,19.83872 c -0.016,0.2009 -0.1138,0.36147 -0.2922,0.48174 -0.1449,0.12299 -0.301,0.17765 -0.4684,0.16398 -0.2009,-0.0164 -0.3629,-0.097 -0.4858,-0.24192 -0.123,-0.14487 -0.1763,-0.31776 -0.1599,-0.51866 l 0.2912,-3.56594 c -0.874,1.20946 -1.9619,2.14865 -3.2637,2.81758 -1.2655,0.63818 -2.6196,0.91522 -4.0621,0.83112 -2.2461,-0.14974 -4.1406,-1.09657 -5.6834,-2.84049 -1.5429,-1.74391 -2.3345,-3.81409 -2.3747,-6.21053 l 0.01,-0.10045 c 0,10e-6 -0.017,-10e-4 -0.05,-0.004 0,-0.0335 0,-0.0502 0,-0.0502 l 0.9803,-12.00367 c 0.03,-0.3683 0.2334,-0.58764 0.6099,-0.65803 0.07,-0.028 0.1213,-0.0406 0.1548,-0.0379" />
          <path
             inkscape:connector-curvature="0"
             id="path6090"
             style="stroke-width:1.2900306"
             d="m 1305.9276,646.86645 c -1.6798,-0.0273 -3.2412,0.38676 -4.6841,1.24208 l -0.5313,14.65439 c 1.4419,1.02716 3.0196,1.55499 4.733,1.58349 1.747,0.0297 3.3605,-0.43283 4.8407,-1.38767 2.0294,-1.27109 3.305,-3.07375 3.8266,-5.40801 0.5229,-2.36781 0.1487,-4.56645 -1.1223,-6.59593 -0.7943,-1.2726 -1.8178,-2.25096 -3.0704,-2.93511 -1.2514,-0.71768 -2.5821,-1.1021 -3.9922,-1.15324 m -4.6917,-18.02052 c 0.2015,0.007 0.3669,0.0806 0.4963,0.2197 0.1294,0.13919 0.1905,0.30949 0.1832,0.51089 l -0.6153,16.97089 c 2.1229,-1.06598 4.3179,-1.33938 6.585,-0.82019 2.7011,0.6022 4.7986,2.09014 6.2925,4.46383 1.1118,1.78839 1.6305,3.70653 1.5563,5.75444 -0.022,0.60431 -0.095,1.24036 -0.2205,1.90815 -0.6034,2.7347 -2.0751,4.84961 -4.4153,6.34474 -1.5833,1.01834 -3.3168,1.54378 -5.2005,1.57633 -1.8837,0.0326 -3.6316,-0.43421 -5.2438,-1.40031 l -0.037,1.00718 c -0.01,0.20143 -0.081,0.36686 -0.2197,0.49628 -0.1392,0.12942 -0.3095,0.19048 -0.5109,0.18318 -0.2014,-0.007 -0.3669,-0.0805 -0.4963,-0.21969 -0.1294,-0.13916 -0.1905,-0.30946 -0.1832,-0.51089 l 1.2963,-35.75471 c 0.013,-0.36926 0.2066,-0.59757 0.5795,-0.68493 0.035,-0.0323 0.086,-0.0473 0.1529,-0.0449" />
          <path
             inkscape:connector-curvature="0"
             id="path6092"
             style="stroke-width:1.2900306"
             d="m 1319.0299,645.08735 c 0.2016,-10e-4 0.3699,0.0652 0.505,0.19884 0.1351,0.13367 0.2032,0.30128 0.2043,0.50282 l 0.02,3.62816 c 0.7658,-1.28074 1.7513,-2.31071 2.9565,-3.08994 1.2388,-0.77937 2.5803,-1.18976 4.0247,-1.23119 l 0.252,-10e-4 c 0.2015,-0.001 0.3699,0.0652 0.505,0.19884 0.1351,0.13367 0.2031,0.28448 0.204,0.45243 0,0.20158 -0.065,0.38672 -0.1986,0.55539 -0.1336,0.13513 -0.3012,0.20322 -0.5028,0.20429 l -0.2016,10e-4 c -1.8475,0.0436 -3.4392,0.79131 -4.7751,2.24311 -1.3362,1.41824 -2.0827,3.15242 -2.2395,5.20255 l 0.065,11.99308 c 9e-4,0.16797 -0.065,0.3195 -0.1991,0.45461 -0.1334,0.16869 -0.301,0.25359 -0.5025,0.25468 -0.2016,10e-4 -0.37,-0.082 -0.5053,-0.24923 -0.1351,-0.13365 -0.2031,-0.28446 -0.204,-0.45243 l -0.1093,-20.20682 c 0,-0.36952 0.1816,-0.58888 0.5507,-0.65809 l 0.1512,-8.2e-4" />
          <path
             inkscape:connector-curvature="0"
             id="path6094"
             style="stroke-width:1.2900306"
             d="m 1340.2192,645.78057 c -2.8516,0.1494 -5.1243,1.39542 -6.8182,3.73805 -1.1304,1.53942 -1.7127,3.26877 -1.7467,5.18805 l 18.1666,-0.95164 c -0.3384,-2.60622 -1.5571,-4.67856 -3.6561,-6.21701 -1.7848,-1.31939 -3.7667,-1.90521 -5.9456,-1.75745 m -0.074,-1.40904 c 2.5832,-0.13529 4.8723,0.53535 6.8672,2.01194 1.2234,0.87787 2.2066,1.98696 2.9496,3.32729 0.7413,1.3068 1.1859,2.73006 1.3338,4.26976 0,0.0671 -0.01,0.13509 -0.04,0.20393 l 0.01,0.10065 c 0.035,0.0318 0.054,0.0645 0.056,0.098 0.011,0.2013 -0.048,0.37256 -0.1749,0.51377 -0.1272,0.14123 -0.2914,0.21712 -0.4927,0.22765 l -18.9214,0.99118 c 0.3402,2.6398 1.5606,4.74568 3.6614,6.31766 2.0637,1.50665 4.3307,2.07752 6.801,1.71263 2.5021,-0.40019 4.4897,-1.63127 5.9628,-3.69323 0.1254,-0.17477 0.3055,-0.26831 0.5403,-0.28061 0.2013,-0.0105 0.3726,0.0478 0.5138,0.17493 0.1412,0.12717 0.2171,0.2914 0.2277,0.49268 0.01,0.1342 -0.036,0.27103 -0.1299,0.41049 -1.7257,2.37796 -4.0241,3.7767 -6.8952,4.19623 -0.4008,0.0546 -0.7857,0.0916 -1.1548,0.11095 -2.4155,0.12654 -4.6374,-0.54762 -6.6658,-2.02248 -1.2941,-0.94142 -2.3135,-2.09908 -3.0582,-3.47298 -0.713,-1.40919 -1.1267,-2.88452 -1.2411,-4.42601 l -0.018,-0.35226 c -0.095,-2.45079 0.5636,-4.65509 1.9748,-6.6129 1.6939,-2.34264 3.9923,-3.74138 6.8952,-4.19623 0.2348,-0.0123 0.5694,-0.0466 1.0038,-0.10305" />
          <path
             inkscape:connector-curvature="0"
             id="path6096"
             style="stroke-width:1.2900306"
             d="m 1393.1548,637.99822 c 0.1988,-0.0328 0.3755,0.006 0.53,0.11673 0.1545,0.1107 0.2482,0.26548 0.281,0.46432 0.033,0.1989 -0.01,0.37558 -0.1167,0.53004 -0.1107,0.15451 -0.2655,0.24818 -0.4643,0.28101 l -20.9809,3.46632 c -0.1989,0.0329 -0.3756,-0.006 -0.5301,-0.11673 -0.1545,-0.11066 -0.2481,-0.26543 -0.281,-0.46432 -0.066,-0.39772 0.095,-0.6626 0.4816,-0.79462 l 21.0804,-3.48275" />
          <path
             inkscape:connector-curvature="0"
             id="path6098"
             style="stroke-width:1.2900306"
             d="m 1422.1702,607.16302 c 3.0366,-0.86684 5.8052,-0.46939 8.306,1.19234 2.3853,1.62489 3.8661,3.99709 4.4423,7.11662 0.5992,3.07808 0.1878,6.16513 -1.2341,9.26117 l 0.014,0.0485 -0.035,0.0623 c -0.014,0.0739 -0.049,0.13615 -0.1039,0.18687 l -11.1153,26.59827 21.3691,-6.10047 c 0.1938,-0.0553 0.3784,-0.0207 0.5537,0.10394 0.1661,0.0923 0.2722,0.21926 0.3184,0.38077 0.055,0.19384 0.037,0.3738 -0.055,0.5399 -0.092,0.16611 -0.2355,0.27683 -0.4293,0.33215 l -23.0165,6.57081 -0.062,-0.0346 c -0.065,0.0184 -0.1177,0.0161 -0.1592,-0.007 l -0.049,0.0138 -0.014,-0.0485 -0.048,0.0138 c -0.1661,-0.0923 -0.2768,-0.2354 -0.3321,-0.42922 -0.046,-0.16152 -0.055,-0.31611 -0.028,-0.46377 0.046,-0.083 0.092,-0.1661 0.1385,-0.24916 l 11.4269,-27.15888 -0.014,-0.0485 c -0.01,-0.0323 0,-0.053 0.035,-0.0623 l -0.014,-0.0485 c 0.046,-0.083 0.076,-0.16146 0.09,-0.23532 0.032,-0.009 0.06,-0.0346 0.083,-0.0761 0.046,-0.083 0.065,-0.14071 0.056,-0.17304 l 0.035,-0.0623 c 1.3573,-2.83302 1.7732,-5.65935 1.2477,-8.47899 -0.5024,-2.8611 -1.7917,-4.991 -3.8679,-6.3897 -2.2516,-1.52325 -4.8126,-1.80529 -7.6831,-0.84612 -2.8704,0.95926 -5.1989,2.89918 -6.9854,5.81977 -1.7541,2.91145 -2.44,5.95461 -2.0577,9.12948 0.3731,3.14263 1.7016,5.47096 3.9855,6.985 0.1661,0.0924 0.2768,0.23543 0.3321,0.42923 0.055,0.19385 0.037,0.37381 -0.055,0.53989 -0.092,0.16613 -0.2354,0.27685 -0.4292,0.33216 -0.2261,0.0646 -0.4315,0.0184 -0.616,-0.13857 -2.0763,-1.39864 -3.4694,-3.34167 -4.1796,-5.8291 -0.1844,-0.64605 -0.3296,-1.33826 -0.4356,-2.07665 -0.4422,-3.50713 0.3061,-6.88252 2.2449,-10.12618 1.9803,-3.2205 4.5834,-5.36109 7.8092,-6.4218 l 0.533,-0.15216" />
          <path
             inkscape:connector-curvature="0"
             id="path6100"
             style="stroke-width:1.2900306"
             d="m 1445.9853,599.26498 c 2.533,-0.70089 5.1864,0.0192 7.9604,2.16014 2.8056,2.12966 5.2028,5.35342 7.1918,9.67129 0.4829,1.04002 0.9128,2.08133 1.2895,3.12393 0.9248,2.55924 1.5753,5.19968 1.9515,7.92135 0.5318,3.84427 0.4601,7.35292 -0.2151,10.52596 -0.6866,3.14147 -1.864,5.56725 -3.5321,7.27737 -0.86,0.88228 -1.7797,1.50037 -2.7591,1.85429 -0.9795,0.35392 -2.0345,0.44937 -3.165,0.28635 -2.2382,-0.26285 -4.4674,-1.43983 -6.6875,-3.53095 -2.2,-2.13412 -4.1201,-4.97662 -5.7604,-8.5275 -0.4716,-1.00837 -0.9014,-2.04968 -1.2896,-3.12393 -0.9248,-2.55918 -1.5752,-5.19963 -1.9515,-7.92135 -0.5204,-3.81262 -0.4373,-7.28968 0.2493,-10.43117 0.6752,-3.17301 1.8627,-5.62031 3.5624,-7.34189 0.8398,-0.83921 1.7653,-1.44151 2.7763,-1.80689 l 0.3791,-0.137 m 0.5903,1.92995 c -1.0655,0.31361 -2.0598,0.92294 -2.983,1.82801 -1.5646,1.6013 -2.6556,3.87084 -3.2729,6.80862 -0.6173,2.93785 -0.6969,6.12789 -0.2389,9.57013 0.458,3.4423 1.4228,6.75501 2.8945,9.93813 1.1003,2.35292 2.3734,4.39333 3.8193,6.12122 1.446,1.72792 2.9173,2.98229 4.4139,3.76314 1.5168,0.73784 3.0288,1.06667 4.5358,0.98648 1.4956,-0.11178 2.8387,-0.79359 4.0295,-2.04546 1.5962,-1.61267 2.6872,-3.88221 3.2729,-6.80862 0.6173,-2.93779 0.697,-6.12784 0.239,-9.57013 -0.4379,-3.48526 -1.3926,-6.81947 -2.8643,-10.00265 -1.7861,-3.85536 -3.9572,-6.75003 -6.5135,-8.68401 -2.5563,-1.93389 -5.0004,-2.56884 -7.3323,-1.90486" />
          <path
             inkscape:connector-curvature="0"
             id="path6102"
             style="stroke-width:1.2900306"
             d="m 1467.7348,590.50356 c 0.062,-0.0262 0.1302,-0.037 0.2052,-0.0323 l 0.093,-0.0394 0.066,0.0267 0.093,-0.0394 c 0.013,0.031 0.035,0.0399 0.066,0.0267 l 0.046,-0.0197 c 0.088,0.0357 0.1827,0.0867 0.284,0.15321 l 0.02,0.0464 c 0.07,0.0797 0.1406,0.15936 0.2109,0.23897 l 16.6713,39.29137 c 0.065,0.15464 0.054,0.34207 -0.035,0.5623 -0.071,0.1762 -0.1841,0.2971 -0.3387,0.3627 -0.1856,0.0787 -0.3665,0.0825 -0.5427,0.0113 -0.1893,-0.10213 -0.3167,-0.23052 -0.3823,-0.38516 l -16.1792,-38.13165 -7.4078,10.14988 c -0.067,0.10125 -0.1617,0.1781 -0.2854,0.23055 -0.1855,0.0788 -0.3819,0.0891 -0.589,0.031 -0.1762,-0.0712 -0.3036,-0.19957 -0.3824,-0.38516 -0.1049,-0.24737 -0.075,-0.47886 0.089,-0.69445 l 7.9997,-10.94836 c 0.04,-0.16303 0.1157,-0.28627 0.2263,-0.36973 l 0.093,-0.0394 -0.02,-0.0464" />
          <path
             inkscape:connector-curvature="0"
             id="path6104"
             style="stroke-width:1.2900306"
             d="m 1491.3525,579.49608 0.068,0.0229 0.045,-0.0223 0.022,0.0452 0.09,-0.0446 c 0.045,0.0153 0.09,0.0306 0.135,0.0457 0.015,0.0302 0.045,0.0529 0.09,0.0681 l 0.022,0.0452 0.045,-0.0223 c 0.045,0.0153 0.082,0.053 0.1121,0.11324 l 0.068,0.0229 0.1561,0.31629 -0.023,0.0675 c 0.015,0.0302 0.015,0.0677 -6e-4,0.11267 0.03,0.0603 0.037,0.11292 0.022,0.15787 l -2.3635,48.59865 c 0,0.30047 -0.1227,0.5102 -0.3637,0.62918 -0.1808,0.0892 -0.3686,0.0883 -0.5634,-0.003 -0.18,-0.061 -0.3146,-0.18188 -0.4038,-0.36262 -0.045,-0.0904 -0.067,-0.21067 -0.066,-0.36091 l 2.268,-47.53993 -20.1525,9.94951 c -0.015,0.045 -0.038,0.075 -0.068,0.0898 -0.1808,0.0893 -0.3611,0.10339 -0.5411,0.0423 -0.1949,-0.0911 -0.3369,-0.22702 -0.4262,-0.4078 -0.1784,-0.36144 -0.1018,-0.66154 0.23,-0.90029 l 21.5983,-10.66338" />
        </g>
        <g
           transform="translate(-7.7966061,-4)"
           id="text5989"
           style="font-size:51.60122299px;font-style:normal;font-variant:normal;font-weight:200;font-stretch:normal;text-align:start;line-height:125%;letter-spacing:0px;word-spacing:0px;writing-mode:lr-tb;text-anchor:start;fill:#000000;fill-opacity:1;stroke:#000000;stroke-width:1.2900306;font-family:SkarpaLT;-inkscape-font-specification:SkarpaLT Ultra-Light">
          <path
             inkscape:connector-curvature="0"
             id="path6039"
             style="stroke-width:1.2900306"
             d="m 1100.4324,36.760294 c 2.6082,-1.960674 5.5062,-2.762578 8.694,-2.405713 3.1878,0.35695 5.719,1.787949 7.5935,4.293001 1.5126,2.019578 2.2254,4.313358 2.1387,6.881347 -0.087,2.568052 -0.9267,4.889786 -2.5196,6.965209 l 22.4832,7.80813 c 0.1892,0.01696 0.3377,0.08988 0.4455,0.218753 0.1292,0.154686 0.1725,0.337433 0.1298,0.548242 -0.017,0.189298 -0.09,0.337795 -0.2188,0.445492 -0.2578,0.215438 -0.5352,0.250232 -0.8322,0.104382 L 1115.3469,53.5859 c -0.3951,0.4178 -0.6185,0.64823 -0.6701,0.691292 l -4.9107,4.103818 13.1193,15.698984 c 0.1292,0.154672 0.1854,0.326648 0.1684,0.515928 -0.017,0.189285 -0.1027,0.348553 -0.2574,0.477805 -0.1547,0.129256 -0.3266,0.185411 -0.5159,0.168466 -0.1893,-0.01694 -0.3486,-0.102749 -0.4778,-0.257421 l -13.3778,-16.008323 c -0.1162,-0.03423 -0.2066,-0.09003 -0.2712,-0.167378 -0.065,-0.07732 -0.1035,-0.176193 -0.1166,-0.296631 l -13.1839,-15.776319 c -0.09,-0.05576 -0.1679,-0.122322 -0.2325,-0.199691 -0.1508,-0.180414 -0.2027,-0.39971 -0.1558,-0.657891 l 0.039,-0.03231 c 0,-0.04729 0.032,-0.09249 0.084,-0.135609 l -0.032,-0.03867 5.8775,-4.911656 m 8.4289,20.538027 4.8721,-4.071504 c 2.0707,-1.818004 3.2828,-4.034869 3.6362,-6.650603 0.3576,-2.662994 -0.2414,-5.030054 -1.797,-7.101188 -1.6418,-2.174172 -3.8566,-3.409897 -6.6443,-3.70718 -2.7834,-0.34452 -5.3396,0.368733 -7.6685,2.139764 l -5.0654,4.233072 12.6669,15.157639" />
          <path
             inkscape:connector-curvature="0"
             id="path6041"
             style="stroke-width:1.2900306"
             d="m 1131.375,40.539771 c 0.1618,-0.12016 0.3367,-0.166371 0.5247,-0.138631 0.188,0.02778 0.3421,0.122571 0.4623,0.284372 l 11.8678,15.979808 c 0.1202,0.161825 0.1664,0.336736 0.1387,0.524733 -0.028,0.188004 -0.1226,0.342095 -0.2844,0.462272 -0.1618,0.120184 -0.3368,0.166394 -0.5248,0.138631 -0.188,-0.02776 -0.342,-0.122547 -0.4622,-0.284371 l -11.8679,-15.979809 c -0.2203,-0.296652 -0.2256,-0.585593 -0.016,-0.866824 l 0.1618,-0.120181 m -3.7354,-0.803689 c -0.1201,-0.1618 -0.1663,-0.336711 -0.1386,-0.524733 l 0.6686,-5.015936 0.2383,-1.369552 0.5339,0.04282 0.071,0.01041 c 0.074,-0.01306 0.158,-0.01267 0.252,0.0012 l 0.06,0.08091 0.071,0.01041 c 0.067,0.03394 0.1306,0.09135 0.1907,0.17223 l 0.06,0.08091 c 0.02,0.027 0.026,0.06398 0.02,0.110955 l 0.06,0.08091 c -0.01,0.04703 -0.014,0.09403 -0.021,0.141001 l 0.03,0.04046 c -0.027,0.02006 -0.03,0.04356 -0.01,0.0705 l -0.01,0.0705 c -0.01,0.04703 -0.014,0.09403 -0.021,0.141 l -0.812,5.499029 c 0.012,0.241962 -0.062,0.423023 -0.2243,0.543183 -0.2967,0.220351 -0.5956,0.212226 -0.8969,-0.02438 l -0.1202,-0.16182" />
          <path
             inkscape:connector-curvature="0"
             id="path6043"
             style="stroke-width:1.2900306"
             d="m 1144.3973,44.696182 c 1.4074,2.130241 3.3539,3.4614 5.8395,3.993481 2.4951,0.485545 4.7937,0.03386 6.8959,-1.355061 2.1302,-1.407423 3.4474,-3.344665 3.9515,-5.811732 0.4855,-2.495069 0.024,-4.807725 -1.3829,-6.937977 -1.4074,-2.130209 -3.3447,-3.447353 -5.8117,-3.951436 -2.4856,-0.532062 -4.7935,-0.09439 -6.9237,1.313017 -2.1022,1.388935 -3.4101,3.340192 -3.9237,5.853776 -0.504,2.467071 -0.052,4.765712 1.3551,6.895932 m 16.4392,-10.861302 c 1.6297,2.466605 2.1637,5.13363 1.6021,8.001084 -0.5802,2.839452 -2.0755,5.055481 -4.486,6.648093 -2.4386,1.611145 -5.0916,2.135902 -7.9591,1.574274 -2.8579,-0.608166 -5.1017,-2.145543 -6.7314,-4.612136 -1.6111,-2.438543 -2.1359,-5.091554 -1.5743,-7.95904 0.5897,-2.885968 2.1038,-5.134531 4.5423,-6.745693 2.4106,-1.592594 5.0448,-2.084818 7.9028,-1.476673 2.8579,0.608197 5.0925,2.13156 6.7036,4.570091" />
          <path
             inkscape:connector-curvature="0"
             id="path6045"
             style="stroke-width:1.2900306"
             d="m 1189.6996,-17.693932 c 3.8577,-1.659077 7.8668,-2.158258 12.0274,-1.497544 0.2515,0.07472 0.4304,0.235498 0.5366,0.482338 0.08,0.185218 0.084,0.366071 0.014,0.542558 -0.07,0.176587 -0.1981,0.304675 -0.3833,0.384263 -0.1543,0.06641 -0.291,0.08865 -0.4101,0.06669 -3.6532,-0.586375 -7.1729,-0.224567 -10.559,1.085426 -3.3994,1.279228 -6.2486,3.327454 -8.5476,6.144686 -2.3123,2.7864543 -3.7617,6.0062637 -4.3481,9.65943767 -0.5865,3.65323933 -0.2334,7.19496463 1.059,10.62518653 1.3101,3.3861318 3.3737,6.2287018 6.191,8.5277198 2.8173,2.299045 6.0525,3.741773 9.7057,4.328188 4.7562,0.770292 9.2039,-0.02721 13.343,-2.392492 4.1699,-2.378538 7.1431,-5.796594 8.9195,-10.25418 0.084,-0.1456537 0.2026,-0.2516742 0.3569,-0.3180615 0.1543,-0.066343 0.3197,-0.064349 0.4963,0.00598 0.2074,0.057102 0.3509,0.178226 0.4305,0.3633715 0.066,0.154328 0.073,0.297683 0.02,0.430065 -1.8995,4.766525 -5.0665,8.41421 -9.5009,10.943067 -0.8067,0.420105 -1.5958,0.796065 -2.3673,1.127881 -3.7651,1.619317 -7.7368,2.120656 -11.9149,1.504017 -3.8915,-0.630223 -7.3386,-2.182959 -10.3414,-4.658213 -2.7731,-2.281431 -4.8632,-5.0578 -6.2701,-8.329116 -0.1062,-0.246869 -0.2102,-0.531257 -0.3121,-0.853164 -1.4029,-3.6021173 -1.7959,-7.3643504 -1.179,-11.286711 0.5864,-3.6531736 1.985,-6.906002 4.1958,-9.758495 2.1975,-2.883269 4.9274,-5.081323 8.1897,-6.594169 l 0.6481,-0.278734" />
          <path
             inkscape:connector-curvature="0"
             id="path6047"
             style="stroke-width:1.2900306"
             d="m 1218.6077,-4.6108317 c 0.1924,-0.060164 0.3728,-0.046195 0.5412,0.041909 0.1683,0.088146 0.2826,0.2283938 0.3428,0.4207454 l 3.5208,11.2537783 c 0.8023,2.0018237 2.0924,3.481416 3.8704,4.438781 1.7679,0.925312 3.5606,1.086055 5.3781,0.482229 1.7433,-0.615818 3.0456,-1.797649 3.9068,-3.5454969 0.8612,-1.7478319 1.071,-3.6086894 0.6294,-5.5825781 l -0.2557,-0.8175822 c -0.042,-0.022017 -0.068,-0.049063 -0.078,-0.08114 -0.01,-0.032048 0,-0.069125 0.018,-0.1112324 l -3.2199,-10.2919169 c -0.1104,-0.3526574 -0.02,-0.6272459 0.2702,-0.8237663 l 0.1924,-0.060185 c 0.1603,-0.050129 0.3247,-0.031144 0.493,0.056955 0.2005,0.078119 0.3308,0.2133521 0.391,0.405699 l 5.9433,18.9967628 c 0.06,0.192378 0.03,0.377765 -0.09,0.556162 -0.088,0.168377 -0.2124,0.27764 -0.3727,0.327789 -0.1924,0.06019 -0.3727,0.04622 -0.5411,-0.04191 -0.1684,-0.08812 -0.2827,-0.228367 -0.3428,-0.420745 l -1.0683,-3.414608 c -0.3563,1.4490759 -1.0122,2.7278937 -1.9678,3.836457 -0.9336,1.066482 -2.0846,1.831414 -3.4533,2.294801 -2.1381,0.704134 -4.2495,0.537483 -6.334,-0.499953 -2.0846,-1.037429 -3.5952,-2.659239 -4.5319,-4.8654346 l -0.03,-0.096186 c 0,8.5e-6 -0.016,0.00502 -0.048,0.015046 -0.01,-0.032054 -0.015,-0.048085 -0.015,-0.048093 l -3.5961,-11.4942436 c -0.1103,-0.3526621 0,-0.6322661 0.3184,-0.8388126 0.054,-0.052103 0.097,-0.08318 0.1292,-0.093232" />
          <path
             inkscape:connector-curvature="0"
             id="path6049"
             style="stroke-width:1.2900306"
             d="m 1251.3994,-4.8297604 c -1.4545,0.2721212 -2.8447,0.8914863 -4.1708,1.8580973 -1.301,0.9262595 -2.2867,2.02008756 -2.9571,3.28148741 -0.8476,1.68256409 -0.9467,3.17233389 -0.2975,4.46931359 0.1421,0.3117337 0.3295,0.5956021 0.5621,0.851606 0.713,0.8334442 1.7283,1.3372012 3.0459,1.5112724 1.8291,0.2956338 3.7251,-0.08003 5.688,-1.1269914 1.9955,-1.0546242 3.4296,-2.4434044 4.3023,-4.1663449 0.017,-0.073077 0.055,-0.1336434 0.1126,-0.1817009 l -1.3922,-5.9363279 c -0.5173,-0.2927477 -1.1904,-0.5144484 -2.0194,-0.6651027 -0.9347,-0.1603182 -1.8927,-0.1254212 -2.8739,0.1046911 m -4.7956,-8.0884226 c 0.2617,-0.06134 0.6417,-0.133206 1.1399,-0.215586 1.1601,-0.203045 2.2403,-0.232083 3.2404,-0.08712 1.3099,0.141391 2.4369,0.532697 3.3809,1.173919 0.9691,0.600888 1.6466,1.356396 2.0326,2.2665244 l 0.023,0.098121 c 0.04,0.025056 0.072,0.086635 0.095,0.1847358 l 2.9917,12.755746 c 0.1247,0.3848202 0.3736,0.6369933 0.7467,0.7565199 0.4692,0.2350254 1.0145,0.2796613 1.636,0.1339079 l 0.049,-0.011506 c 0.1635,-0.038348 0.326,-0.00745 0.4875,0.092685 0.1942,0.09248 0.3105,0.2204838 0.3489,0.3840132 0.046,0.1962477 0,0.37896 -0.1303,0.5481375 -0.1001,0.1615168 -0.232,0.2614499 -0.3955,0.2997997 l -0.049,0.011506 c -0.9159,0.2147904 -1.7584,0.1535897 -2.5275,-0.1836022 -0.6962,-0.3198167 -1.1738,-0.8116448 -1.433,-1.4754856 l -0.035,-0.1471817 -0.049,0.011506 -0.012,-0.049061 c -0.025,0.040385 -0.063,0.1009514 -0.1127,0.1817008 -0.025,0.040384 -0.054,0.064409 -0.087,0.072073 -0.3235,0.3864204 -0.7047,0.8208833 -1.1436,1.3033899 -0.8682,0.8592365 -1.8112,1.5462503 -2.8292,2.0610434 -0.4349,0.2055168 -0.9679,0.4340434 -1.599,0.6855803 -0.3848,0.1247603 -0.7571,0.2293293 -1.1169,0.3137073 -1.341,0.3145094 -2.6539,0.3808905 -3.9387,0.1991434 -2.212,-0.3093699 -3.7453,-1.329991 -4.6001,-3.0618665 -0.1978,-0.4021735 -0.3428,-0.7995047 -0.4348,-1.1919949 -0.3299,-1.4063953 -0.076,-2.8979771 0.7621,-4.47474987 0.7551,-1.48832493 1.8736,-2.75133563 3.3556,-3.78903563 1.4742,-1.0703785 3.053,-1.7684761 4.7365,-2.094295 1.1851,-0.2434294 2.2979,-0.2801385 3.3385,-0.1101274 0.4308,0.071501 0.8857,0.1718563 1.3646,0.3010672 l 0.049,-0.011506 -0.6673,-2.8455126 c -0.1842,-0.7849491 -0.6675,-1.4479833 -1.45,-1.9891043 -0.7902,-0.573786 -1.771,-0.930361 -2.9423,-1.069727 -1.8793,-0.214853 -3.705,0.09257 -5.4773,0.922277 -1.7722,0.829748 -2.9733,1.887834 -3.6033,3.1742618 -0.092,0.1942368 -0.2531,0.3181943 -0.4821,0.371873 -0.1962,0.046043 -0.3713,0.035337 -0.5251,-0.032118 -0.1615,-0.1001266 -0.2653,-0.2483199 -0.3113,-0.4445801 -0.038,-0.1635168 -0.024,-0.3222047 0.044,-0.4760642 0.5048,-1.0845376 1.3047,-2.0140305 2.3998,-2.7884805 1.0874,-0.807115 2.3305,-1.391961 3.7292,-1.75454" />
          <path
             inkscape:connector-curvature="0"
             id="path6051"
             style="stroke-width:1.2900306"
             d="m 1263.0233,-16.115179 c 0.1986,-0.03427 0.3756,0.0034 0.5309,0.112894 0.1552,0.109577 0.25,0.263669 0.2843,0.462277 l 0.6173,3.575313 c 0.5442,-1.389422 1.3465,-2.567728 2.4068,-3.534921 1.0934,-0.972867 2.349,-1.59875 3.7668,-1.877651 l 0.2483,-0.04287 c 0.1986,-0.03427 0.3756,0.0034 0.5309,0.112893 0.1552,0.109579 0.2472,0.247119 0.2757,0.41262 0.034,0.198651 -4e-4,0.392158 -0.1043,0.580523 -0.1095,0.155303 -0.2636,0.25009 -0.4623,0.284363 l -0.1986,0.03429 c -1.815,0.347487 -3.2618,1.347285 -4.3402,2.999396 -1.0841,1.619043 -1.5346,3.4525386 -1.3515,5.5004922 l 2.0405,11.8183969 c 0.029,0.1655245 -0.012,0.3259271 -0.1214,0.4812082 -0.1039,0.1883866 -0.2551,0.2997267 -0.4538,0.3340206 -0.1986,0.034294 -0.3784,-0.019889 -0.5394,-0.1625506 -0.1553,-0.109556 -0.2472,-0.247096 -0.2758,-0.4126202 l -3.438,-19.9125091 c -0.063,-0.364131 0.082,-0.610748 0.4348,-0.739851 l 0.149,-0.02572" />
          <path
             inkscape:connector-curvature="0"
             id="path6053"
             style="stroke-width:1.2900306"
             d="m 1276.8601,-28.227121 c 0.1999,-0.02596 0.3751,0.01901 0.5257,0.134902 0.1839,0.111627 0.2888,0.267367 0.3148,0.46722 l -0.043,0.05647 1.1892,9.144707 5.197,-0.675813 c 0.1999,-0.02597 0.3751,0.019 0.5257,0.134903 0.1506,0.115949 0.2367,0.257198 0.2584,0.423746 0.026,0.199906 -0.017,0.391798 -0.1284,0.575675 -0.116,0.150606 -0.2739,0.238894 -0.4737,0.264866 l -5.197,0.675813 2.2029,16.94019652 c 0.038,0.02898506 0.059,0.06013301 0.063,0.09344396 0,3.07e-6 -0.014,0.01882615 -0.043,0.05646928 0.072,0.29549707 0.3068,0.53601645 0.7036,0.72155887 0.4677,0.21019676 1.0347,0.27197267 1.701,0.185328 0.633,-0.0823083 1.1632,-0.30370159 1.5906,-0.66418035 0.3651,-0.31849495 0.5303,-0.61099989 0.4957,-0.8775157 l -0.01,-0.0499711 c -0.043,-0.3331365 0.078,-0.56917218 0.3652,-0.70810778 0.062,-0.041974 0.1434,-0.069461 0.2434,-0.082462 0.1998,-0.025988 0.3751,0.018979 0.5257,0.1349023 0.1506,0.1159319 0.2388,0.2738377 0.2648,0.47371795 l 0.01,0.0499711 c 0.1,0.76622629 -0.2156,1.46783524 -0.9458,2.10482895 -0.639,0.5573727 -1.4249,0.896708 -2.3576,1.018007 -0.9328,0.1213003 -1.7605,0.00873 -2.4831,-0.3377104 -0.685,-0.3174567 -1.1396,-0.8173186 -1.3638,-1.49958703 -0.046,-0.0956074 -0.091,-0.17456031 -0.1324,-0.236859 l -2.2289,-17.14008057 -1.2993,0.168953 c -0.1999,0.02601 -0.3751,-0.01895 -0.5257,-0.134902 -0.1506,-0.115908 -0.2388,-0.273814 -0.2648,-0.473718 -0.022,-0.16655 0.01,-0.322961 0.091,-0.469234 0.1116,-0.183878 0.2507,-0.286658 0.4172,-0.30834 l 1.3992,-0.181949 -1.1956,-9.194679 c -0.043,-0.33311 0.095,-0.571311 0.4152,-0.714606 0.029,-0.03761 0.06,-0.0586 0.093,-0.06297 l 0.1,-0.013" />
          <path
             inkscape:connector-curvature="0"
             id="path6055"
             style="stroke-width:1.2900306"
             d="m 1291.0986,-9.2160306 c 0.1738,2.5472687 1.2107,4.6652308 3.1106,6.3538927 1.9311,1.6528664 4.1536,2.39352312 6.6673,2.22197231 2.5473,-0.17383423 4.6485,-1.20955491 6.3036,-3.10716531 1.6529,-1.9311167 2.3924,-4.1703067 2.2186,-6.7175771 -0.1739,-2.547246 -1.2096,-4.64845 -3.1072,-6.303617 -1.8999,-1.688649 -4.1235,-2.446063 -6.6707,-2.272248 -2.5138,0.17157 -4.6138,1.224049 -6.3002,3.157441 -1.6552,1.897622 -2.3958,4.120054 -2.222,6.6673014 m 19.6575,-1.3415134 c 0.2013,2.9494686 -0.6495,5.5329735 -2.5521,7.7505222 -1.905,2.18404032 -4.2987,3.37441313 -7.1811,3.57112195 -2.916,0.19899721 -5.4827,-0.65285251 -7.7003,-2.55555175 -2.1863,-1.9384969 -3.3801,-4.3824753 -3.5814,-7.3319426 -0.199,-2.9159298 0.6528,-5.4826768 2.5555,-7.7002478 1.9363,-2.219822 4.3623,-3.42924 7.2783,-3.628258 2.8824,-0.196688 5.4168,0.674207 7.6031,2.612688 2.1863,1.938519 3.379,4.36574 3.578,7.281668" />
          <path
             inkscape:connector-curvature="0"
             id="path6057"
             style="stroke-width:1.2900306"
             d="m 1358.2932,-19.269937 c 0.2008,0.01666 0.3627,0.09748 0.4855,0.242473 0.1228,0.14503 0.1759,0.317975 0.1593,0.518836 -0.017,0.200897 -0.098,0.362751 -0.2424,0.485561 -0.1451,0.122846 -0.318,0.175941 -0.5189,0.159286 l -21.1928,-1.755249 c -0.2008,-0.01662 -0.3627,-0.09744 -0.4855,-0.242473 -0.1229,-0.144992 -0.176,-0.317937 -0.1593,-0.518836 0.033,-0.401739 0.2535,-0.619461 0.6609,-0.653166 l 21.2932,1.763568" />
          <path
             inkscape:connector-curvature="0"
             id="path6059"
             style="stroke-width:1.2900306"
             d="m 1412.6676,-30.963703 c 4.0568,1.084591 7.5147,3.173953 10.3736,6.268094 0.1513,0.214362 0.1923,0.451347 0.1229,0.710957 -0.052,0.194757 -0.1604,0.339678 -0.3249,0.434763 -0.1645,0.09514 -0.3442,0.116669 -0.5388,0.06458 -0.1624,-0.04335 -0.2835,-0.110515 -0.3635,-0.201482 -2.5064,-2.72171 -5.4948,-4.616017 -8.9652,-5.682925 -3.4617,-1.099295 -6.9673,-1.25406 -10.5168,-0.464295 -3.5408,0.757379 -6.6721,2.389242 -9.3938,4.895594 -2.7218,2.506412 -4.6366,5.506695 -5.7446,9.00086 -1.0669,3.470428 -1.2055,6.9803701 -0.4156,10.5298377 0.7897,3.5494879 2.4378,6.6850962 4.9442,9.4068344 3.259,3.5488653 7.2459,5.6753485 11.9609,6.3794559 4.7473,0.712773 9.1982,-0.131643 13.3525,-2.5332492 0.1558,-0.062662 0.3148,-0.0723 0.4771,-0.028914 0.1623,0.043379 0.291,0.1473326 0.3861,0.3118608 0.1275,0.1731977 0.1653,0.3571625 0.1133,0.551895 -0.043,0.1622698 -0.1268,0.2790741 -0.2502,0.3504134 -4.4422,2.568054 -9.1874,3.472877 -14.2355,2.714472 -0.8937,-0.169361 -1.7462,-0.362494 -2.5575,-0.579398 -3.9595,-1.058532 -7.3893,-3.1229913 -10.2893,-6.1933833 -2.6664,-2.9036168 -4.4128,-6.2567702 -5.2392,-10.0594703 -0.766,-3.5083368 -0.6892,-6.9826114 0.2305,-10.4228344 0.069,-0.259618 0.1637,-0.547373 0.283,-0.863265 1.1276,-3.697569 3.1475,-6.895794 6.0598,-9.594684 2.7217,-2.506351 5.8336,-4.195573 9.3355,-5.06767 3.5106,-0.904481 7.0152,-0.941232 10.514,-0.110253 l 0.6815,0.182205" />
          <path
             inkscape:connector-curvature="0"
             id="path6061"
             style="stroke-width:1.2900306"
             d="m 1443.3189,-0.20120131 c 0.094,0.0364693 0.1662,0.0825073 0.2167,0.13811397 0.082,0.06778916 0.1575,0.15122266 0.2272,0.25030075 0.045,0.16174879 0.038,0.32091539 -0.023,0.47750029 -0.085,0.21925463 -0.2302,0.3611365 -0.4354,0.4256459 l -3.4924,1.6178791 c 1.5997,1.4494431 2.6509,3.2445941 3.1536,5.3854584 0.5461,2.1217109 0.4182,4.2161209 -0.3838,6.2832369 -1.0693,2.756158 -2.9359,4.734544 -5.5998,5.935164 -2.6517,1.16929 -5.34,1.225361 -8.0648,0.168213 -2.7249,-1.057158 -4.672,-2.911605 -5.8413,-5.563345 -1.1571,-2.68306 -1.201,-5.4026679 -0.1317,-8.1588332 1.0571,-2.7248278 2.9116,-4.6718938 5.5633,-5.84120368 2.6639,-1.20060057 5.3583,-1.27233159 8.0831,-0.21519327 0.6577,0.25518977 1.2912,0.57300465 1.9003,0.95344545 l 4.2384,-1.86895743 c 0.1304,-0.0574905 0.2643,-0.0776013 0.4018,-0.0603324 l 0.1879,0.0729072 m -7.2387,2.21837683 c -0.6264,-0.2430101 -1.2241,-0.4208271 -1.793,-0.5334515 -0.3375,-0.058858 -0.628,-0.099503 -0.8715,-0.1219356 -1.8352,-0.099408 -3.5622,0.3116141 -5.1809,1.2330679 -1.5752,0.902311 -2.7753,2.184381 -3.6002,3.8462138 -0.1407,0.2697376 -0.2657,0.5455416 -0.3751,0.827413 -0.6926,1.7852461 -0.8486,3.5804919 -0.4679,5.3857429 0.4241,1.786088 1.2759,3.305694 2.5554,4.558823 0.2019,0.222488 0.4317,0.419733 0.6893,0.591735 0.6858,0.554337 1.4828,1.007699 2.3911,1.360087 0.3132,0.121509 0.6011,0.215209 0.8639,0.281103 2.2461,0.619188 4.4211,0.400018 6.525,-0.657511 2.1039,-1.057536 3.5872,-2.69816 4.45,-4.921879 1.045,-2.693515 0.8776,-5.280826 -0.502,-7.7619405 -0.6671,-1.1596763 -1.4567,-2.0966136 -2.3687,-2.8108146 l -2.7387,1.207634 c -0.087,0.038349 -0.1835,0.054951 -0.2896,0.049806 -0.012,0.031331 -0.034,0.040915 -0.065,0.028753 -0.075,0.00703 -0.1592,-0.00769 -0.2531,-0.044154 -0.063,-0.024291 -0.1193,-0.064254 -0.1697,-0.1198872 -0.031,-0.01214 -0.057,-0.039951 -0.076,-0.083434 -0.2019,-0.2224781 -0.2482,-0.4746625 -0.1389,-0.7565542 0.061,-0.1565878 0.1998,-0.2828096 0.4172,-0.3786659 l 1.844,-0.8520693 -0.8456,-0.3280824" />
          <path
             inkscape:connector-curvature="0"
             id="path6063"
             style="stroke-width:1.2900306"
             d="m 1450.9581,6.6713351 c 0.1831,0.084375 0.3075,0.215694 0.3733,0.3939586 0.066,0.1782994 0.056,0.3589735 -0.028,0.5420228 l -1.5184,3.2951935 c 1.236,-0.836037 2.5649,-1.3518688 3.9866,-1.5474962 1.4523,-0.1815378 2.8415,0.014709 4.1675,0.588741 l 0.2288,0.1054462 c 0.1831,0.08437 0.3075,0.215691 0.3733,0.393959 0.066,0.178296 0.064,0.343714 -0.01,0.496256 -0.084,0.183079 -0.2227,0.322771 -0.415,0.419075 -0.1783,0.06582 -0.359,0.05654 -0.5421,-0.02783 l -0.183,-0.08436 c -1.6922,-0.742747 -3.4508,-0.739329 -5.2758,0.01025 -1.8109,0.719097 -3.2215,1.974076 -4.2317,3.764942 l -5.0192,10.892445 c -0.07,0.152554 -0.1946,0.261734 -0.3729,0.327542 -0.1923,0.09632 -0.38,0.102296 -0.5631,0.01794 -0.1831,-0.08436 -0.3005,-0.230934 -0.3522,-0.439725 -0.066,-0.178284 -0.064,-0.343702 0.01,-0.496256 l 8.4568,-18.3523977 c 0.1547,-0.3356038 0.4139,-0.4565983 0.7776,-0.3629839 l 0.1373,0.063268" />
          <path
             inkscape:connector-curvature="0"
             id="path6065"
             style="stroke-width:1.2900306"
             d="m 1470.7087,18.390343 c -1.2323,-0.688048 -2.5776,-1.01791 -4.0358,-0.989586 -1.4427,-0.0014 -2.8184,0.374402 -4.1271,1.127304 -2.1744,1.16986 -3.6485,2.956068 -4.4222,5.358631 -0.7282,2.388536 -0.5599,4.661355 0.5052,6.818465 0.8074,1.565423 1.968,2.785397 3.4818,3.659923 1.5294,0.844804 3.1759,1.143661 4.9395,0.896571 l 7.0772,-13.415632 c -0.7934,-1.520028 -1.9329,-2.671919 -3.4186,-3.455676 m 13.377,-13.9095227 c 0.1783,0.094074 0.2955,0.2318759 0.3517,0.4134046 0.056,0.1815781 0.029,0.3763518 -0.08,0.5843218 l -17.3286,32.8482423 c -0.094,0.178271 -0.2319,0.295489 -0.4134,0.351652 -0.1973,0.08586 -0.385,0.08177 -0.5633,-0.01227 -0.1783,-0.09406 -0.2877,-0.246716 -0.3281,-0.457975 -0.056,-0.181562 -0.037,-0.361479 0.057,-0.539751 l 0.4468,-0.846834 c -1.8338,0.02015 -3.5592,-0.453244 -5.1761,-1.420173 -1.617,-0.966941 -2.8502,-2.301203 -3.6997,-4.002791 -1.2525,-2.521854 -1.4354,-5.163163 -0.5487,-7.923935 0.2103,-0.686676 0.4644,-1.312295 0.7622,-1.876858 0.9718,-1.842225 2.4237,-3.298313 4.3555,-4.368268 2.5094,-1.372922 5.0929,-1.662262 7.7505,-0.868023 2.24,0.649919 3.9998,1.958084 5.2794,3.924501 L 1483.1091,4.8202 c 0.188,-0.3565366 0.4541,-0.5010128 0.7983,-0.4334293 l 0.1783,0.09405" />
          <path
             inkscape:connector-curvature="0"
             id="path6067"
             style="stroke-width:1.2900306"
             d="m 1476.336,31.810762 c -1.354,2.16464 -1.7571,4.488062 -1.2096,6.970274 0.5938,2.471544 1.9588,4.375371 4.095,5.711485 2.1646,1.353916 4.4738,1.748196 6.9276,1.18284 2.4715,-0.593853 4.3842,-1.973093 5.7382,-4.137723 1.3539,-2.164636 1.7481,-4.473817 1.1828,-6.927551 -0.5476,-2.482208 -1.9037,-4.400275 -4.0683,-5.754208 -2.1361,-1.336098 -4.4542,-1.716136 -6.9542,-1.140116 -2.4538,0.565374 -4.3576,1.930373 -5.7115,4.094999 m 16.7047,10.448375 c -1.5677,2.506414 -3.7725,4.099214 -6.6144,4.778406 -2.8242,0.650693 -5.4609,0.210009 -7.9104,-1.322054 -2.4779,-1.549893 -4.0565,-3.745795 -4.7357,-6.587713 -0.6329,-2.852587 -0.1655,-5.532089 1.4023,-8.038513 1.5498,-2.477928 3.7457,-4.056487 6.5877,-4.735683 2.8703,-0.661357 5.5445,-0.217099 8.0225,1.332776 2.4494,1.532081 3.9906,3.72441 4.6235,6.576991 0.6328,2.852591 0.1744,5.517851 -1.3755,7.99579" />
          <path
             inkscape:connector-curvature="0"
             id="path6069"
             style="stroke-width:1.2900306"
             d="m 1506.1134,41.060476 c -1.3747,-0.965708 -2.8993,-1.499723 -4.5735,-1.602047 l -8.6673,11.828416 c 0.6165,1.659529 1.6257,2.982081 3.0276,3.967659 1.4289,1.005427 3.0239,1.52858 4.7848,1.569459 2.393,0.08759 4.4607,-0.687992 6.2029,-2.326737 1.7621,-1.665849 2.6869,-3.695299 2.7745,-6.088354 0.057,-1.499042 -0.2404,-2.883269 -0.8928,-4.152684 -0.6327,-1.296499 -1.518,-2.361736 -2.6562,-3.195712 m 6.2351,-17.546366 c 0.1626,0.119165 0.2584,0.272644 0.2874,0.460435 0.029,0.187846 -0.016,0.36305 -0.1353,0.525613 l -10.0374,13.698199 c 2.3552,0.309764 4.3251,1.315894 5.9097,3.018392 1.8971,2.014847 2.7974,4.423781 2.701,7.226808 -0.084,2.104085 -0.7318,3.982624 -1.943,5.635623 -0.3575,0.487766 -0.7754,0.972849 -1.2538,1.45525 -2.0347,1.924211 -4.44,2.848013 -7.2159,2.771409 -1.882,-0.04625 -3.6115,-0.584706 -5.1885,-1.61536 -1.5771,-1.030665 -2.7615,-2.398302 -3.5532,-4.102915 l -0.5957,0.812949 c -0.1191,0.162588 -0.2726,0.258367 -0.4604,0.287337 -0.1878,0.02897 -0.363,-0.01612 -0.5256,-0.135255 -0.1626,-0.11914 -0.2584,-0.272619 -0.2874,-0.460435 -0.029,-0.187821 0.016,-0.363025 0.1353,-0.525613 l 21.147,-28.859709 c 0.2184,-0.298053 0.5064,-0.378531 0.8641,-0.241434 0.047,-0.0072 0.098,0.009 0.1517,0.04871" />
          <path
             inkscape:connector-curvature="0"
             id="path6071"
             style="stroke-width:1.2900306"
             d="m 1521.795,61.942598 c -1.0839,-1.007391 -2.4087,-1.756642 -3.9744,-2.247755 -1.5184,-0.494995 -2.984,-0.636811 -4.3967,-0.425446 -1.8568,0.319342 -3.1134,1.125677 -3.7699,2.419009 -0.1661,0.299659 -0.2828,0.619103 -0.3503,0.958333 -0.2459,1.068931 -0.047,2.184753 0.5967,3.347469 0.8503,1.646276 2.2799,2.947033 4.289,3.902273 2.0347,0.976957 4.0041,1.303825 5.9082,0.980606 0.069,-0.02952 0.1401,-0.03535 0.2131,-0.0175 l 3.9441,-4.649971 c -0.072,-0.589938 -0.2944,-1.262908 -0.6664,-2.01891 -0.427,-0.846817 -1.0249,-1.596185 -1.7934,-2.248108 m 3.65,-8.665837 c 0.2049,0.173856 0.4887,0.436569 0.8513,0.788141 0.8532,0.811824 1.519,1.66287 1.9973,2.55314 0.6654,1.137099 1.0211,2.275794 1.0671,3.41609 0.093,1.136412 -0.1111,2.130428 -0.6131,2.982052 l -0.065,0.07686 c 0,0.04735 -0.027,0.109455 -0.092,0.186314 l -8.475,9.991673 c -0.2351,0.329156 -0.2898,0.679252 -0.164,1.050289 0.09,0.516953 0.3786,0.981878 0.8654,1.394775 l 0.038,0.0326 c 0.1281,0.108641 0.1999,0.257668 0.2155,0.447083 0.041,0.211119 0.01,0.380734 -0.1012,0.508847 -0.1304,0.153704 -0.3031,0.227475 -0.5181,0.221314 -0.1894,0.01554 -0.3482,-0.03101 -0.4763,-0.139647 l -0.038,-0.0326 c -0.7174,-0.608475 -1.1693,-1.32216 -1.3557,-2.141057 -0.1569,-0.749841 -0.046,-1.426357 0.3339,-2.029552 l 0.098,-0.115289 -0.038,-0.0326 0.033,-0.03843 c -0.047,0.0039 -0.1184,0.0097 -0.2131,0.0175 -0.047,0.0039 -0.084,-0.005 -0.1094,-0.02676 -0.503,-0.0302 -1.079,-0.07824 -1.728,-0.144102 -1.2071,-0.186889 -2.3203,-0.536407 -3.3396,-1.048556 -0.4238,-0.22738 -0.9246,-0.519943 -1.5021,-0.877691 -0.3292,-0.235157 -0.6347,-0.472251 -0.9165,-0.711282 -1.0504,-0.890967 -1.8847,-1.906938 -2.5027,-3.047916 -1.0669,-1.962181 -1.1584,-3.801869 -0.2746,-5.519071 0.2057,-0.398246 0.4389,-0.751088 0.6997,-1.058526 0.9344,-1.101642 2.2845,-1.78457 4.0505,-2.048785 1.6456,-0.278158 3.3262,-0.130168 5.0418,0.443972 1.7373,0.548529 3.2375,1.402544 4.5007,2.562049 0.9005,0.807928 1.5919,1.680705 2.0741,2.618333 0.1988,0.388866 0.3887,0.814218 0.5696,1.276057 l 0.039,0.0326 1.8905,-2.228912 c 0.5215,-0.614872 0.7671,-1.397756 0.7367,-2.348655 -0.01,-0.976514 -0.3054,-1.977047 -0.8901,-3.001602 -0.9449,-1.638497 -2.278,-2.923356 -3.999,-3.854582 -1.7211,-0.931207 -3.2861,-1.267456 -4.6949,-1.008747 -0.2112,0.04118 -0.4064,-0.01429 -0.5857,-0.16641 -0.1538,-0.130374 -0.2493,-0.277458 -0.2866,-0.44125 -0.016,-0.189391 0.042,-0.360951 0.1723,-0.51468 0.1086,-0.128087 0.2448,-0.210779 0.4086,-0.248077 1.1721,-0.239262 2.3951,-0.149028 3.669,0.270703 1.2956,0.394134 2.5051,1.045597 3.6285,1.954389" />
        </g>
        <path
           transform="matrix(-0.78125966,-0.85757753,0.85757753,-0.78125966,2097.3802,1237.9928)"
           d="m 1366.1303,45.442127 a 311.12698,311.12698 0 1 1 -622.25399,0 311.12698,311.12698 0 1 1 622.25399,0 z"
           sodipodi:ry="311.12698"
           sodipodi:rx="311.12698"
           sodipodi:cy="45.442127"
           sodipodi:cx="1055.0033"
           id="path5993"
           style="fill:none;stroke:#000000;stroke-width:9.49744987;stroke-linecap:round;stroke-miterlimit:4;stroke-opacity:1;stroke-dasharray:none;stroke-dashoffset:0"
           sodipodi:type="arc" />
        <path
           inkscape:connector-curvature="0"
           id="path6033"
           d="M 1286.5114,669.764 C 1157.102,662.04446 1037.713,592.08667 972.63886,485.84565 c -4.66361,-7.61387 -5.32864,-10.10889 -2.69447,-10.10889 1.03993,0 3.11795,2.68168 7.67116,9.8995 17.75395,28.14424 34.96095,49.0455 59.70995,72.52945 24.9591,23.68322 48.5932,41.14761 77.1457,57.00644 55.8496,31.02048 113.6974,47.31609 179.3594,50.52512 75.4812,3.68892 155.2712,-15.78038 220.2057,-53.7317 55.8289,-32.62947 100.8336,-76.5495 133.6159,-130.39518 3.7027,-6.08175 5.444,-8.3085 6.497,-8.3085 2.8025,0 2.233,2.16808 -2.7352,10.41247 -73.6659,122.24457 -216.2479,194.95721 -364.9026,186.08964 z"
           style="opacity:0.5;fill:none;stroke:none" />
      </g>
    </g>
  </g>
</svg>
