<?xml version="1.0" encoding="UTF-8" standalone="no"?>
<!-- Created with Inkscape (http://www.inkscape.org/) -->

<svg
   xmlns:dc="http://purl.org/dc/elements/1.1/"
   xmlns:cc="http://creativecommons.org/ns#"
   xmlns:rdf="http://www.w3.org/1999/02/22-rdf-syntax-ns#"
   xmlns:svg="http://www.w3.org/2000/svg"
   xmlns="http://www.w3.org/2000/svg"
   xmlns:sodipodi="http://sodipodi.sourceforge.net/DTD/sodipodi-0.dtd"
   xmlns:inkscape="http://www.inkscape.org/namespaces/inkscape"
   width="2979.9211"
   height="4212.9922"
   id="svg3726"
   version="1.1"
   inkscape:version="0.48.5 r10040"
   sodipodi:docname="diseño_remeras.svg">
  <defs
     id="defs3" />
  <sodipodi:namedview
     inkscape:document-units="mm"
     id="base"
     pagecolor="#ffffff"
     bordercolor="#666666"
     borderopacity="1.0"
     inkscape:pageopacity="0.0"
     inkscape:pageshadow="2"
     inkscape:zoom="0.061871843"
     inkscape:cx="-624.61134"
     inkscape:cy="1891.7924"
     inkscape:current-layer="layer1"
     showgrid="false"
     units="mm"
     inkscape:window-width="1366"
     inkscape:window-height="691"
     inkscape:window-x="-2"
     inkscape:window-y="-3"
     inkscape:window-maximized="1" />
  <metadata
     id="metadata4">
    <rdf:RDF>
      <cc:Work
         rdf:about="">
        <dc:format>image/svg+xml</dc:format>
        <dc:type
           rdf:resource="http://purl.org/dc/dcmitype/StillImage" />
        <dc:title></dc:title>
      </cc:Work>
    </rdf:RDF>
  </metadata>
  <g
     inkscape:label="Layer 1"
     inkscape:groupmode="layer"
     id="layer1"
     transform="translate(0,3160.6299)">
    <g
       id="g3781"
       transform="matrix(5.1843069,0,0,5.1843069,3738.7194,-681.97503)"
       inkscape:export-filename="/home/hector/Escritorio/Django_Girls/Remeras/espalda.png"
       inkscape:export-xdpi="120"
       inkscape:export-ydpi="120">
      <g
         style="font-size:186.45939636px;font-style:normal;font-variant:normal;font-stretch:normal;text-align:start;line-height:125%;letter-spacing:0px;word-spacing:0px;writing-mode:lr-tb;text-anchor:start;fill:#800080;fill-opacity:1;stroke:none;font-family:URW Gothic L;-inkscape-font-specification:URW Gothic L Book"
         id="g3378"
         transform="matrix(0.24877773,0,0,0.24877773,-861.17433,57.807804)">
        <path
           d="m 1171.6627,-78.60811 c 0,-5.593776 1.6781,-10.068809 4.2886,-11.374023 1.6781,-0.932296 2.7969,-1.118757 10.2552,-1.864594 l 0,-12.492783 c -12.4927,0.37292 -15.849,0.9323 -20.3241,3.91565 -5.7802,3.729185 -8.5771,10.814657 -8.5771,22.002209 l 0,31.698098 c 0,11.560471 -2.6104,14.543835 -14.7303,16.594886 l 0,12.865698 c 12.1199,2.237511 14.7303,5.034416 14.7303,16.59488659 l 0,31.69809741 c 0,11.187553 2.7969,18.273025 8.5771,22.002209 4.4751,2.983347 7.8314,3.729188 20.3241,3.915647 l 0,-12.492779 -2.051,-0.18646 c -9.8824,-0.932296 -12.4928,-3.542738 -12.4928,-13.052158 l 0,-31.69809702 c 0,-12.86568498 -3.1698,-18.08656498 -13.2386,-22.00220898 -0.5594,0 -1.8646,-0.559379 -3.3563,-1.118756 1.4917,-0.745837 2.7969,-1.118757 3.3563,-1.305216 10.0688,-3.729184 13.2386,-9.136523 13.2386,-22.002209 l 0,-31.698097"
           id="path3380"
           inkscape:connector-curvature="0"
           style="fill:#800080;stroke:none" />
        <path
           d="m 1268.1671,-18.008806 c 26.4772,-2.796888 40.6481,-17.527208 40.6481,-41.953364 0,-17.340707 -7.2719,-30.392889 -20.697,-37.664799 -8.5771,-4.661481 -20.5105,-6.712541 -38.5971,-6.712541 l -34.122,0 0,137.793497 13.798,0 0,-125.300714 19.3917,0 c 14.5439,0 24.2398,1.491678 31.6981,5.034403 9.323,4.475022 14.5439,13.798008 14.5439,26.290775 0,15.662574 -7.0855,25.358482 -20.8835,29.087666 -6.5261,1.678133 -15.4761,2.423972 -30.7658,2.423972 l 46.4284,62.463898 17.1543,0 -38.5971,-51.462793"
           id="path3382"
           inkscape:connector-curvature="0"
           style="fill:#800080;stroke:none" />
        <path
           d="m 1326.2346,33.453987 13.798,0 0,-101.99329 -13.798,0 0,101.99329 m -14.1709,-124.181958 6.3396,10.441726 35.9867,-21.256375 -6.3396,-10.81464 -35.9867,21.629289"
           id="path3384"
           inkscape:connector-curvature="0"
           style="fill:#800080;stroke:none" />
        <path
           d="m 1412.979,-70.963275 c -30.2064,0 -53.5138,22.934536 -53.5138,52.768009 0,31.325148 22.9345,54.073225 54.6326,54.073225 29.8335,0 51.8357,-22.561617 51.8357,-53.140928 0,-31.138688 -22.3752,-53.700306 -52.9545,-53.700306 m 0,12.679239 c 22.3751,0 38.97,17.527207 38.97,41.207527 0,23.3074009 -16.0355,40.275229 -38.2241,40.275229 -23.4939,0 -40.2753,-17.154288 -40.2753,-41.021067 0,-23.120942 16.9679,-40.461689 39.5294,-40.461689"
           id="path3387"
           inkscape:connector-curvature="0"
           style="fill:#800080;stroke:none" />
        <path
           d="m 1653.6311,-2.7191358 c -5.7802,7.2719092 -9.1365,11.001108 -13.798,14.5438328 -9.1365,7.271909 -21.6293,11.374023 -34.1221,11.374023 -31.8845,0 -58.1753,-26.4772662 -58.1753,-58.73471 0,-33.189739 25.1721,-58.54825 57.9889,-58.54825 11.9334,0 23.121,3.169816 32.2575,9.32297 6.1531,3.915643 9.8823,8.017762 15.1032,16.221967 l 15.4761,0 c -10.6282,-23.680319 -34.8679,-38.224177 -63.3962,-38.224177 -41.021,0 -71.4139,30.579383 -71.4139,71.786869 0,40.275189 31.1387,70.85457 72.3462,70.85457 27.9689,0 49.2253,-13.052183 63.0233,-38.5970948 l -15.2897,0"
           id="path3389"
           inkscape:connector-curvature="0"
           style="fill:#800080;stroke:none" />
        <path
           d="m 1778.4656,-68.539303 -13.7979,0 0,52.395091 c 0,12.4927668 -1.8646,20.3240802 -6.1532,26.663693 -5.7802,8.017746 -14.9168,12.679239 -25.5449,12.679239 -11.3741,0 -21.07,-4.661493 -25.7314,-12.865698 -3.1698,-5.2208579 -4.848,-13.425087 -4.848,-23.866803 l 0,-55.005522 -13.798,0 0,55.005522 c 0,15.1031962 2.6105,25.731404 8.0178,33.189773 7.6448,10.628175 19.9511,16.221967 35.2408,16.221967 15.849,0 25.9179,-5.593794 32.8169,-18.273021 l 0,15.849049 13.7979,0 0,-101.99329"
           id="path3391"
           inkscape:connector-curvature="0"
           style="fill:#800080;stroke:none" />
        <path
           d="m 1905.7096,-68.539303 -13.798,0 0,18.086562 c -10.0688,-14.1709 -22.5616,-20.510534 -40.2752,-20.510534 -30.5793,0 -53.7003,23.120996 -53.7003,53.700306 0,30.392852 23.3074,53.140928 54.6326,53.140928 17.3407,0 28.5283,-5.780256 39.3429,-20.324074 l 0,17.900102 13.798,0 0,-101.99329 m -53.7003,10.255267 c 22.3751,0 39.9023,17.527206 39.9023,40.27523 0,23.1209418 -17.1543,41.207526 -39.1564,41.207526 -23.121,0 -40.8347,-18.0865844 -40.8347,-41.393986 0,-22.188646 17.9002,-40.08877 40.0888,-40.08877"
           id="path3393"
           inkscape:connector-curvature="0"
           style="fill:#800080;stroke:none" />
        <path
           d="m 1929.3142,33.453987 13.798,0 0,-59.480547 c 0,-19.01884 9.6959,-29.460587 28.9012,-31.325179 l 0,-13.611536 c -14.7303,0.745837 -23.4939,5.780253 -28.9012,16.967805 l 0,-14.543833 -13.798,0 0,101.99329"
           id="path3395"
           inkscape:connector-curvature="0"
           style="fill:#800080;stroke:none" />
        <path
           d="m 1997.8905,33.453987 13.798,0 0,-89.50051 22.9345,0 0,-12.49278 -22.9345,0 0,-35.800207 -13.798,0 0,35.800207 -22.0022,0 0,12.49278 22.0022,0 0,89.50051"
           id="path3397"
           inkscape:connector-curvature="0"
           style="fill:#800080;stroke:none" />
        <path
           d="m 2098.363,-70.963275 c -30.2064,0 -53.5139,22.934536 -53.5139,52.768009 0,31.325148 22.9346,54.073225 54.6326,54.073225 29.8335,0 51.8357,-22.561617 51.8357,-53.140928 0,-31.138688 -22.3751,-53.700306 -52.9544,-53.700306 m 0,12.679239 c 22.3751,0 38.97,17.527207 38.97,41.207527 0,23.3074009 -16.0356,40.275229 -38.2242,40.275229 -23.4939,0 -40.2752,-17.154288 -40.2752,-41.021067 0,-23.120942 16.9678,-40.461689 39.5294,-40.461689"
           id="path3399"
           inkscape:connector-curvature="0"
           style="fill:#800080;stroke:none" />
        <path
           d="m 2180.6469,31.216474 c 0,3.729185 -0.9323,7.644837 -2.2375,9.50943 -1.4917,2.23751 -3.5427,2.98335 -10.2553,3.542728 l -2.051,0.18646 0,12.492779 c 13.6115,-0.186459 17.9001,-1.30522 22.5616,-5.593782 4.1021,-3.729184 6.3396,-10.628195 6.3396,-20.324074 l 0,-31.69809741 c 0,-11.56047059 2.424,-14.54383459 14.1709,-16.59488659 l 0,-12.865698 c -11.7469,-2.051051 -14.1709,-5.034415 -14.1709,-16.594886 l 0,-31.698098 c 0,-8.763583 -1.8646,-15.662593 -5.4073,-19.391777 -4.6615,-5.034402 -9.1365,-6.153162 -23.4939,-6.526082 l 0,12.492783 2.051,0.186459 c 6.1532,0.559378 8.3907,1.118758 9.8824,2.983351 1.6781,2.051051 2.6104,5.966704 2.6104,10.068807 l 0,31.698097 c 0,12.865686 3.1698,18.086566 13.2386,22.002209 0.5594,0.186459 1.8646,0.559379 3.3563,1.305216 -1.4917,0.559377 -2.7969,1.118756 -3.3563,1.118756 -10.0688,3.915644 -13.2386,9.136524 -13.2386,22.00220898 l 0,31.69809702"
           id="path3401"
           inkscape:connector-curvature="0"
           style="fill:#800080;stroke:none" />
      </g>
      <path
         style="fill:#800080;stroke:none"
         d="m -444.91553,4.9527039 c -3.1329,-0.094 -6.0265,-0.8142 -8.6048,-2.142 -1.9605,-1.0096 -3.752,-2.34890004 -5.4302,-4.06 -1.3439,-1.3698 -2.5156,-2.9291 -3.3738,-4.49 -0.9814,-1.7855 -1.6477,-3.6225 -2.0383,-5.6213999 -0.1481,-0.7571 -0.2371,-1.4034 -0.322,-2.3377 -0.086,-0.9573 -0.093,-2.4341 -0.015,-3.5025 0.2837,-3.8874 1.5544,-7.3343 3.8324,-10.3948 1.2638,-1.6978 2.8668,-3.3034 4.5506,-4.5578 3.0094,-2.242 6.4328,-3.5198 10.2371,-3.8216 0.6898,-0.055 1.023,-0.067 1.8295,-0.067 1.4179,0 2.5895,0.098 3.8224,0.3214 1.4684,0.2655 2.7241,0.6311 4.0737,1.1864 2.1214,0.8728 4.1884,2.2229 6.0158,3.9299 2.531,2.3637 4.3337,5.0372 5.4082,8.0203 0.6745,1.8725 1.0381,3.7391 1.1565,5.9408 0.026,0.4899 0.026,1.871 0,2.2886 -0.1293,2.0667 -0.429,3.682 -1.0027,5.4053999 -0.5187,1.5579 -1.1863,2.9445 -2.1048,4.372 -1.3343,2.0728 -3.2578,4.11779996 -5.2949,5.6296 -0.8076,0.5993 -1.3639,0.9604 -2.2314,1.449 -2.3387,1.3173 -5.0519,2.1329 -7.9159,2.3796 -0.6398,0.055 -1.9428,0.091 -2.5921,0.072 z m 1.5998,-2.2543 c 2.8368,-0.133 5.3903,-0.8368 7.7355,-2.13240004 1.6343,-0.9033 3.1705,-2.09689996 4.4957,-3.49439996 0.4699,-0.4952 0.6491,-0.6948 0.9647,-1.0722 2.2859,-2.7351 3.6232,-5.8519 4.0131,-9.3532999 0.092,-0.8281 0.1232,-1.5184 0.11,-2.4362 -0.012,-0.8844 -0.053,-1.5106 -0.1509,-2.2639 -0.3419,-2.6555 -1.2137,-5.0402 -2.6532,-7.2578 -1.0917,-1.6811 -2.5525,-3.2814 -4.2071,-4.6073 -2.3548,-1.8875 -4.9651,-3.0821 -7.8551,-3.5952 -1.2135,-0.2154 -2.3004,-0.3002 -3.6422,-0.2839 -0.9089,0.011 -1.3987,0.043 -2.203,0.1436 -2.8507,0.3568 -5.463,1.3556 -7.7802,2.9747 -2.0149,1.408 -3.8654,3.3078 -5.188,5.3259 -1.5408,2.3512 -2.4504,4.9399 -2.7435,7.8085 -0.1117,1.0928 -0.124,2.4618 -0.032,3.601 0.225,2.8016 1.0217,5.3171999 2.4242,7.6529999 1.1109,1.8498 2.7225,3.6741 4.5312,5.1291 2.3682,1.90519996 5.0676,3.1238 8.0221,3.6214 0.7933,0.1335 1.4079,0.1959 2.4118,0.245 0.2623,0.013 1.4349,0.01 1.7474,0 z m -4.003,-3.38140004 c -0.083,-0.037 -0.1314,-0.076 -0.1314,-0.1048 0,-0.011 0.036,-0.075 0.079,-0.141 0.108,-0.16419996 0.3401,-0.57079996 0.4067,-0.71179996 0.1016,-0.2153 0.2291,-0.7222 0.2791,-1.1073 0.026,-0.2009 0.029,-0.4745 0.034,-2.9429 l 0.01,-2.7214 -0.053,0.011 c -0.086,0.017 -0.2749,0.1135 -0.3851,0.1969 -0.2166,0.164 -0.3293,0.3297 -0.4028,0.5925 l -0.036,0.1312 -0.01,2.2393 c -0.011,2.4281 -0.01,2.3053 -0.099,2.5915 -0.075,0.232 -0.1556,0.3555 -0.3668,0.568 -0.2076,0.2089 -0.3374,0.3042 -0.5885,0.4319 -0.3493,0.1779 -0.8272,0.2805 -1.3031,0.28 -0.4563,-5e-4 -0.6515,-0.082 -0.709,-0.294 -0.037,-0.1413 0.036,-0.2312 0.4092,-0.4926 0.4655,-0.3267 0.6134,-0.4834 0.787,-0.8333 0.1136,-0.2283 0.139,-0.3115 0.1668,-0.5492 0.021,-0.1851 0.012,-0.8881 -0.016,-1.1609 -0.055,-0.5485 -0.086,-1.2776 -0.066,-1.5741 0.01,-0.1122 0.012,-0.206 0.01,-0.2083 -0.01,0 -0.074,0.018 -0.1595,0.044 -0.3687,0.1157 -0.806,0.1795 -1.2267,0.1791 -0.8863,0 -1.7636,-0.2765 -2.653,-0.8329 -0.2024,-0.1267 -0.2852,-0.2036 -0.5136,-0.4779 -0.2417,-0.2895 -0.5252,-0.7125 -0.7831,-1.1684 -0.3769,-0.6657 -0.5151,-0.8589 -0.9636,-1.3454999 -0.2017,-0.2189 -0.6297,-0.6227 -0.9549,-0.9008 -0.2191,-0.1873 -0.2575,-0.2351 -0.2575,-0.3193 0,-0.1074 0.1612,-0.2609 0.3659,-0.3481 0.098,-0.042 0.1199,-0.045 0.3428,-0.044 0.2067,1e-4 0.2623,0.01 0.4263,0.047 0.2195,0.054 0.4682,0.1795 0.7024,0.3528 0.2125,0.1568 0.611,0.567 0.9817,1.0104 0.6117,0.7307999 0.9795,1.0730999 1.4823,1.3791999 0.8002,0.4873 1.6089,0.5999 2.411,0.3358 0.3029,-0.1 0.5978,-0.2421 0.8753,-0.4227 0.093,-0.061 0.096,-0.065 0.149,-0.2178 0.1223,-0.3529 0.3061,-0.6405 0.5921,-0.9275999 0.1082,-0.109 0.249,-0.2367 0.3119,-0.2838 0.1467,-0.1094 0.4701,-0.2671 0.9674,-0.4719 l 0.3935,-0.1618 -0.2622,-0.029 c -1.1662,-0.1265 -1.9876,-0.2702 -2.8031,-0.4907 -1.5187,-0.4105 -2.7716,-1.0834 -3.6447,-1.9575 -0.2759,-0.2761 -0.4429,-0.4781 -0.6408,-0.7741 -0.7801,-1.1684 -1.1725,-2.6827 -1.1726,-4.5259 0,-0.2617 0.01,-0.5828 0.017,-0.7136 0.065,-0.8775 0.2616,-1.7949 0.5085,-2.3706 0.2666,-0.6208 0.6821,-1.2765 1.1465,-1.8083 0.1375,-0.1573 0.1331,-0.1227 0.053,-0.4146 -0.3271,-1.2051 -0.2421,-2.5862 0.2538,-4.1201 l 0.057,-0.1817 0.1425,0.011 c 1.1488,0.088 2.2649,0.4159 3.2958,0.9668 0.3154,0.1684 0.8013,0.4789 1.0768,0.688 l 0.1297,0.098 0.2724,-0.067 c 0.6948,-0.1709 1.5906,-0.3236 2.2744,-0.3877 0.5138,-0.048 0.6788,-0.058 1.184,-0.075 1.3963,-0.045 2.9823,0.099 4.3353,0.3947 0.1213,0.027 0.2332,0.048 0.2485,0.048 0.015,0 0.096,-0.047 0.1817,-0.1047 0.4924,-0.3359 1.5788,-0.9255 2.0276,-1.1002 0.4646,-0.1807 0.9398,-0.3022 1.48,-0.3779 0.3024,-0.042 0.7859,-0.09 0.9128,-0.09 l 0.067,0 0.076,0.242 c 0.2242,0.7141 0.3616,1.5515 0.3982,2.4238 0.017,0.4147 -0.029,1.0023 -0.1165,1.4506 l -0.039,0.2038 0.089,0.1 c 0.601,0.6651 1.0455,1.4126 1.3562,2.2816 0.3197,0.8929 0.4949,2.0722 0.4664,3.1334 -0.049,1.8105 -0.4456,3.2781 -1.1764,4.3556 -0.5334,0.7865 -1.2842,1.4434 -2.3449,2.0514 -0.6815,0.3906 -1.3598,0.6437 -2.2638,0.8443 -0.4666,0.1035 -1.3011,0.2206 -1.9596,0.2749 l -0.2448,0.02 0.2778,0.1535 c 0.8849,0.4892 1.4132,0.9645999 1.6623,1.4963999 0.1438,0.3063 0.25,0.6662 0.3214,1.087 l 0.04,0.2432 0,1.1594 c 0,0.9026 0.01,1.4591 0.043,2.5127 l 0.043,1.3535 0.085,0.1312 c 0.1405,0.2137 0.3098,0.4065 0.5057,0.5755 0.18,0.1548 0.4054,0.3173 0.5207,0.3754 0.1501,0.076 0.2131,0.1921 0.1788,0.3294 -0.026,0.1043 -0.1026,0.1743 -0.2402,0.2208 -0.091,0.031 -0.1576,0.039 -0.3817,0.045 -0.6596,0.019 -1.2514,-0.1575 -1.7306,-0.5169 -0.1652,-0.1239 -0.4032,-0.3581 -0.4701,-0.4627 -0.061,-0.095 -0.1391,-0.2983 -0.1826,-0.4754 -0.033,-0.1382 -0.034,-0.1777 -0.044,-2.3717 -0.011,-2.499 -0.01,-2.322 -0.1323,-2.5945 -0.069,-0.1453 -0.1493,-0.2357 -0.326,-0.3697 -0.1176,-0.089 -0.3713,-0.2209 -0.4563,-0.2369 l -0.052,-0.01 0,2.59 c 0,3.0429 0.01,3.2672 0.1229,3.7435 0.052,0.2185 0.1244,0.3697 0.2605,0.5514 0.1272,0.1701 0.2577,0.421 0.3059,0.58899996 0.019,0.065 0.041,0.1314 0.05,0.1484 0.02,0.038 -0.01,0.064 -0.082,0.09 -0.1245,0.041 -0.3247,0.017 -0.6577,-0.081 -0.094,-0.028 -0.2242,-0.066 -0.2872,-0.084 -0.4519,-0.1302 -0.8712,-0.43629996 -1.1114,-0.81189996 -0.1499,-0.2345 -0.3338,-0.7116 -0.4141,-1.0757 -0.1014,-0.4592 -0.096,-0.298 -0.1024,-3.2241 l -0.01,-2.6781 -0.5161,0 -0.5163,0 0,2.4812 c 0,2.4684 -0.01,2.8123 -0.056,3.1549 -0.056,0.379 -0.2148,0.8972 -0.3691,1.2048 -0.1265,0.2526 -0.3358,0.5047 -0.5657,0.6807 -0.3063,0.23479996 -0.6681,0.37689996 -1.1484,0.45089996 -0.263,0.041 -0.356,0.04 -0.4509,0 z"
         id="path3403"
         inkscape:connector-curvature="0" />
      <path
         style="fill:#800080"
         d="m -445.72953,137.8205 c -1.707,-0.1638 -4.0852,-0.7838 -5.2861,-1.3783 -1.1271,-0.558 -2.2397,-1.538 -2.6462,-2.3309 -0.4649,-0.9067 -0.4578,-0.8041 -0.4578,-6.6345 0,-5.9858 -0.01,-5.8642 0.5593,-6.9364 0.593,-1.1171 1.6997,-2.0441 2.9244,-2.4496 l 0.6558,-0.2171 5.943,-0.048 c 5.4444,-0.044 5.9807,-0.06 6.3938,-0.195 2.1687,-0.7076 3.8038,-2.4137 4.345,-4.5337 0.1463,-0.5732 0.1634,-0.9109 0.1634,-3.218 l 0,-2.5777 2.1108,0.001 c 2.3146,0 2.8791,0.071 3.638,0.4472 1.5359,0.7615 2.4659,2.3336 3.1345,5.2993 0.449,1.9914 0.4975,2.4328 0.4977,4.5335 0,2.3014 -0.083,2.8248 -0.7788,4.8902 -1.0599,3.1474 -2.1955,4.4055 -4.2099,4.6641 -0.3193,0.041 -3.9465,0.076 -8.0605,0.077 l -7.4799,0 0,0.6072 0,0.6071 4.9648,0 4.9649,0 -0.028,2.368 c -0.026,2.2451 -0.038,2.3921 -0.2159,2.8323 -0.7112,1.757 -2.3981,2.9171 -5.3409,3.6731 -1.8211,0.4678 -4.14,0.6744 -5.7913,0.516 z m 7.8051,-3.3485 c 1.4677,-0.675 1.4642,-2.7132 -0.01,-3.3792 -1.2024,-0.5447 -2.5856,0.366 -2.5803,1.6989 0,0.5811 0.212,1.0407 0.6349,1.3914 0.6158,0.5105 1.2614,0.6061 1.9512,0.2889 z m -21.6688,-7.3481 c -1.943,-0.2751 -3.4636,-1.7375 -4.2387,-4.0764 -0.3002,-0.9061 -0.7534,-3.2076 -0.8687,-4.4121 -0.2474,-2.584 0.3953,-6.531 1.3307,-8.1717 0.979,-1.717 2.5163,-2.7695 4.4959,-3.078 0.3336,-0.052 3.1764,-0.083 7.6029,-0.084 l 7.0701,-7e-4 0,-0.6072 0,-0.6071 -4.9594,0 -4.9592,0 0,-2.449 c 0,-2.6593 0.064,-3.2169 0.4497,-3.994896 0.8691,-1.7544 3.6296,-2.6393 8.6067,-2.7589 2.6468,-0.064 5.18,0.1491 6.5577,0.5506 1.6129,0.47 2.9198,1.4657 3.5996,2.742396 0.5464,1.0262 0.54,0.9461 0.54,6.8193 0,5.0113 -0.01,5.3321 -0.1619,5.9235 -0.4173,1.6114 -1.6235,2.8824 -3.3219,3.5001 -0.3794,0.138 -0.8547,0.1526 -6.3938,0.1963 -6.5045,0.051 -6.2722,0.035 -7.3853,0.5211 -1.9758,0.863 -3.4522,2.812 -3.7184,4.909 -0.047,0.37 -0.085,1.6846 -0.085,2.9214 l 0,2.2487 -1.8239,-0.01 c -1.0031,-0.01 -2.0553,-0.043 -2.3381,-0.083 z m 10.3414,-23.6454 c 0.4436,-0.1301 1.0481,-0.7271 1.1799,-1.1652 0.2093,-0.6962 0.079,-1.3319 -0.3766,-1.8305 -0.9608,-1.052396 -2.6167,-0.728896 -3.1254,0.6106 -0.1338,0.3521 -0.1,1.0311 0.069,1.3912 0.4037,0.8593 1.3253,1.266 2.2529,0.9939 z"
         id="path3405"
         inkscape:connector-curvature="0" />
    </g>
    <g
       id="g3407"
       transform="matrix(4.6258931,0,0,4.6258931,12185.167,-4660.622)"
       inkscape:export-filename="/home/hector/Escritorio/Django_Girls/Remeras/Frente.png"
       inkscape:export-xdpi="120"
       inkscape:export-ydpi="120">
      <path
         inkscape:connector-curvature="0"
         id="path3409"
         d="m -2398.856,434.97737 0,8.04882 0,8.02854 7.6433,0 7.623,0 0,-8.02854 0,-8.04882 -7.623,0 -7.6433,0 z m -25.0588,0.14192 0,11.79953 0,11.8198 -0.4866,0 c -0.2586,-2e-5 -1.2076,-0.152 -2.1085,-0.32438 -4.0149,-0.76827 -10.269,-0.21441 -14.7596,1.29754 -1.5547,0.52347 -3.5742,1.36839 -4.1765,1.74357 -0.1724,0.10739 -0.6519,0.34893 -1.0542,0.5474 -1.8906,0.93281 -5.8668,4.53115 -6.6093,5.98087 -0.1888,0.36835 -0.4014,0.71293 -0.4866,0.77041 -0.1926,0.12972 -1.7605,3.13781 -1.9261,3.68989 -0.067,0.22238 -0.3247,0.90868 -0.5677,1.54083 -0.9465,2.46292 -1.6827,6.9007 -1.6827,10.1776 -0.01,4.71312 1.4319,10.69394 3.2844,13.7053 0.2637,0.42872 0.4663,0.8262 0.4663,0.89206 0,0.0659 0.5203,0.82369 1.1557,1.68275 1.2475,1.68711 2.6849,3.22359 3.0208,3.22359 0.1149,0 0.223,0.0664 0.223,0.16219 -10e-5,0.19506 1.9674,1.60039 2.6153,1.86522 0.23,0.0939 0.8412,0.38803 1.3584,0.66904 2.3645,1.28465 6.8415,2.48172 10.867,2.8992 4.1538,0.43079 10.8101,0.24908 16.4017,-0.46631 1.2642,-0.16175 3.142,-0.40066 4.1764,-0.52712 1.0345,-0.12647 2.5408,-0.37818 3.3453,-0.5474 0.8045,-0.16922 1.7113,-0.30541 2.0274,-0.30411 l 0.5879,0 0,-36.14874 0,-36.14873 -7.8461,0 -7.8257,0 z m 71.4459,22.84892 c -1.8772,0 -4.2276,0.0975 -5.2104,0.22301 -3.0845,0.39375 -7.5544,1.35124 -10.1371,2.16933 -0.4597,0.14562 -1.2669,0.39203 -1.7841,0.5474 -0.5172,0.15537 -1.6317,0.57256 -2.4937,0.93261 l -1.5814,0.64877 -0.04,5.98086 -0.061,5.98087 1.5206,-0.6285 c 1.8152,-0.75271 3.371,-1.34108 5.0685,-1.88549 0.6896,-0.22116 1.5846,-0.51338 1.9869,-0.64878 1.6463,-0.55409 6.1896,-1.19227 8.4543,-1.19617 1.9113,-0.003 5.5034,0.47774 5.7578,0.77042 0.5038,0.57946 0.8798,2.20039 0.8921,3.9129 0.02,2.77639 0.014,2.76846 -1.9058,2.91947 -2.7603,0.21717 -5.5052,0.55103 -7.1364,0.87179 -0.8621,0.16952 -2.0847,0.40981 -2.7168,0.52713 -2.9026,0.53865 -6.6985,1.88336 -8.3124,2.93974 -0.4942,0.32351 -0.9869,0.58795 -1.0745,0.58795 -0.088,0 -0.7603,0.55103 -1.5002,1.23672 -0.7401,0.68569 -1.4142,1.2531 -1.5004,1.257 -0.086,0.004 -0.1622,0.15198 -0.1622,0.32438 10e-5,0.17241 -0.054,0.30411 -0.1419,0.30411 -0.1674,0 -0.1953,0.0476 -1.2367,2.14906 -1.422,2.86989 -1.9724,7.01673 -1.3584,10.29925 0.3687,1.97077 0.8569,3.62392 1.0948,3.77098 0.1074,0.0664 0.1825,0.25767 0.1825,0.42576 0,0.7907 3.2046,4.48057 3.8926,4.48057 0.1372,0 0.2861,0.0557 0.3244,0.14192 0.1031,0.23204 2.3862,1.31782 2.7776,1.31782 0.1853,0 0.602,0.10964 0.9123,0.26356 0.6094,0.30219 2.55,0.67026 5.0483,0.95289 3.9549,0.44743 11.594,0.1054 20.1727,-0.91234 1.3793,-0.16362 3.5288,-0.3527 4.7644,-0.42575 l 2.2302,-0.14192 0,-18.93602 c -0.01,-20.42918 -0.025,-20.82148 -1.1151,-23.57879 -1.0546,-2.6663 -2.6852,-4.37394 -5.4335,-5.67675 -3.1864,-1.51053 -5.3282,-1.90576 -10.1775,-1.90576 z m 155.1578,0 c -1.0527,0.0223 -2.0456,0.0894 -2.8993,0.20274 -3.9655,0.52673 -8.4962,1.86503 -10.5628,3.12221 -0.1723,0.10488 -0.6523,0.37886 -1.0745,0.60822 -0.4222,0.22936 -0.9456,0.5588 -1.1556,0.72987 -1.8281,1.48913 -2.7703,2.37702 -3.4668,3.22358 -0.4489,0.54555 -0.9103,1.01598 -1.0138,1.05426 -0.1034,0.0383 -0.1825,0.18086 -0.1825,0.30411 0,0.12324 -0.2397,0.51534 -0.5271,0.89206 -0.2873,0.37672 -0.5271,0.76669 -0.5271,0.85151 0,0.0848 -0.1102,0.30513 -0.2635,0.48658 -0.1536,0.18145 -0.415,0.65198 -0.5677,1.05425 -0.1528,0.40228 -0.3739,0.88185 -0.5069,1.05426 -0.1331,0.1724 -0.3794,0.71951 -0.5271,1.23672 -0.1477,0.51721 -0.3771,1.28048 -0.5272,1.68275 -0.15,0.40228 -0.368,1.14527 -0.4865,1.66248 -0.1186,0.5172 -0.3863,1.65197 -0.588,2.51399 -0.2865,1.22481 -0.3714,2.47141 -0.3649,5.73757 0.01,4.15869 0.083,4.77668 0.9529,7.94745 0.8729,3.18302 2.3738,6.24211 4.3386,8.77869 0.9145,1.18067 3.2047,3.40545 4.3995,4.29811 0.7472,0.55812 1.4462,1.10639 1.5611,1.19617 0.1978,0.15445 2.8194,1.43989 4.1765,2.04769 0.3447,0.15443 1.0321,0.36567 1.5206,0.48657 0.4885,0.1209 1.2956,0.33209 1.7841,0.46631 0.4885,0.13421 1.5911,0.31868 2.4531,0.40548 2.4226,0.24396 9.5429,0.059 10.7656,-0.28384 0.5746,-0.16116 1.5574,-0.41916 2.1896,-0.56767 0.6321,-0.14852 1.4832,-0.41648 1.8855,-0.58795 0.4023,-0.17148 0.9696,-0.39385 1.257,-0.50685 2.7192,-1.06946 6.0308,-3.71351 8.0691,-6.4269 1.6059,-2.13779 1.9524,-2.70081 2.9803,-4.80496 0.365,-0.74708 0.7635,-1.52372 0.8717,-1.7233 0.1083,-0.19958 0.1825,-0.5044 0.1825,-0.66904 0,-0.16466 0.1404,-0.56668 0.3041,-0.89206 0.1637,-0.32539 0.3923,-0.95945 0.5069,-1.41919 0.1145,-0.45974 0.3303,-1.25091 0.4663,-1.76385 1.0481,-3.9538 1.0677,-9.86465 0.061,-13.90804 -0.725,-2.91131 -2.2937,-7.02425 -3.0411,-7.94745 -0.093,-0.11493 -0.6351,-0.81402 -1.1962,-1.5611 -1.2767,-1.70007 -3.1264,-3.49673 -4.6225,-4.48058 -0.6321,-0.41572 -1.2434,-0.82118 -1.3584,-0.91234 -0.2175,-0.17259 -2.8195,-1.43574 -3.5479,-1.7233 -0.3932,-0.15524 -1.2791,-0.44904 -3.0614,-1.0137 -1.8359,-0.58166 -5.4992,-0.91847 -8.6571,-0.85151 z m -107.3312,0.0811 c -2.8273,-0.006 -5.8518,0.20618 -9.0422,0.64877 -3.1604,0.43842 -7.074,1.14703 -9.4072,1.68275 -0.6897,0.15834 -1.9122,0.42493 -2.7167,0.60823 -0.8046,0.1833 -1.6236,0.3879 -1.8247,0.44603 -0.3456,0.0999 -0.3649,1.40391 -0.3649,23.70043 l 0,23.59906 7.623,0 7.6231,0 0,-18.48998 0,-18.48999 0.5677,-0.12165 c 0.316,-0.0661 1.0911,-0.25011 1.7233,-0.40548 2.3731,-0.58328 5.701,-0.79638 7.5622,-0.50685 2.1746,0.3383 3.2575,0.95358 4.1157,2.37207 1.3693,2.26342 1.3775,2.45136 1.2975,19.92945 l -0.061,15.71243 7.6231,0 7.6231,0 0.1419,-11.33322 c 0.072,-6.23525 0.192,-12.9712 0.2635,-14.98257 0.1959,-5.51056 -0.2743,-11.21405 -1.1151,-13.48228 -0.4753,-1.28236 -1.7463,-3.72134 -2.1287,-4.09537 -0.188,-0.1839 -0.6357,-0.66347 -0.9934,-1.05426 -3.4055,-3.72102 -10.0283,-5.71975 -18.5103,-5.73757 z m 60.6398,0.24329 c -5.5061,0.0488 -7.2816,0.34183 -12.5293,1.60166 -1.137,0.27295 -4.4617,1.34415 -4.9672,1.60165 -0.1997,0.10175 -1.1283,0.53029 -2.0477,0.97316 -2.4719,1.1906 -5.173,3.20574 -6.8729,5.0888 -0.3517,0.38967 -0.7308,0.80507 -0.8515,0.93261 -0.4919,0.51975 -1.9302,2.58054 -2.2707,3.26413 -0.2004,0.40227 -0.5756,1.1271 -0.8515,1.62193 -0.6364,1.14171 -1.3149,2.93371 -1.703,4.5414 -0.1665,0.68962 -0.4507,1.91218 -0.6488,2.71673 -0.5227,2.12259 -0.5105,9.64733 0.02,11.59679 0.2034,0.74708 0.4666,1.72986 0.5879,2.1896 0.3428,1.29884 1.6118,4.13098 2.3518,5.23072 0.9516,1.41424 2.4122,3.19271 3.183,3.87236 2.1195,1.86852 3.5086,2.85294 4.7036,3.34522 0.309,0.12727 0.9247,0.40739 1.3584,0.6285 0.4337,0.22111 0.9047,0.40548 1.0543,0.40548 0.1496,0 0.4289,0.0783 0.6285,0.18247 1.8991,0.99096 8.6485,1.65714 11.1913,1.0948 6.8508,-1.51505 7.4363,-1.60824 7.3392,-1.0948 -0.036,0.18831 -0.1753,1.23964 -0.3041,2.33152 -0.4006,3.39508 -0.9965,5.33642 -2.0477,6.64991 -1.1634,1.45359 -2.0107,2.19044 -3.2033,2.77755 -2.9362,1.44545 -4.4823,1.73939 -9.0625,1.7233 -3.5088,-0.0123 -5.4807,-0.23404 -7.9272,-0.85151 -0.6896,-0.17405 -1.6285,-0.41028 -2.0882,-0.52713 -0.4598,-0.11685 -1.1634,-0.34549 -1.5409,-0.50685 -0.3774,-0.16135 -0.8233,-0.28384 -0.9934,-0.28384 -0.1701,0 -0.4695,-0.0802 -0.669,-0.18246 -0.578,-0.296 -2.8223,-1.37408 -3.2237,-1.54084 -0.3442,-0.14302 -0.3655,0.28603 -0.3648,7.01485 l 0,7.13648 2.4531,0.77042 c 4.7092,1.45936 6.6096,1.86677 10.0762,2.16933 1.5517,0.13542 3.2618,0.26749 3.7913,0.28383 1.6209,0.05 6.4551,-0.37359 8.3327,-0.72986 1.8949,-0.3596 5.7637,-1.45141 6.143,-1.7233 0.1255,-0.09 0.5945,-0.27182 1.0543,-0.42576 0.9346,-0.31295 3.7238,-1.87933 3.8318,-2.14905 0.038,-0.0957 0.1702,-0.18247 0.2838,-0.18247 0.1135,0 0.3358,-0.11989 0.4865,-0.26356 0.1508,-0.14367 0.6301,-0.54524 1.0746,-0.91234 1.5384,-1.27055 1.9666,-1.69018 1.9666,-1.92604 0,-0.13029 0.074,-0.24329 0.1825,-0.24329 0.2111,0 1.7376,-1.92056 2.4734,-3.12221 1.642,-2.68161 3.0231,-6.59862 3.5682,-10.13706 0.124,-0.80454 0.3301,-2.1791 0.4663,-3.04111 0.4195,-2.65382 0.4987,-16.35873 0.1217,-22.42317 -0.4167,-6.70138 -0.5325,-16.11223 -0.2028,-16.4423 0.1725,-0.17264 0.4433,-0.18429 1.034,-0.0202 1.0719,0.29761 2.5951,0.30143 2.5951,0 0,-0.19444 2.6521,-5.81782 3.3655,-7.13648 0.3265,-0.60354 1.4395,-3.56801 1.4395,-3.83181 0,-0.13167 -0.4475,-0.29492 -0.9934,-0.36494 -0.546,-0.07 -1.321,-0.18198 -1.7233,-0.24328 -8.9874,-1.36922 -9.9204,-1.43882 -17.4561,-1.43947 -0.9592,-1.1e-4 -1.8287,-0.007 -2.6153,0 z m -154.813,0.7096 -0.081,20.74041 c -0.055,14.20289 -0.1557,21.36781 -0.3244,22.72727 -0.498,4.01167 -0.7088,5.34506 -0.9732,6.2647 -0.1485,0.51721 -0.4,1.36829 -0.5473,1.88549 -0.2863,1.00498 -1.8092,4.04179 -2.4329,4.84552 -0.5603,0.72192 -3.4334,3.56663 -4.0346,3.994 -0.2874,0.20424 -1.0743,0.74094 -1.7638,1.19617 -0.6897,0.45522 -1.3728,0.90795 -1.5003,1.0137 -0.1275,0.10576 -0.5868,0.38683 -1.034,0.6285 -1.9953,1.07823 -2.9124,1.90577 -2.1085,1.90577 0.2402,0 4.617,2.13138 5.5754,2.71673 0.5125,0.31306 5.9097,2.85483 6.5891,3.10194 0.3448,0.1254 0.8479,0.25986 1.1353,0.30411 0.9188,0.1414 1.79,-0.12632 3.2439,-0.97316 0.5434,-0.31653 1.8511,-1.21681 1.9868,-1.37864 0.058,-0.0685 0.429,-0.3686 0.8313,-0.64877 1.1981,-0.83442 1.4566,-1.04962 3.5479,-3.12221 2.2361,-2.21601 2.1982,-2.17896 3.325,-4.50085 1.1152,-2.29771 1.9376,-4.97401 2.3113,-7.5217 1.0415,-7.10231 1.2359,-12.05967 1.3989,-34.32406 l 0.1419,-18.85492 -7.6434,0 -7.6433,0 z m 202.4167,11.51569 c 3.4456,0.0915 6.3843,2.26334 7.9677,6.02141 0.998,2.36867 1.2708,3.89588 1.2772,7.29868 0.01,2.76387 -0.079,3.48746 -0.527,5.1699 -1.2307,4.62542 -3.5511,7.60336 -6.6905,8.55567 -2.4929,0.75623 -6.0778,0.0424 -7.9272,-1.58138 -1.5141,-1.32942 -3.0069,-3.87368 -3.5479,-6.04169 -0.6982,-2.79767 -0.9305,-6.72166 -0.5272,-8.81923 0.5548,-2.88523 0.7389,-3.51943 1.5003,-5.10908 1.3329,-2.78307 3.3993,-4.569 6.0214,-5.21044 0.8382,-0.20505 1.6581,-0.30495 2.4532,-0.28384 z m -52.2666,0.0608 c 0.6961,-0.008 1.4168,0.0221 2.1693,0.12164 l 2.1085,0.28384 -0.1217,2.20988 c -0.066,1.21631 -0.058,6.68476 0.04,12.14419 0.1093,6.08343 0.1189,10.0197 0,10.1776 -0.2493,0.33088 -1.2869,0.63677 -3.5075,1.01371 -0.977,0.16582 -2.0475,0.29363 -2.3923,0.28383 -0.7523,-0.0213 -3.5889,-0.50475 -4.1765,-0.70959 -0.7524,-0.26234 -1.8842,-0.82825 -2.1693,-1.0948 -0.1536,-0.14367 -0.3535,-0.26356 -0.446,-0.26356 -0.3087,0 -1.8036,-1.5701 -2.2099,-2.31125 -0.2206,-0.40227 -0.4985,-0.86158 -0.6285,-1.03398 -0.1301,-0.17241 -0.5229,-1.11129 -0.8515,-2.08824 -0.5449,-1.61899 -0.5807,-2.03089 -0.5677,-4.60222 0.011,-2.13994 0.1017,-3.01528 0.3649,-3.62906 0.1909,-0.44505 0.3441,-0.96852 0.3447,-1.15563 0,-0.98073 2.4591,-4.8299 3.8115,-5.98086 2.6695,-2.27172 5.2145,-3.33143 8.2313,-3.3655 z m -182.0413,0.10137 c 2.4498,-0.0541 5.8665,0.263 6.5891,0.70959 0.1172,0.0724 0.2028,5.08907 0.2028,12.59022 l 0,12.48885 -2.1491,0.36494 c -3.1748,0.53391 -4.8137,0.42819 -7.8866,-0.50685 -1.584,-0.48199 -3.0467,-1.39768 -4.4198,-2.75728 -0.7902,-0.78242 -1.4394,-1.49885 -1.4394,-1.60166 0,-0.1028 -0.1186,-0.31442 -0.2636,-0.4663 -0.4853,-0.50827 -1.1221,-2.18255 -1.6423,-4.33866 -0.3511,-1.45567 -0.3597,-4.82521 -0.02,-6.12278 0.1429,-0.54594 0.371,-1.42777 0.5069,-1.96659 0.1359,-0.53882 0.4672,-1.3578 0.7298,-1.82467 0.2626,-0.46686 0.6203,-1.13521 0.811,-1.48001 0.1908,-0.34481 0.5028,-0.79826 0.6894,-0.99343 1.3122,-1.37303 2.022,-2.04769 2.149,-2.04769 0.081,0 0.2739,-0.1199 0.4258,-0.26356 0.1518,-0.14367 0.5472,-0.38973 0.892,-0.5474 0.3448,-0.15767 0.8683,-0.38749 1.1557,-0.52713 0.2873,-0.13965 1.0506,-0.38273 1.6827,-0.52712 0.4655,-0.10636 1.1702,-0.16442 1.9868,-0.18247 z m 81.3803,16.90861 0,5.23072 c 0,5.98081 0.2585,5.3338 -2.291,5.79839 -1.7559,0.31997 -5.0595,0.35289 -6.4877,0.0608 -1.584,-0.32392 -3.1222,-0.83429 -3.1222,-1.03398 0,-0.10424 -0.1299,-0.18247 -0.2839,-0.18247 -0.1539,0 -0.6512,-0.39238 -1.0947,-0.87178 -0.6986,-0.75489 -0.8181,-1.04532 -0.8921,-2.06796 -0.069,-0.95804 0.021,-1.37426 0.446,-2.20988 0.6964,-1.36775 1.3193,-2.0371 2.4532,-2.65591 1.3786,-0.75233 4.1144,-1.30984 7.8258,-1.60165 1.2643,-0.0994 2.5629,-0.24486 2.8789,-0.32439 l 0.5677,-0.14192 z m 67.6547,29.84348 c -0.2286,0 -0.4055,0.0536 -0.4055,0.12165 0,0.0681 -0.7684,0.19994 -1.703,0.30411 -1.5731,0.17532 -1.6965,0.21544 -1.703,0.50685 -0.023,1.22916 1.1195,28.40652 1.1961,28.46485 0.053,0.0406 0.1325,1.23366 0.1825,2.65591 0.246,6.96429 1.1373,29.20295 1.2165,30.28952 0.088,1.20808 0.1148,1.23249 0.7298,1.86522 0.8011,0.82424 1.2942,0.8728 2.0477,0.16219 0.368,-0.34708 0.5952,-0.75581 0.7704,-1.35836 0.2286,-0.78657 0.2368,-1.21222 0.081,-4.64277 -0.1899,-4.1838 -0.3933,-12.17468 -0.5474,-21.32837 -0.056,-3.31182 -0.1463,-6.02141 -0.2028,-6.02141 -0.056,0 -0.1475,-2.14341 -0.2026,-4.76442 -0.1647,-7.79733 -0.4378,-15.29548 -0.8516,-22.97056 l -0.1825,-3.28441 -0.4257,0 z m -41.1767,11.13049 c -0.6286,0 -1.0056,0.0424 -1.0543,0.12164 -0.041,0.0673 -0.2075,0.14296 -0.3649,0.18247 -0.1575,0.0395 -0.2839,0.13121 -0.2839,0.18247 0,0.0512 -0.086,0.0811 -0.2027,0.0811 -0.1167,0 -0.2507,0.076 -0.2838,0.1622 -0.033,0.0862 -0.1271,0.16219 -0.2028,0.16219 -0.1946,0 -0.8829,0.71177 -1.0137,1.05425 -0.038,0.10057 -0.1234,0.18247 -0.1824,0.18247 -0.059,0 -0.1014,0.12604 -0.1014,0.26356 0,0.13752 -0.076,0.27103 -0.1622,0.30411 -0.086,0.0331 -0.1419,0.17892 -0.1419,0.32439 0,0.14547 -0.044,0.26356 -0.1014,0.26356 -0.058,0 -0.1216,0.0878 -0.1216,0.20274 0,0.11494 0.051,0.22302 0.1013,0.22302 0.05,0 0.1259,0.17946 0.1622,0.40548 0.045,0.28378 0.1194,0.44078 0.2636,0.48658 0.1148,0.0365 0.2027,0.13212 0.2027,0.22302 0,0.18482 0.5895,0.78421 0.8718,0.89206 0.1006,0.0384 0.1825,0.12388 0.1825,0.18246 0,0.0586 0.1959,0.12541 0.4257,0.1622 0.23,0.0368 0.4055,0.1121 0.4055,0.16219 0,0.0501 0.3277,0.10137 0.7299,0.10137 0.4179,0 0.7298,-0.062 0.7298,-0.12164 1e-4,-0.0574 0.058,-0.10138 0.1217,-0.10138 0.1255,0 0.9326,-0.75229 0.9326,-0.87178 0,-0.0396 0.076,-0.15709 0.1622,-0.24329 0.086,-0.0862 0.1419,-0.26592 0.1419,-0.40548 0,-0.13957 0.044,-0.24329 0.1014,-0.24329 0.057,0 0.1217,-0.0926 0.1217,-0.20274 0,-0.11015 0.052,-0.2202 0.1215,-0.24329 0.091,-0.0301 0.1152,-0.47886 0.1218,-1.60166 l 0.02,-1.58138 -0.365,-0.34466 c -0.3644,-0.36082 -0.3709,-0.36493 -1.3381,-0.36493 z m 34.0402,10.60336 -1.5003,0.0608 c -0.8194,0.0382 -1.5123,0.1 -1.5408,0.14192 -0.029,0.042 -0.4382,0.1206 -0.9123,0.16219 -0.4742,0.0416 -0.8516,0.11632 -0.8516,0.16219 0,0.0459 -0.2836,0.10189 -0.6284,0.14192 -0.3449,0.04 -0.6286,0.11691 -0.6286,0.16219 0,0.0453 -0.2077,0.1234 -0.4663,0.1622 -0.2586,0.0388 -0.4866,0.10821 -0.4866,0.16219 0,0.054 -0.056,0.10137 -0.1419,0.10137 -0.086,0 -0.1622,0.0309 -0.1622,0.0811 0,0.0501 -0.1957,0.1254 -0.4257,0.16219 -0.2298,0.0368 -0.4055,0.11275 -0.4055,0.16219 0,0.0494 -0.1959,0.10513 -0.4257,0.14192 -0.2299,0.0368 -0.4258,0.10997 -0.4258,0.16219 0,0.0522 -0.1317,0.14458 -0.3041,0.18247 -0.1724,0.0379 -0.3042,0.0936 -0.3042,0.14192 0,0.0483 -0.1518,0.1243 -0.3243,0.16219 -0.1724,0.0379 -0.3041,0.11555 -0.3041,0.16219 0,0.0466 -0.1292,0.10313 -0.2839,0.14192 -0.1546,0.0388 -0.3563,0.1607 -0.446,0.26357 -0.09,0.10287 -0.2848,0.21905 -0.4258,0.26356 -0.141,0.0445 -0.3268,0.1444 -0.4055,0.22301 -0.078,0.0786 -0.1876,0.14192 -0.2635,0.14192 -0.076,0 -0.1696,0.076 -0.2027,0.1622 -0.033,0.0862 -0.135,0.16219 -0.223,0.16219 -0.088,0 -0.1622,0.0478 -0.1622,0.10137 0,0.0536 -0.114,0.12158 -0.2433,0.16219 -0.1293,0.0406 -0.3195,0.1887 -0.4461,0.32439 -0.1265,0.13568 -0.2684,0.24329 -0.3041,0.24329 -0.036,0 -0.2128,0.1317 -0.3851,0.30411 -0.1725,0.1724 -0.3537,0.32439 -0.4055,0.32439 -0.146,0 -2.913,2.78756 -2.9195,2.93974 0,0.0739 -0.1544,0.26451 -0.3244,0.40548 -0.17,0.14097 -0.3041,0.29107 -0.3041,0.34466 0,0.0536 -0.1199,0.21152 -0.2636,0.34466 -0.1436,0.13315 -0.2636,0.28446 -0.2636,0.34466 0,0.0602 -0.027,0.10137 -0.081,0.10137 -0.054,0 -0.1415,0.11399 -0.1825,0.24329 -0.04,0.1293 -0.1751,0.3257 -0.304,0.44603 -0.1289,0.12034 -0.2614,0.33071 -0.3041,0.46631 -0.043,0.13559 -0.1445,0.32685 -0.2231,0.40548 -0.079,0.0786 -0.1419,0.20173 -0.1419,0.28384 0,0.0821 -0.045,0.14192 -0.1013,0.14192 -0.057,0 -0.1462,0.1199 -0.1825,0.26356 -0.036,0.14367 -0.1109,0.26356 -0.1622,0.26356 -0.051,0 -0.081,0.076 -0.081,0.1622 0,0.0862 -0.048,0.16219 -0.1014,0.16219 -0.053,0 -0.1245,0.13171 -0.1622,0.30411 -0.038,0.1724 -0.1135,0.32439 -0.1622,0.32439 -0.048,0 -0.1043,0.13171 -0.1418,0.30411 -0.038,0.1724 -0.1293,0.30411 -0.1825,0.30411 -0.053,0 -0.081,0.076 -0.081,0.16219 0,0.0862 -0.049,0.16219 -0.1014,0.16219 -0.052,0 -0.1207,-0.53529 -0.1622,-1.19617 -0.042,-0.66088 -0.1187,-1.21644 -0.1622,-1.21644 -0.043,0 -0.1207,-0.5353 -0.1622,-1.19618 -0.042,-0.66087 -0.1103,-1.19617 -0.1622,-1.19617 -0.052,0 -0.1014,-0.2077 -0.1014,-0.4663 0,-0.25861 -0.03,-0.48658 -0.081,-0.48658 -0.051,0 -0.1206,-0.50321 -0.1621,-1.13535 -0.042,-0.63215 -0.1155,-1.15563 -0.1622,-1.15563 -0.047,0 -0.1214,-0.4593 -0.1622,-1.03398 -0.041,-0.57467 -0.1194,-1.05425 -0.1622,-1.05425 -0.043,0 -0.101,-0.38294 -0.142,-0.85151 -0.078,-0.89688 -0.1825,-1.08425 -0.6284,-1.19617 -0.1506,-0.0378 -0.2636,-0.0953 -0.2636,-0.14192 0,-0.0466 -0.152,-0.12431 -0.3244,-0.1622 -0.1724,-0.0379 -0.3041,-0.1134 -0.3041,-0.16219 0,-0.0488 -0.2516,-0.12268 -0.5677,-0.16219 -0.3161,-0.0395 -0.588,-0.11133 -0.588,-0.16219 10e-5,-0.0509 -0.1636,-0.0811 -0.3648,-0.0811 -0.2011,0 -0.365,0.0315 -0.365,0.0811 0,0.0496 -0.2058,0.12651 -0.4663,0.16219 -0.4744,0.065 -0.9935,0.4537 -0.9935,0.75014 0,0.073 -0.06,0.14182 -0.1215,0.16219 -0.061,0.0204 -0.1298,0.24358 -0.1622,0.48658 -0.033,0.24301 -0.092,0.44603 -0.142,0.44603 -0.05,0 -0.1013,0.73118 -0.1013,1.62193 0,0.89074 0.051,1.62193 0.1013,1.62193 0.051,0 0.1213,0.38331 0.1622,0.87179 0.041,0.48848 0.1168,0.89206 0.1622,0.89206 0.045,0 0.1017,0.31577 0.142,0.68932 0.04,0.37353 0.1167,0.66904 0.1621,0.66904 0.046,0 0.1226,0.32759 0.1622,0.72987 0.04,0.40227 0.1083,0.72987 0.1622,0.72987 0.054,0 0.1014,0.1638 0.1014,0.36493 0,0.20114 0.049,0.36494 0.1013,0.36494 0.052,0 0.122,0.28368 0.1622,0.62849 0.04,0.34481 0.099,0.6285 0.142,0.6285 0.043,0 0.12,0.93326 0.1621,2.06796 0.042,1.1347 0.1162,2.07951 0.1622,2.10851 0.046,0.029 0.1201,0.9558 0.1622,2.04768 0.042,1.09189 0.1175,1.99867 0.1622,2.02741 0.045,0.0287 0.1,1.11369 0.142,2.39235 0.042,1.27865 0.1186,2.31125 0.1622,2.31125 0.043,0 0.1199,1.13477 0.1622,2.51399 0.042,1.37923 0.1121,2.51399 0.1622,2.51399 0.05,0 0.081,0.5353 0.081,1.19617 0,0.66088 0.051,1.19618 0.1014,1.19618 0.051,0 0.12,0.97097 0.1622,2.14905 0.042,1.17809 0.1174,2.12878 0.1622,2.12878 0.045,0 0.12,0.89498 0.1622,1.98686 0.042,1.09189 0.1116,1.98687 0.1622,1.98687 0.051,0 0.1013,0.33561 0.1013,0.72987 0,0.39425 0.025,0.92954 0.061,1.19617 0.062,0.44837 0.088,0.48658 0.3649,0.48658 0.1646,0 0.3041,-0.0506 0.3041,-0.10137 0,-0.0507 0.3395,-0.12178 0.7705,-0.1622 0.431,-0.0403 0.7906,-0.11704 0.7906,-0.16219 0,-0.0452 0.3276,-0.10228 0.7299,-0.14192 0.4022,-0.0396 0.7299,-0.12849 0.7299,-0.18247 0,-0.054 0.1959,-0.0811 0.4258,-0.0811 0.2298,0 0.4054,-0.0642 0.4054,-0.12165 0,-0.0574 0.09,-0.10137 0.1825,-0.10137 0.1461,0 0.1463,-0.0784 0.081,-0.68932 -0.042,-0.3879 -0.096,-0.74167 -0.142,-0.77041 -0.046,-0.0287 -0.1207,-0.52604 -0.1622,-1.11508 -0.042,-0.58904 -0.1325,-1.07453 -0.1824,-1.07453 -0.05,0 -0.081,-0.28847 -0.081,-0.62849 0,-0.40169 -0.037,-0.62049 -0.1217,-0.64878 -0.1907,-0.0636 -0.1907,-9.18141 0,-9.24499 0.085,-0.0283 0.1217,-0.26734 0.1217,-0.66904 0,-0.34002 0.051,-0.60823 0.1013,-0.60823 0.051,0 0.1214,-0.40358 0.1622,-0.89206 0.041,-0.48847 0.097,-0.89206 0.142,-0.89206 0.045,0 0.1226,-0.3276 0.1622,-0.72987 0.04,-0.40227 0.1135,-0.72987 0.1622,-0.72987 0.049,0 0.1219,-0.28369 0.1622,-0.62849 0.04,-0.34482 0.1148,-0.62851 0.1621,-0.62851 0.047,0 0.1024,-0.2516 0.142,-0.56767 0.04,-0.31608 0.118,-0.58795 0.1622,-0.58795 0.044,0 0.103,-0.2077 0.1419,-0.4663 0.039,-0.25861 0.1286,-0.46631 0.1825,-0.46631 0.054,0 0.1013,-0.076 0.1013,-0.16219 0,-0.0862 0.029,-0.1622 0.081,-0.1622 0.052,0 0.1429,-0.21951 0.1824,-0.50685 0.04,-0.28733 0.093,-0.52712 0.142,-0.52712 0.049,0 0.1246,-0.1638 0.1622,-0.36494 0.038,-0.20114 0.1174,-0.36493 0.1622,-0.36493 0.045,0 0.1043,-0.1638 0.1419,-0.36494 0.038,-0.20114 0.1116,-0.36493 0.1622,-0.36493 0.05,0 0.1246,-0.15198 0.1622,-0.32439 0.038,-0.17239 0.1136,-0.30411 0.1622,-0.30411 0.048,0 0.1043,-0.15198 0.1419,-0.32438 0.038,-0.1724 0.109,-0.30412 0.1622,-0.30412 0.053,0 0.1014,-0.076 0.1014,-0.16219 0,-0.0862 0.048,-0.16219 0.1013,-0.16219 0.053,0 0.1246,-0.13171 0.1622,-0.30411 0.038,-0.17241 0.1103,-0.30411 0.1622,-0.30411 0.052,0 0.1259,-0.1199 0.1622,-0.26357 0.036,-0.14366 0.097,-0.26356 0.142,-0.26356 0.045,0 0.1258,-0.11989 0.1622,-0.26356 0.036,-0.14367 0.1057,-0.26357 0.1621,-0.26357 0.057,0 0.1014,-0.0742 0.1014,-0.16219 0,-0.088 0.076,-0.18993 0.1622,-0.22302 0.086,-0.0331 0.1419,-0.12268 0.1419,-0.20274 0,-0.0801 0.045,-0.14192 0.1014,-0.14192 0.056,0 0.1474,-0.12405 0.1824,-0.26356 0.035,-0.13951 0.1218,-0.27303 0.2028,-0.30411 0.081,-0.0311 0.1419,-0.13227 0.1419,-0.22302 0,-0.0907 0.12,-0.27233 0.2636,-0.40548 0.1436,-0.13315 0.2635,-0.29107 0.2635,-0.34466 0,-0.0536 0.1341,-0.20369 0.3042,-0.34466 0.1699,-0.14097 0.3244,-0.29911 0.3244,-0.34466 0.01,-0.11608 0.1562,-0.28031 1.0339,-1.15562 0.4235,-0.42238 0.8016,-0.80149 0.8515,-0.85151 0.05,-0.05 0.304,-0.31498 0.5677,-0.58795 0.2638,-0.27298 0.5367,-0.50686 0.5879,-0.50686 0.051,0 0.2292,-0.1317 0.4055,-0.30411 0.1765,-0.1724 0.3859,-0.32438 0.4663,-0.32438 0.08,0 0.1867,-0.0879 0.2231,-0.20274 0.036,-0.1148 0.1684,-0.22951 0.3041,-0.26357 0.1356,-0.0341 0.273,-0.14199 0.304,-0.22301 0.031,-0.081 0.1351,-0.14192 0.2231,-0.14192 0.088,0 0.1622,-0.0477 0.1622,-0.10137 0,-0.0536 0.096,-0.12197 0.223,-0.1622 0.1267,-0.0402 0.2863,-0.14439 0.3649,-0.22301 0.079,-0.0786 0.2221,-0.14192 0.3041,-0.14192 0.082,0 0.142,-0.0485 0.142,-0.10137 0,-0.0529 0.1342,-0.12489 0.3041,-0.16219 0.1697,-0.0373 0.3521,-0.15865 0.3851,-0.26357 0.036,-0.11497 0.1873,-0.20235 0.4055,-0.24329 0.1992,-0.0374 0.365,-0.11372 0.365,-0.16219 0,-0.0485 0.1638,-0.12443 0.3649,-0.16219 0.2012,-0.0378 0.365,-0.10802 0.365,-0.16219 0,-0.0542 0.1958,-0.12541 0.4257,-0.1622 0.2299,-0.0368 0.4257,-0.11275 0.4257,-0.16219 1e-4,-0.0494 0.1756,-0.12541 0.4055,-0.16219 0.2299,-0.0368 0.4258,-0.0918 0.4258,-0.14192 0,-0.0501 0.1318,-0.10137 0.3041,-0.10137 0.1724,0 0.3244,-0.0467 0.3244,-0.10137 0,-0.0546 0.2837,-0.1232 0.6285,-0.1622 0.3448,-0.039 0.6285,-0.11561 0.6285,-0.16219 0,-0.0466 0.1697,-0.1038 0.3852,-0.12164 0.388,-0.0321 0.394,-0.0356 0.4258,-0.52713 0.017,-0.27298 0.055,-0.48658 0.1013,-0.48658 0.046,0 0.1226,-0.3996 0.1622,-0.87178 0.04,-0.47219 0.1155,-0.88172 0.1622,-0.91234 0.047,-0.0306 0.1043,-0.39348 0.142,-0.81096 l 0.081,-0.75015 z m 33.8983,2.25042 c -1.3459,0.0764 -2.7786,0.3328 -2.9397,0.52713 -0.041,0.049 -0.5664,0.25507 -1.1759,0.44603 -1.3322,0.41735 -2.656,1.0072 -2.656,1.19617 0,0.0754 -0.09,0.14192 -0.1824,0.14192 -0.3834,0 -2.1656,1.30137 -3.0411,2.20988 -1.6076,1.66817 -2.0492,3.12013 -1.9058,6.28497 0.097,2.12961 0.6985,4.20586 1.4192,4.92661 0.1482,0.14815 0.4803,0.59488 0.7502,0.99343 0.5101,0.75363 2.5413,2.87893 2.7573,2.87893 0.068,0 0.4531,0.30332 0.8514,0.66904 0.3984,0.36572 0.7787,0.64877 0.8516,0.64877 0.1554,0 1.4472,0.85071 1.6624,1.09481 0.081,0.0922 0.8901,0.53629 1.7841,0.97316 0.8941,0.43685 1.6622,0.84029 1.703,0.89206 0.041,0.0518 0.7714,0.41579 1.6423,0.81096 0.8709,0.39518 1.6188,0.76075 1.6422,0.81097 0.023,0.0502 0.7684,0.43692 1.6624,0.87178 0.894,0.43487 1.6622,0.8364 1.703,0.89206 0.041,0.0557 0.4653,0.33577 0.953,0.60823 0.4876,0.27246 1.1144,0.61134 1.3988,0.77041 0.2845,0.15908 0.5682,0.38199 0.6286,0.48658 0.06,0.10459 0.4819,0.43073 0.9326,0.72987 0.4506,0.29914 0.9853,0.81665 1.1961,1.13535 0.211,0.3187 0.4459,0.56768 0.5069,0.56768 0.2566,0 0.811,1.73415 0.811,2.53426 0,1.08012 -0.26,1.50848 -1.1759,2.00714 l -0.7501,0.40548 -3.4061,0 c -2.5727,-0.005 -3.7424,-0.0684 -4.805,-0.26357 -1.66,-0.30487 -4.1729,-0.97714 -4.2778,-1.13535 -0.041,-0.0613 -0.4451,-0.2179 -0.8921,-0.36493 -1.123,-0.36941 -2.8431,-1.09742 -2.9397,-1.23672 -0.044,-0.0634 -0.7888,-0.45838 -1.6625,-0.89206 -0.8736,-0.43367 -1.6017,-0.85213 -1.6017,-0.91234 0,-0.0602 -0.4532,-0.37666 -1.0136,-0.70959 -0.5604,-0.33293 -1.167,-0.73042 -1.3584,-0.89206 -0.713,-0.60228 -2.0311,-1.6422 -2.0883,-1.6422 -0.032,0 -0.4313,-0.32401 -0.8718,-0.72987 -0.4405,-0.40586 -0.8356,-0.7497 -0.892,-0.75014 -0.057,-5e-4 -0.4307,-0.30328 -0.8313,-0.68932 -1.39,-1.3394 -1.5619,-1.41998 -2.6559,-1.31782 -1.0882,0.10162 -1.4642,0.28929 -2.0477,1.05425 -0.3872,0.50778 -0.3822,0.53935 -0.1622,0.99344 0.2758,0.56923 2.8841,3.3655 3.1425,3.3655 0.1005,0 0.3555,0.22859 0.5677,0.50685 0.2123,0.27826 0.7081,0.70946 1.1151,0.97316 0.4069,0.26368 0.7501,0.52878 0.7501,0.58795 0,0.0592 0.4854,0.4311 1.0948,0.81096 0.6095,0.37986 1.2147,0.789 1.3381,0.91234 0.233,0.233 1.1035,0.71468 2.3721,1.33809 0.4064,0.19969 0.7701,0.42332 0.8109,0.48658 0.085,0.13226 3.0385,1.48 3.2439,1.48 0.075,0 0.217,0.0809 0.3244,0.18247 0.2431,0.22992 1.2296,0.59589 3.1425,1.1759 0.8127,0.24643 1.5202,0.50929 1.5611,0.56768 0.1886,0.27103 4.938,1.20608 7.3797,1.45973 0.6909,0.0719 2.531,0.11042 4.0752,0.0811 3.0515,-0.058 4.2176,-0.26719 5.5753,-0.99343 0.7525,-0.40253 1.6378,-1.44653 1.9059,-2.23016 0.09,-0.26291 0.2363,-0.50211 0.304,-0.5474 0.068,-0.0453 0.1895,-0.63009 0.2839,-1.29754 0.1777,-1.25699 0,-3.82791 -0.2839,-4.01427 -0.071,-0.047 -0.1881,-0.26085 -0.2433,-0.48658 -0.2285,-0.93358 -0.8986,-2.05598 -1.8855,-3.12221 -0.5762,-0.6226 -1.1255,-1.11501 -1.2164,-1.11508 -0.091,-7e-5 -0.3927,-0.26298 -0.6893,-0.56768 -0.2966,-0.30469 -1.0448,-0.80018 -1.6422,-1.11507 -0.5975,-0.31488 -1.1147,-0.63456 -1.1557,-0.68932 -0.086,-0.11646 -1.6309,-0.86571 -2.7977,-1.35837 -0.4471,-0.1887 -0.8512,-0.37924 -0.8921,-0.42575 -0.073,-0.0835 -0.649,-0.30422 -2.8181,-1.11508 -0.6095,-0.22785 -1.1325,-0.46679 -1.1759,-0.52713 -0.043,-0.0603 -0.468,-0.27425 -0.9529,-0.48658 -1.5575,-0.6821 -2.5194,-1.14873 -2.5951,-1.25699 -0.041,-0.0581 -0.4045,-0.28201 -0.8109,-0.50686 -0.839,-0.46421 -1.4978,-0.9172 -1.8652,-1.25699 -0.1383,-0.12779 -0.6392,-0.5668 -1.1152,-0.97316 -0.9856,-0.84157 -1.698,-1.70549 -2.0274,-2.49371 -0.1246,-0.29821 -0.3269,-0.65131 -0.446,-0.77042 -0.2649,-0.26483 -0.4767,-1.29403 -0.6691,-3.18304 -0.1181,-1.16145 -0.1162,-1.5458 0.061,-2.04768 0.4385,-1.24275 2.5322,-2.76853 4.4806,-3.26413 0.4267,-0.10853 0.7704,-0.23103 0.7704,-0.28384 0,-0.20645 2.6773,-0.5062 4.5008,-0.50685 1.8712,-6.5e-4 4.359,0.28488 4.359,0.50685 0,0.0608 0.3236,0.1995 0.7096,0.30411 0.7471,0.20244 1.7429,0.65265 2.1085,0.95288 0.464,0.38091 0.7202,0.36426 1.1556,-0.0811 0.2369,-0.24232 0.5164,-0.63107 0.6285,-0.85151 0.112,-0.22045 0.3629,-0.60003 0.5474,-0.85152 0.1845,-0.25148 0.3244,-0.51301 0.3244,-0.58795 0,-0.15402 -1.2992,-0.94875 -2.0274,-1.23672 -0.2641,-0.10445 -0.4866,-0.24384 -0.4866,-0.30411 0,-0.14542 -2.2967,-0.93899 -3.6899,-1.27727 -0.6095,-0.14799 -1.1514,-0.32461 -1.1962,-0.3852 -0.1679,-0.22701 -4.0537,-0.58745 -5.4739,-0.50686 z m -85.7392,0.46631 c -2.5663,1.3e-4 -3.0669,0.0698 -4.0751,0.48658 -1.993,0.82383 -2.8769,1.26136 -3.1425,1.58138 -0.1416,0.17064 -0.3505,0.32438 -0.4662,0.32438 -0.3717,0 -3.0002,2.83925 -3.6089,3.89263 -0.3236,0.56004 -0.6527,1.0576 -0.7299,1.11508 -0.2072,0.15461 -1.6505,3.29493 -2.0679,4.50085 -1.93,5.5763 -2.6619,10.73425 -2.4532,17.53711 0.1941,6.32679 0.5777,8.85718 1.6828,11.15076 0.6942,1.44087 1.9504,1.81748 4.2778,1.27727 1.3669,-0.31729 3.9606,-1.64297 4.1765,-2.12878 0.038,-0.0862 0.1539,-0.1622 0.2636,-0.1622 0.3993,0 3.3691,-3.18987 4.2981,-4.62249 0.3238,-0.49946 0.6412,-0.95623 0.7096,-1.01371 0.2789,-0.23454 2.953,-5.27606 3.183,-6.00114 0.064,-0.20138 0.2454,-0.60472 0.4055,-0.89206 0.5905,-1.06041 0.9934,-1.93364 0.9934,-2.14905 0,-0.12176 0.2023,-0.6461 0.446,-1.1759 0.9983,-2.17022 1.2199,-2.63386 1.2368,-2.53426 0.01,0.0575 0.089,1.23613 0.1824,2.61536 0.094,1.37922 0.3248,4.47956 0.5068,6.89319 0.5599,7.42124 0.9798,15.53331 0.9732,18.67246 -0.012,5.33559 -1.0759,10.33567 -2.96,13.80666 -0.4747,0.87468 -0.9376,1.62414 -1.034,1.66248 -0.096,0.0383 -0.1824,0.16683 -0.1824,0.30411 0,0.13728 -0.1634,0.39505 -0.365,0.56768 -0.2016,0.17262 -0.5611,0.55961 -0.7907,0.85151 -0.5436,0.69108 -2.9066,2.43559 -3.852,2.83838 -2.1425,0.91281 -3.4823,1.18494 -5.6565,1.19617 -2.266,0.0117 -2.4466,-0.0196 -4.7036,-1.1759 -0.4598,-0.23552 -0.963,-0.54889 -1.1354,-0.68932 -0.6075,-0.49481 -2.4158,-1.40028 -3.3452,-1.68275 -1.5867,-0.48221 -1.6828,-0.45889 -1.6828,0.79069 10e-5,0.93298 0.1279,1.30517 0.8516,2.41262 0.4687,0.71739 0.9922,1.29754 1.1556,1.29754 0.1634,0 0.3041,0.0992 0.3041,0.20274 0,0.16812 1.227,1.02875 1.7639,1.23672 0.1149,0.0445 0.4863,0.20259 0.8312,0.34466 0.3449,0.14207 1.1958,0.4023 1.8855,0.58795 0.9376,0.25246 1.8956,0.30791 3.771,0.24329 4.0078,-0.13806 6.6374,-0.88988 8.88,-2.57481 1.3373,-1.00473 3.4693,-3.13166 4.136,-4.11564 0.3121,-0.46078 0.6113,-0.87513 0.669,-0.93261 0.058,-0.0575 0.2426,-0.37325 0.4054,-0.68932 0.163,-0.31608 0.3709,-0.56768 0.4664,-0.56768 0.095,0 0.1622,-0.12299 0.1622,-0.26356 0,-0.14056 0.3329,-0.91565 0.7298,-1.7233 1.4565,-2.96326 2.5343,-7.12766 3.1628,-12.24556 0.272,-2.21584 0.3323,-3.85359 0.2433,-7.31896 -0.1139,-4.431 -0.213,-5.61495 -0.9934,-13.23899 -1.0808,-10.55738 -1.241,-14.78919 -0.7502,-18.9563 0.5987,-5.08341 0.2921,-9.29114 -0.7095,-9.77212 -0.1721,-0.0826 -1.3951,-0.51388 -2.7168,-0.95288 -2.326,-0.77254 -2.5005,-0.81111 -5.3321,-0.81096 z m 19.3821,0.62849 c -0.2586,0 -0.4663,0.0312 -0.4663,0.0811 -1e-4,0.0499 -0.1876,0.13027 -0.4258,0.16219 -0.2382,0.0319 -0.4712,0.10491 -0.5069,0.1622 -0.035,0.0573 -0.1872,0.12268 -0.3446,0.16219 -0.1575,0.0395 -0.2839,0.11094 -0.2839,0.16219 0,0.0513 -0.06,0.10137 -0.1418,0.10137 -0.193,0 -0.7908,0.59774 -0.7908,0.79069 0,0.0818 -0.064,0.14192 -0.1216,0.14192 -0.069,0 -0.1014,4.13927 -0.1014,12.18474 0,8.04548 0.032,12.16447 0.1014,12.16447 0.069,0 0.1216,2.16479 0.1216,6.28498 l 0,6.28497 0.3447,0.34466 c 0.1983,0.19257 0.4243,0.36493 0.4865,0.36493 0.062,0 0.1312,0.0614 0.1622,0.14192 0.031,0.0806 0.2084,0.16576 0.4055,0.20274 0.1972,0.037 0.365,0.12758 0.365,0.18247 0,0.0549 0.088,0.10137 0.2027,0.10137 0.1149,0 0.223,0.0272 0.223,0.0811 0,0.0538 0.158,0.11875 0.3447,0.14192 0.1867,0.0232 0.5144,0.0516 0.7298,0.0608 l 0.3853,0.0202 0,-11.75899 c 0,-7.76684 -0.033,-11.73871 -0.1014,-11.73871 -0.069,0 -0.1014,-2.87596 -0.1014,-8.41376 l 0,-8.41375 -0.4865,0 z m -19.747,4.94689 c 0.2336,-0.003 0.457,0.0152 0.669,0.0405 1.983,0.2365 3.2407,0.64552 3.3249,1.07453 0.1467,0.74597 -0.521,5.14323 -1.2569,8.23129 -0.1233,0.51721 -0.3171,1.32438 -0.4258,1.78412 -0.3927,1.66212 -1.4574,5.266 -1.8652,6.32553 -0.1035,0.26907 -0.3764,1.07624 -0.6082,1.78412 -0.4182,1.27693 -0.686,1.90176 -1.7436,4.11565 -1.1112,2.32598 -2.4964,4.59364 -2.8992,4.76441 -0.09,0.0383 -0.1622,0.15989 -0.1622,0.26356 0,0.38456 -2.004,2.13584 -2.8789,2.51399 -2.0282,0.87661 -3.6193,0.19009 -4.1967,-1.82467 -0.8139,-2.83979 -0.3891,-11.15722 0.8312,-15.95573 0.8962,-3.5242 0.9114,-3.54 1.6422,-5.12934 1.4361,-3.12326 2.5077,-4.57197 4.6225,-6.2647 1.2446,-0.99621 3.3117,-1.69929 4.9469,-1.7233 z"
         style="fill:#800080;fill-opacity:1;fill-rule:evenodd;stroke:none" />
      <g
         id="g3411"
         style="font-size:58.01208115px;font-style:normal;font-weight:normal;line-height:125%;letter-spacing:0px;word-spacing:0px;fill:#800080;fill-opacity:1;stroke:none;font-family:Sans"
         transform="scale(0.88357227,1.1317693)">
        <path
           id="path3413"
           d="m -2689.5302,489.36258 -29.2327,10.39572 29.2327,10.33907 0,5.15537 -36.3142,-13.17169 0,-4.70215 36.3142,-13.17169 0,5.15537"
           inkscape:connector-curvature="0" />
        <path
           id="path3415"
           d="m -2502.4356,475.62437 4.8155,0 -14.7297,47.67302 -4.8154,0 14.7296,-47.67302"
           inkscape:connector-curvature="0" />
        <path
           id="path3417"
           d="m -2491.4167,489.36258 0,-5.15537 36.3142,13.17169 0,4.70215 -36.3142,13.17169 0,-5.15537 29.176,-10.33907 -29.176,-10.39572"
           inkscape:connector-curvature="0" />
      </g>
    </g>
  </g>
</svg>
